%TF.GenerationSoftware,KiCad,Pcbnew,7.0.6-7.0.6~ubuntu23.04.1*%
%TF.CreationDate,2023-08-05T23:29:43-04:00*%
%TF.ProjectId,udb-s,7564622d-732e-46b6-9963-61645f706362,rev?*%
%TF.SameCoordinates,Original*%
%TF.FileFunction,Soldermask,Bot*%
%TF.FilePolarity,Negative*%
%FSLAX46Y46*%
G04 Gerber Fmt 4.6, Leading zero omitted, Abs format (unit mm)*
G04 Created by KiCad (PCBNEW 7.0.6-7.0.6~ubuntu23.04.1) date 2023-08-05 23:29:43*
%MOMM*%
%LPD*%
G01*
G04 APERTURE LIST*
%ADD10C,0.125000*%
%ADD11C,0.500000*%
%ADD12C,3.600000*%
%ADD13C,6.000000*%
%ADD14C,0.650000*%
%ADD15O,1.000000X2.100000*%
%ADD16O,1.000000X1.600000*%
G04 APERTURE END LIST*
D10*
G36*
X9909978Y882117D02*
G01*
X9910185Y889027D01*
X9910806Y895562D01*
X9911842Y901721D01*
X9913292Y907505D01*
X9915156Y912912D01*
X9917435Y917945D01*
X9920128Y922601D01*
X9923235Y926882D01*
X9926757Y930787D01*
X9930693Y934316D01*
X9933547Y936461D01*
X9938012Y939407D01*
X9942570Y942064D01*
X9947220Y944430D01*
X9951963Y946507D01*
X9956797Y948294D01*
X9961724Y949792D01*
X9966743Y950999D01*
X9971855Y951917D01*
X9977059Y952545D01*
X9982355Y952883D01*
X9985937Y952947D01*
X9991501Y952817D01*
X9996928Y952426D01*
X10002217Y951775D01*
X10007369Y950863D01*
X10012384Y949691D01*
X10017261Y948259D01*
X10022001Y946566D01*
X10026604Y944612D01*
X10031069Y942398D01*
X10035396Y939924D01*
X10039587Y937189D01*
X10043639Y934194D01*
X10047555Y930938D01*
X10051333Y927422D01*
X10054974Y923645D01*
X10058477Y919608D01*
X10061790Y915356D01*
X10064889Y910934D01*
X10067774Y906342D01*
X10070445Y901580D01*
X10072903Y896648D01*
X10075147Y891547D01*
X10077177Y886275D01*
X10078994Y880834D01*
X10080596Y875224D01*
X10081986Y869443D01*
X10083161Y863492D01*
X10084123Y857372D01*
X10084871Y851082D01*
X10085405Y844622D01*
X10085726Y837992D01*
X10085832Y831192D01*
X10085832Y632500D01*
X10144206Y632500D01*
X10144206Y1148341D01*
X10085832Y1148341D01*
X10085832Y943300D01*
X10082580Y947659D01*
X10079324Y951854D01*
X10076065Y955883D01*
X10072804Y959748D01*
X10069539Y963447D01*
X10064637Y968687D01*
X10059729Y973555D01*
X10054814Y978052D01*
X10049893Y982178D01*
X10044965Y985932D01*
X10040031Y989314D01*
X10035091Y992326D01*
X10033442Y993247D01*
X10028383Y995822D01*
X10023095Y998144D01*
X10017581Y1000213D01*
X10011838Y1002028D01*
X10005868Y1003591D01*
X9999671Y1004899D01*
X9993246Y1005955D01*
X9986594Y1006757D01*
X9979713Y1007306D01*
X9972606Y1007601D01*
X9967741Y1007658D01*
X9961142Y1007553D01*
X9954716Y1007238D01*
X9948464Y1006713D01*
X9942386Y1005978D01*
X9936481Y1005034D01*
X9930750Y1003879D01*
X9925192Y1002515D01*
X9919808Y1000941D01*
X9914598Y999157D01*
X9909562Y997163D01*
X9904699Y994959D01*
X9900009Y992545D01*
X9895494Y989921D01*
X9891152Y987088D01*
X9886983Y984044D01*
X9882989Y980791D01*
X9879188Y977373D01*
X9875633Y973805D01*
X9872323Y970088D01*
X9869258Y966220D01*
X9866438Y962203D01*
X9863863Y958036D01*
X9861534Y953719D01*
X9859450Y949253D01*
X9857611Y944637D01*
X9856017Y939871D01*
X9854669Y934955D01*
X9853565Y929889D01*
X9852707Y924674D01*
X9852094Y919308D01*
X9851726Y913793D01*
X9851604Y908129D01*
X9851604Y632500D01*
X9909978Y632500D01*
X9909978Y882117D01*
G37*
G36*
X9481576Y632500D02*
G01*
X9534332Y632500D01*
X9534332Y687455D01*
X9537592Y682763D01*
X9540869Y678243D01*
X9544164Y673894D01*
X9547475Y669717D01*
X9550804Y665712D01*
X9554150Y661878D01*
X9557513Y658217D01*
X9562590Y653046D01*
X9567706Y648262D01*
X9572860Y643864D01*
X9578053Y639853D01*
X9583284Y636228D01*
X9588554Y632989D01*
X9593932Y630108D01*
X9599533Y627511D01*
X9605358Y625197D01*
X9611406Y623166D01*
X9617677Y621418D01*
X9624171Y619954D01*
X9630889Y618774D01*
X9637830Y617876D01*
X9644994Y617263D01*
X9649894Y617011D01*
X9654894Y616885D01*
X9657430Y616869D01*
X9664033Y616975D01*
X9670467Y617294D01*
X9676733Y617826D01*
X9682832Y618571D01*
X9688762Y619528D01*
X9694525Y620699D01*
X9700120Y622082D01*
X9705546Y623677D01*
X9710805Y625486D01*
X9715896Y627507D01*
X9720819Y629741D01*
X9725574Y632188D01*
X9730161Y634847D01*
X9734581Y637719D01*
X9738832Y640804D01*
X9742915Y644102D01*
X9746790Y647593D01*
X9750415Y651225D01*
X9753789Y655000D01*
X9756914Y658917D01*
X9759788Y662976D01*
X9762413Y667177D01*
X9764788Y671521D01*
X9766912Y676006D01*
X9768787Y680634D01*
X9770412Y685404D01*
X9771787Y690316D01*
X9772912Y695370D01*
X9773786Y700566D01*
X9774411Y705905D01*
X9774786Y711386D01*
X9774911Y717009D01*
X9774911Y999842D01*
X9716537Y999842D01*
X9716537Y742898D01*
X9716358Y736922D01*
X9715820Y731176D01*
X9714924Y725659D01*
X9713669Y720373D01*
X9712056Y715315D01*
X9710084Y710488D01*
X9707754Y705890D01*
X9705065Y701522D01*
X9702018Y697384D01*
X9698613Y693475D01*
X9696143Y690997D01*
X9692189Y687527D01*
X9687976Y684398D01*
X9683502Y681610D01*
X9678769Y679164D01*
X9673777Y677059D01*
X9668524Y675296D01*
X9663012Y673874D01*
X9657240Y672793D01*
X9651208Y672053D01*
X9644916Y671655D01*
X9640578Y671579D01*
X9634940Y671711D01*
X9629446Y672104D01*
X9624094Y672760D01*
X9618886Y673678D01*
X9613821Y674859D01*
X9608899Y676302D01*
X9604120Y678007D01*
X9599484Y679975D01*
X9594991Y682205D01*
X9590642Y684698D01*
X9586435Y687453D01*
X9582372Y690470D01*
X9578451Y693750D01*
X9574674Y697292D01*
X9571040Y701096D01*
X9567549Y705163D01*
X9564222Y709446D01*
X9561109Y713900D01*
X9558211Y718525D01*
X9555528Y723321D01*
X9553059Y728287D01*
X9550805Y733424D01*
X9548766Y738732D01*
X9546941Y744211D01*
X9545331Y749861D01*
X9543936Y755681D01*
X9542755Y761672D01*
X9541789Y767834D01*
X9541038Y774167D01*
X9540501Y780670D01*
X9540179Y787344D01*
X9540072Y794189D01*
X9540072Y999842D01*
X9481576Y999842D01*
X9481576Y632500D01*
G37*
G36*
X9404639Y999842D02*
G01*
X9350539Y999842D01*
X9350539Y932309D01*
X9347441Y937243D01*
X9344313Y942000D01*
X9341156Y946581D01*
X9337968Y950986D01*
X9334752Y955214D01*
X9331506Y959265D01*
X9328230Y963140D01*
X9324924Y966838D01*
X9319911Y972055D01*
X9314831Y976875D01*
X9309684Y981297D01*
X9304471Y985323D01*
X9299191Y988951D01*
X9297417Y990072D01*
X9291973Y993215D01*
X9286313Y996048D01*
X9280435Y998573D01*
X9274341Y1000788D01*
X9268030Y1002694D01*
X9261503Y1004292D01*
X9254758Y1005580D01*
X9247797Y1006558D01*
X9240619Y1007228D01*
X9235713Y1007503D01*
X9230711Y1007640D01*
X9228174Y1007658D01*
X9221573Y1007551D01*
X9215143Y1007232D01*
X9208884Y1006700D01*
X9202795Y1005955D01*
X9196878Y1004998D01*
X9191131Y1003828D01*
X9185555Y1002445D01*
X9180149Y1000849D01*
X9174915Y999041D01*
X9169851Y997020D01*
X9164958Y994786D01*
X9160236Y992339D01*
X9155685Y989679D01*
X9151304Y986807D01*
X9147094Y983722D01*
X9143055Y980424D01*
X9139210Y976965D01*
X9135613Y973364D01*
X9132264Y969622D01*
X9129164Y965739D01*
X9126311Y961715D01*
X9123706Y957550D01*
X9121350Y953243D01*
X9119241Y948795D01*
X9117381Y944206D01*
X9115769Y939476D01*
X9114404Y934604D01*
X9113288Y929591D01*
X9112420Y924437D01*
X9111800Y919142D01*
X9111428Y913706D01*
X9111303Y908129D01*
X9111303Y632500D01*
X9169800Y632500D01*
X9169800Y882117D01*
X9169979Y888069D01*
X9170517Y893789D01*
X9171413Y899277D01*
X9172668Y904534D01*
X9174281Y909558D01*
X9176253Y914351D01*
X9178583Y918912D01*
X9181271Y923241D01*
X9184319Y927338D01*
X9187724Y931204D01*
X9190194Y933652D01*
X9194148Y937100D01*
X9198361Y940209D01*
X9202835Y942979D01*
X9207568Y945410D01*
X9212560Y947502D01*
X9217813Y949254D01*
X9223325Y950667D01*
X9229097Y951741D01*
X9235129Y952476D01*
X9241421Y952872D01*
X9245759Y952947D01*
X9251323Y952817D01*
X9256750Y952426D01*
X9262039Y951775D01*
X9267191Y950863D01*
X9272206Y949691D01*
X9277083Y948259D01*
X9281823Y946566D01*
X9286426Y944612D01*
X9290891Y942398D01*
X9295218Y939924D01*
X9299409Y937189D01*
X9303462Y934194D01*
X9307377Y930938D01*
X9311155Y927422D01*
X9314796Y923645D01*
X9318299Y919608D01*
X9321612Y915356D01*
X9324711Y910934D01*
X9327596Y906342D01*
X9330267Y901580D01*
X9332725Y896648D01*
X9334969Y891547D01*
X9336999Y886275D01*
X9338816Y880834D01*
X9340419Y875224D01*
X9341808Y869443D01*
X9342983Y863492D01*
X9343945Y857372D01*
X9344693Y851082D01*
X9345227Y844622D01*
X9345548Y837992D01*
X9345654Y831192D01*
X9345654Y632500D01*
X9404639Y632500D01*
X9404639Y999842D01*
G37*
G36*
X8905423Y1007443D02*
G01*
X8913898Y1006799D01*
X8922161Y1005726D01*
X8930213Y1004223D01*
X8938052Y1002291D01*
X8945680Y999930D01*
X8953096Y997139D01*
X8960300Y993919D01*
X8967293Y990270D01*
X8974073Y986191D01*
X8980642Y981683D01*
X8986999Y976746D01*
X8993144Y971379D01*
X8999078Y965583D01*
X9004799Y959358D01*
X9010309Y952703D01*
X9015544Y945715D01*
X9020441Y938460D01*
X9025001Y930939D01*
X9029223Y923149D01*
X9033107Y915093D01*
X9036653Y906770D01*
X9039861Y898179D01*
X9042732Y889322D01*
X9045265Y880197D01*
X9047461Y870805D01*
X9048432Y866009D01*
X9049318Y861146D01*
X9050120Y856216D01*
X9050838Y851220D01*
X9051471Y846157D01*
X9052020Y841027D01*
X9052485Y835830D01*
X9052865Y830566D01*
X9053160Y825236D01*
X9053371Y819839D01*
X9053498Y814375D01*
X9053540Y808844D01*
X9053497Y803443D01*
X9053370Y798110D01*
X9053157Y792843D01*
X9052859Y787644D01*
X9052476Y782513D01*
X9052007Y777448D01*
X9051454Y772451D01*
X9050815Y767521D01*
X9049282Y757863D01*
X9047409Y748474D01*
X9045195Y739354D01*
X9042641Y730503D01*
X9039746Y721921D01*
X9036510Y713608D01*
X9032933Y705564D01*
X9029017Y697790D01*
X9024759Y690284D01*
X9020161Y683047D01*
X9015222Y676080D01*
X9009943Y669381D01*
X9004411Y663022D01*
X8998713Y657074D01*
X8992851Y651535D01*
X8986824Y646407D01*
X8980631Y641689D01*
X8974274Y637382D01*
X8967751Y633484D01*
X8961064Y629997D01*
X8954211Y626920D01*
X8947193Y624253D01*
X8940011Y621997D01*
X8932663Y620151D01*
X8925150Y618715D01*
X8917472Y617689D01*
X8909629Y617074D01*
X8901621Y616869D01*
X8897348Y616930D01*
X8891056Y617251D01*
X8884906Y617846D01*
X8878897Y618716D01*
X8873030Y619861D01*
X8867305Y621281D01*
X8861722Y622975D01*
X8856280Y624944D01*
X8850980Y627188D01*
X8845821Y629707D01*
X8840805Y632500D01*
X8835874Y635582D01*
X8830973Y639012D01*
X8826102Y642789D01*
X8821261Y646915D01*
X8816451Y651388D01*
X8811670Y656208D01*
X8806919Y661377D01*
X8802199Y666893D01*
X8799069Y670764D01*
X8795952Y674789D01*
X8792848Y678969D01*
X8789758Y683303D01*
X8789758Y663519D01*
X8789843Y654792D01*
X8790099Y646348D01*
X8790526Y638187D01*
X8791124Y630310D01*
X8791893Y622716D01*
X8792832Y615405D01*
X8793942Y608378D01*
X8795223Y601634D01*
X8796674Y595174D01*
X8798297Y588997D01*
X8800090Y583103D01*
X8802054Y577492D01*
X8804189Y572165D01*
X8806494Y567122D01*
X8808970Y562361D01*
X8811618Y557884D01*
X8814481Y553670D01*
X8817636Y549727D01*
X8821083Y546056D01*
X8824822Y542657D01*
X8828853Y539530D01*
X8833176Y536675D01*
X8837791Y534092D01*
X8842697Y531781D01*
X8847896Y529742D01*
X8853387Y527974D01*
X8859169Y526479D01*
X8865244Y525255D01*
X8871611Y524303D01*
X8878269Y523624D01*
X8885220Y523216D01*
X8892462Y523080D01*
X8902128Y523324D01*
X8911250Y524057D01*
X8919828Y525278D01*
X8927862Y526988D01*
X8935352Y529186D01*
X8942299Y531872D01*
X8948702Y535048D01*
X8954561Y538711D01*
X8959876Y542863D01*
X8964647Y547504D01*
X8968875Y552633D01*
X8972558Y558251D01*
X8975698Y564357D01*
X8978294Y570951D01*
X8980346Y578034D01*
X8981855Y585606D01*
X9041572Y585606D01*
X9040829Y579281D01*
X9039822Y573130D01*
X9038551Y567153D01*
X9037015Y561350D01*
X9035216Y555720D01*
X9033152Y550263D01*
X9030823Y544980D01*
X9028230Y539871D01*
X9025373Y534936D01*
X9022252Y530174D01*
X9018867Y525586D01*
X9015217Y521172D01*
X9011303Y516931D01*
X9007124Y512863D01*
X9002682Y508970D01*
X8997975Y505250D01*
X8993034Y501730D01*
X8987890Y498438D01*
X8982543Y495372D01*
X8976993Y492534D01*
X8971239Y489923D01*
X8965283Y487539D01*
X8959123Y485381D01*
X8952759Y483451D01*
X8946193Y481748D01*
X8939423Y480272D01*
X8932450Y479023D01*
X8925274Y478002D01*
X8917895Y477207D01*
X8910313Y476639D01*
X8902527Y476299D01*
X8894538Y476185D01*
X8891350Y476200D01*
X8885079Y476316D01*
X8878948Y476549D01*
X8872957Y476898D01*
X8867107Y477364D01*
X8861397Y477946D01*
X8855827Y478644D01*
X8850397Y479459D01*
X8845108Y480390D01*
X8839959Y481437D01*
X8834950Y482601D01*
X8830081Y483882D01*
X8823041Y486021D01*
X8816317Y488421D01*
X8809908Y491084D01*
X8805790Y492992D01*
X8799857Y496083D01*
X8794215Y499449D01*
X8788866Y503090D01*
X8783808Y507005D01*
X8779043Y511196D01*
X8774569Y515661D01*
X8770387Y520401D01*
X8766497Y525415D01*
X8762900Y530705D01*
X8759594Y536269D01*
X8757528Y540076D01*
X8754584Y545864D01*
X8751824Y551748D01*
X8749249Y557725D01*
X8746858Y563798D01*
X8744652Y569964D01*
X8742630Y576225D01*
X8740794Y582581D01*
X8739141Y589031D01*
X8737674Y595575D01*
X8736391Y602214D01*
X8735256Y609031D01*
X8734233Y616155D01*
X8733612Y621075D01*
X8733042Y626131D01*
X8732521Y631323D01*
X8732050Y636652D01*
X8731628Y642118D01*
X8731256Y647719D01*
X8730933Y653458D01*
X8730661Y659332D01*
X8730437Y665344D01*
X8730264Y671491D01*
X8730140Y677775D01*
X8730065Y684196D01*
X8730040Y690752D01*
X8730040Y810187D01*
X8789758Y810187D01*
X8789862Y802191D01*
X8790176Y794413D01*
X8790698Y786853D01*
X8791429Y779512D01*
X8792370Y772389D01*
X8793519Y765485D01*
X8794877Y758799D01*
X8796444Y752332D01*
X8798220Y746083D01*
X8800205Y740053D01*
X8802399Y734241D01*
X8804802Y728648D01*
X8807413Y723273D01*
X8810234Y718117D01*
X8813264Y713179D01*
X8816502Y708460D01*
X8819922Y703994D01*
X8823496Y699816D01*
X8827223Y695926D01*
X8831104Y692325D01*
X8835138Y689011D01*
X8839326Y685986D01*
X8843667Y683249D01*
X8848162Y680800D01*
X8852811Y678639D01*
X8857613Y676766D01*
X8862569Y675181D01*
X8867679Y673884D01*
X8872942Y672876D01*
X8878359Y672156D01*
X8883929Y671723D01*
X8889653Y671579D01*
X8895557Y671726D01*
X8901302Y672167D01*
X8906888Y672902D01*
X8912314Y673930D01*
X8917581Y675253D01*
X8922689Y676869D01*
X8927637Y678779D01*
X8932426Y680983D01*
X8937056Y683480D01*
X8941526Y686272D01*
X8945837Y689358D01*
X8949989Y692737D01*
X8953981Y696410D01*
X8957814Y700377D01*
X8961488Y704638D01*
X8965002Y709193D01*
X8968315Y714003D01*
X8971413Y719031D01*
X8974299Y724277D01*
X8976970Y729740D01*
X8979428Y735420D01*
X8981672Y741318D01*
X8983702Y747434D01*
X8985518Y753767D01*
X8987121Y760318D01*
X8988510Y767086D01*
X8989686Y774072D01*
X8990648Y781275D01*
X8991396Y788696D01*
X8991930Y796334D01*
X8992250Y804190D01*
X8992357Y812263D01*
X8992250Y820264D01*
X8991930Y828053D01*
X8991396Y835632D01*
X8990648Y843000D01*
X8989686Y850157D01*
X8988510Y857103D01*
X8987121Y863838D01*
X8985518Y870363D01*
X8983702Y876676D01*
X8981672Y882779D01*
X8979428Y888671D01*
X8976970Y894352D01*
X8974299Y899822D01*
X8971413Y905081D01*
X8968315Y910130D01*
X8965002Y914967D01*
X8961491Y919566D01*
X8957825Y923869D01*
X8954007Y927875D01*
X8950035Y931583D01*
X8945909Y934996D01*
X8941629Y938111D01*
X8937196Y940930D01*
X8932609Y943452D01*
X8927869Y945678D01*
X8922975Y947606D01*
X8917928Y949238D01*
X8912726Y950573D01*
X8907372Y951612D01*
X8901863Y952354D01*
X8896201Y952799D01*
X8890386Y952947D01*
X8884486Y952800D01*
X8878754Y952359D01*
X8873190Y951625D01*
X8867793Y950596D01*
X8862565Y949274D01*
X8857505Y947658D01*
X8852612Y945748D01*
X8847888Y943544D01*
X8843331Y941046D01*
X8838942Y938254D01*
X8834721Y935169D01*
X8830668Y931790D01*
X8826783Y928116D01*
X8823066Y924149D01*
X8819517Y919888D01*
X8816136Y915334D01*
X8812942Y910515D01*
X8809954Y905463D01*
X8807172Y900177D01*
X8804596Y894657D01*
X8802226Y888903D01*
X8800062Y882916D01*
X8798104Y876695D01*
X8796352Y870240D01*
X8794807Y863552D01*
X8793467Y856630D01*
X8792334Y849474D01*
X8791406Y842084D01*
X8790685Y834460D01*
X8790170Y826603D01*
X8789861Y818512D01*
X8789758Y810187D01*
X8730040Y810187D01*
X8730040Y999842D01*
X8791223Y999842D01*
X8784140Y943300D01*
X8789689Y951093D01*
X8795436Y958383D01*
X8801382Y965171D01*
X8807526Y971456D01*
X8813869Y977238D01*
X8820410Y982518D01*
X8827150Y987294D01*
X8834088Y991568D01*
X8841224Y995339D01*
X8848559Y998607D01*
X8856093Y1001373D01*
X8863824Y1003635D01*
X8871755Y1005395D01*
X8879883Y1006652D01*
X8888211Y1007406D01*
X8896736Y1007658D01*
X8905423Y1007443D01*
G37*
G36*
X8516147Y1007446D02*
G01*
X8525374Y1006812D01*
X8534362Y1005756D01*
X8543111Y1004276D01*
X8551620Y1002374D01*
X8559889Y1000050D01*
X8567919Y997302D01*
X8575709Y994133D01*
X8583260Y990540D01*
X8590572Y986525D01*
X8597644Y982087D01*
X8604477Y977226D01*
X8611070Y971943D01*
X8617423Y966237D01*
X8623538Y960109D01*
X8629412Y953558D01*
X8634987Y946674D01*
X8640203Y939516D01*
X8645059Y932084D01*
X8649555Y924378D01*
X8653691Y916399D01*
X8657468Y908146D01*
X8660885Y899619D01*
X8663942Y890818D01*
X8666640Y881743D01*
X8668978Y872395D01*
X8670012Y867618D01*
X8670956Y862772D01*
X8671810Y857859D01*
X8672575Y852876D01*
X8673249Y847825D01*
X8673834Y842706D01*
X8674328Y837519D01*
X8674733Y832263D01*
X8675047Y826938D01*
X8675272Y821545D01*
X8675407Y816083D01*
X8675452Y810554D01*
X8675408Y805033D01*
X8675277Y799583D01*
X8675057Y794205D01*
X8674750Y788898D01*
X8674355Y783662D01*
X8673872Y778498D01*
X8673302Y773405D01*
X8672643Y768383D01*
X8671897Y763433D01*
X8671063Y758554D01*
X8669132Y749010D01*
X8666850Y739751D01*
X8664217Y730778D01*
X8661233Y722089D01*
X8657897Y713686D01*
X8654211Y705569D01*
X8650173Y697736D01*
X8645784Y690189D01*
X8641044Y682927D01*
X8635953Y675950D01*
X8630511Y669259D01*
X8624752Y662915D01*
X8618740Y656980D01*
X8612475Y651455D01*
X8605957Y646338D01*
X8599187Y641631D01*
X8592163Y637334D01*
X8584887Y633446D01*
X8577358Y629966D01*
X8569576Y626897D01*
X8561541Y624236D01*
X8553254Y621985D01*
X8544714Y620143D01*
X8535920Y618711D01*
X8526874Y617688D01*
X8517575Y617074D01*
X8508024Y616869D01*
X8500201Y616998D01*
X8492549Y617384D01*
X8485066Y618028D01*
X8477753Y618930D01*
X8470610Y620089D01*
X8463636Y621506D01*
X8456833Y623180D01*
X8450199Y625112D01*
X8443735Y627302D01*
X8437441Y629749D01*
X8431317Y632454D01*
X8425363Y635416D01*
X8419578Y638636D01*
X8413963Y642114D01*
X8408519Y645849D01*
X8403243Y649842D01*
X8398172Y654065D01*
X8393336Y658493D01*
X8388738Y663125D01*
X8384376Y667962D01*
X8380250Y673002D01*
X8376361Y678246D01*
X8372709Y683695D01*
X8369294Y689348D01*
X8366115Y695205D01*
X8363172Y701266D01*
X8360467Y707532D01*
X8357997Y714001D01*
X8355765Y720675D01*
X8353769Y727553D01*
X8352010Y734635D01*
X8350487Y741921D01*
X8409594Y741921D01*
X8412861Y733403D01*
X8416496Y725435D01*
X8420497Y718016D01*
X8424867Y711147D01*
X8429603Y704827D01*
X8434707Y699057D01*
X8440178Y693836D01*
X8446017Y689165D01*
X8452222Y685043D01*
X8458795Y681471D01*
X8465736Y678449D01*
X8473043Y675976D01*
X8480719Y674052D01*
X8488761Y672678D01*
X8497171Y671854D01*
X8505948Y671579D01*
X8512107Y671712D01*
X8518099Y672112D01*
X8523922Y672777D01*
X8529578Y673709D01*
X8535066Y674907D01*
X8540386Y676371D01*
X8545538Y678101D01*
X8550522Y680097D01*
X8555338Y682360D01*
X8559986Y684889D01*
X8564467Y687684D01*
X8568779Y690745D01*
X8572924Y694072D01*
X8576900Y697666D01*
X8580709Y701525D01*
X8584350Y705651D01*
X8587801Y709999D01*
X8591041Y714526D01*
X8594071Y719231D01*
X8596890Y724114D01*
X8599498Y729176D01*
X8601895Y734417D01*
X8604081Y739835D01*
X8606057Y745432D01*
X8607821Y751208D01*
X8609375Y757162D01*
X8610718Y763294D01*
X8611850Y769605D01*
X8612771Y776094D01*
X8613481Y782761D01*
X8613981Y789607D01*
X8614269Y796632D01*
X8342793Y796632D01*
X8342953Y809615D01*
X8343434Y822186D01*
X8344234Y834344D01*
X8345109Y843526D01*
X8405320Y843526D01*
X8612926Y843526D01*
X8612385Y849691D01*
X8611646Y855696D01*
X8610709Y861544D01*
X8609575Y867233D01*
X8608244Y872764D01*
X8606715Y878136D01*
X8604989Y883350D01*
X8603065Y888406D01*
X8600943Y893303D01*
X8598624Y898042D01*
X8596108Y902623D01*
X8593394Y907045D01*
X8590483Y911308D01*
X8587374Y915414D01*
X8584068Y919361D01*
X8580564Y923149D01*
X8576901Y926758D01*
X8573116Y930133D01*
X8569211Y933276D01*
X8565184Y936186D01*
X8561036Y938863D01*
X8556767Y941307D01*
X8552377Y943519D01*
X8547866Y945498D01*
X8543233Y947244D01*
X8538480Y948757D01*
X8533605Y950037D01*
X8528609Y951085D01*
X8523492Y951900D01*
X8518253Y952482D01*
X8512894Y952831D01*
X8507413Y952947D01*
X8501932Y952824D01*
X8496573Y952455D01*
X8491335Y951839D01*
X8486217Y950978D01*
X8481221Y949870D01*
X8476347Y948516D01*
X8471593Y946916D01*
X8466960Y945070D01*
X8462449Y942978D01*
X8458059Y940640D01*
X8453790Y938055D01*
X8449642Y935224D01*
X8445615Y932147D01*
X8441710Y928824D01*
X8437925Y925255D01*
X8434262Y921440D01*
X8430758Y917457D01*
X8427479Y913357D01*
X8424426Y909138D01*
X8421600Y904801D01*
X8419000Y900345D01*
X8416625Y895771D01*
X8414477Y891079D01*
X8412555Y886269D01*
X8410859Y881340D01*
X8409390Y876293D01*
X8408146Y871128D01*
X8407128Y865844D01*
X8406337Y860442D01*
X8405772Y854922D01*
X8405433Y849283D01*
X8405320Y843526D01*
X8345109Y843526D01*
X8345354Y846091D01*
X8346795Y857425D01*
X8348555Y868347D01*
X8350636Y878858D01*
X8353036Y888955D01*
X8355757Y898641D01*
X8358798Y907915D01*
X8362159Y916776D01*
X8365840Y925226D01*
X8369841Y933263D01*
X8374162Y940888D01*
X8378804Y948100D01*
X8383765Y954901D01*
X8389047Y961290D01*
X8394648Y967266D01*
X8400570Y972830D01*
X8406812Y977982D01*
X8413374Y982722D01*
X8420256Y987050D01*
X8427458Y990965D01*
X8434980Y994468D01*
X8442822Y997560D01*
X8450984Y1000239D01*
X8459467Y1002506D01*
X8468269Y1004360D01*
X8477392Y1005803D01*
X8486835Y1006833D01*
X8496597Y1007451D01*
X8506680Y1007658D01*
X8516147Y1007446D01*
G37*
G36*
X8105389Y952947D02*
G01*
X8112662Y952667D01*
X8119704Y952193D01*
X8126515Y951526D01*
X8133096Y950665D01*
X8139445Y949610D01*
X8145563Y948362D01*
X8151451Y946920D01*
X8157108Y945284D01*
X8162534Y943455D01*
X8167728Y941431D01*
X8172693Y939215D01*
X8177426Y936804D01*
X8181928Y934200D01*
X8186199Y931402D01*
X8190240Y928411D01*
X8194049Y925226D01*
X8197628Y921760D01*
X8200976Y917929D01*
X8204093Y913731D01*
X8206979Y909167D01*
X8209634Y904236D01*
X8212059Y898939D01*
X8214252Y893276D01*
X8216215Y887246D01*
X8217946Y880850D01*
X8219447Y874087D01*
X8220717Y866958D01*
X8221756Y859463D01*
X8222564Y851602D01*
X8223141Y843374D01*
X8223487Y834779D01*
X8223603Y825819D01*
X8223603Y632500D01*
X8282588Y632500D01*
X8282588Y999842D01*
X8228488Y999842D01*
X8228488Y937316D01*
X8225335Y941949D01*
X8222195Y946414D01*
X8219068Y950711D01*
X8215955Y954840D01*
X8212855Y958801D01*
X8209769Y962595D01*
X8205164Y967970D01*
X8200590Y972967D01*
X8196045Y977587D01*
X8191531Y981829D01*
X8187046Y985693D01*
X8182592Y989179D01*
X8179639Y991293D01*
X8175179Y994218D01*
X8170637Y996855D01*
X8166014Y999204D01*
X8161309Y1001265D01*
X8156523Y1003039D01*
X8151655Y1004525D01*
X8146706Y1005724D01*
X8141675Y1006635D01*
X8136562Y1007258D01*
X8131368Y1007594D01*
X8127860Y1007658D01*
X8122972Y1007513D01*
X8117686Y1007141D01*
X8112335Y1006627D01*
X8107209Y1006048D01*
X8105389Y1005826D01*
X8105389Y952947D01*
G37*
G36*
X7832082Y741921D02*
G01*
X7831155Y735970D01*
X7829976Y730253D01*
X7828547Y724771D01*
X7826867Y719522D01*
X7824935Y714507D01*
X7822752Y709726D01*
X7820318Y705179D01*
X7817633Y700866D01*
X7814697Y696787D01*
X7811509Y692942D01*
X7809245Y690508D01*
X7805480Y687125D01*
X7801191Y684075D01*
X7796378Y681358D01*
X7791041Y678973D01*
X7785181Y676922D01*
X7778797Y675202D01*
X7771889Y673816D01*
X7766992Y673077D01*
X7761863Y672485D01*
X7756501Y672041D01*
X7750907Y671746D01*
X7745079Y671598D01*
X7742078Y671579D01*
X7734953Y671717D01*
X7728093Y672129D01*
X7721500Y672816D01*
X7715173Y673778D01*
X7709112Y675014D01*
X7703318Y676525D01*
X7697790Y678311D01*
X7692527Y680372D01*
X7687531Y682708D01*
X7682801Y685318D01*
X7679796Y687211D01*
X7675584Y690253D01*
X7671786Y693471D01*
X7667367Y698035D01*
X7663684Y702912D01*
X7660738Y708102D01*
X7658528Y713605D01*
X7657055Y719421D01*
X7656319Y725550D01*
X7656227Y728732D01*
X7656437Y733640D01*
X7657289Y739410D01*
X7658798Y744774D01*
X7660963Y749733D01*
X7663783Y754286D01*
X7667259Y758434D01*
X7669660Y760728D01*
X7674234Y764311D01*
X7678490Y767005D01*
X7683277Y769546D01*
X7688594Y771935D01*
X7694442Y774172D01*
X7699175Y775749D01*
X7704207Y777240D01*
X7709538Y778645D01*
X7713257Y779535D01*
X7768090Y792846D01*
X7776117Y794754D01*
X7783832Y796721D01*
X7791237Y798749D01*
X7798330Y800837D01*
X7805113Y802985D01*
X7811584Y805194D01*
X7817745Y807462D01*
X7823594Y809790D01*
X7829133Y812179D01*
X7834360Y814627D01*
X7839276Y817136D01*
X7843882Y819705D01*
X7848176Y822334D01*
X7854034Y826390D01*
X7859193Y830581D01*
X7863776Y835034D01*
X7867908Y839828D01*
X7871590Y844963D01*
X7874820Y850440D01*
X7877600Y856257D01*
X7879929Y862417D01*
X7881808Y868917D01*
X7883235Y875759D01*
X7884212Y882942D01*
X7884613Y887920D01*
X7884813Y893050D01*
X7884838Y895672D01*
X7884687Y901972D01*
X7884235Y908111D01*
X7883481Y914089D01*
X7882426Y919906D01*
X7881069Y925561D01*
X7879411Y931055D01*
X7877452Y936388D01*
X7875190Y941559D01*
X7872628Y946570D01*
X7869764Y951419D01*
X7866598Y956107D01*
X7863131Y960633D01*
X7859362Y964998D01*
X7855292Y969203D01*
X7850921Y973246D01*
X7846248Y977127D01*
X7841310Y980824D01*
X7836175Y984283D01*
X7830842Y987503D01*
X7825311Y990484D01*
X7819584Y993227D01*
X7813658Y995732D01*
X7807536Y997998D01*
X7801215Y1000025D01*
X7794698Y1001814D01*
X7787982Y1003364D01*
X7781070Y1004676D01*
X7773959Y1005749D01*
X7766652Y1006584D01*
X7759146Y1007180D01*
X7751444Y1007538D01*
X7743544Y1007658D01*
X7735645Y1007546D01*
X7727979Y1007211D01*
X7720544Y1006653D01*
X7713341Y1005871D01*
X7706370Y1004867D01*
X7699631Y1003639D01*
X7693124Y1002188D01*
X7686849Y1000513D01*
X7680805Y998616D01*
X7674993Y996495D01*
X7669413Y994151D01*
X7664065Y991583D01*
X7658949Y988793D01*
X7654065Y985779D01*
X7649412Y982542D01*
X7644992Y979081D01*
X7640818Y975431D01*
X7636909Y971594D01*
X7633262Y967569D01*
X7629879Y963358D01*
X7626759Y958960D01*
X7623903Y954374D01*
X7621310Y949602D01*
X7618980Y944643D01*
X7616913Y939497D01*
X7615110Y934163D01*
X7613570Y928643D01*
X7612294Y922936D01*
X7611280Y917042D01*
X7610530Y910960D01*
X7610044Y904692D01*
X7609821Y898237D01*
X7671736Y898237D01*
X7672268Y904862D01*
X7673345Y911059D01*
X7674966Y916830D01*
X7677132Y922173D01*
X7679843Y927088D01*
X7683099Y931576D01*
X7686900Y935636D01*
X7691245Y939270D01*
X7696135Y942475D01*
X7701570Y945253D01*
X7707550Y947604D01*
X7714074Y949528D01*
X7721143Y951024D01*
X7728757Y952092D01*
X7736916Y952733D01*
X7745620Y952947D01*
X7752200Y952816D01*
X7758522Y952423D01*
X7764588Y951769D01*
X7770395Y950852D01*
X7775945Y949673D01*
X7781237Y948233D01*
X7786272Y946531D01*
X7791049Y944567D01*
X7795568Y942340D01*
X7799830Y939852D01*
X7802528Y938048D01*
X7807480Y934167D01*
X7811771Y929973D01*
X7815402Y925466D01*
X7818373Y920646D01*
X7820684Y915513D01*
X7822335Y910067D01*
X7823325Y904308D01*
X7823655Y898237D01*
X7823262Y892348D01*
X7822081Y886816D01*
X7820113Y881643D01*
X7817358Y876827D01*
X7813816Y872369D01*
X7809487Y868269D01*
X7807535Y866729D01*
X7803167Y863766D01*
X7798185Y860921D01*
X7792589Y858194D01*
X7787988Y856227D01*
X7783042Y854326D01*
X7777750Y852492D01*
X7772112Y850724D01*
X7766129Y849023D01*
X7759800Y847388D01*
X7755389Y846335D01*
X7699213Y832902D01*
X7692463Y831242D01*
X7685950Y829498D01*
X7679675Y827670D01*
X7673637Y825758D01*
X7667836Y823762D01*
X7662274Y821682D01*
X7656948Y819518D01*
X7651861Y817270D01*
X7647011Y814938D01*
X7642398Y812523D01*
X7638023Y810023D01*
X7631907Y806116D01*
X7626324Y802020D01*
X7621276Y797736D01*
X7619712Y796265D01*
X7615304Y791704D01*
X7611329Y786860D01*
X7607788Y781732D01*
X7604680Y776321D01*
X7602006Y770627D01*
X7599766Y764649D01*
X7597959Y758388D01*
X7596586Y751844D01*
X7595646Y745016D01*
X7595140Y737905D01*
X7595044Y733006D01*
X7595205Y726451D01*
X7595687Y720063D01*
X7596491Y713845D01*
X7597616Y707796D01*
X7599063Y701916D01*
X7600831Y696204D01*
X7602921Y690661D01*
X7605333Y685287D01*
X7608066Y680083D01*
X7611120Y675046D01*
X7614496Y670179D01*
X7618194Y665481D01*
X7622213Y660951D01*
X7626553Y656591D01*
X7631215Y652399D01*
X7636199Y648376D01*
X7641454Y644561D01*
X7646932Y640992D01*
X7652632Y637669D01*
X7658555Y634592D01*
X7664699Y631761D01*
X7671066Y629177D01*
X7677656Y626838D01*
X7684467Y624746D01*
X7691501Y622900D01*
X7698757Y621300D01*
X7706236Y619946D01*
X7713937Y618838D01*
X7721860Y617977D01*
X7730005Y617361D01*
X7738373Y616992D01*
X7746963Y616869D01*
X7755750Y616991D01*
X7764267Y617357D01*
X7772513Y617968D01*
X7780489Y618823D01*
X7788194Y619922D01*
X7795629Y621265D01*
X7802794Y622853D01*
X7809688Y624685D01*
X7816311Y626761D01*
X7822664Y629081D01*
X7828746Y631646D01*
X7834558Y634454D01*
X7840100Y637507D01*
X7845371Y640805D01*
X7850371Y644346D01*
X7855101Y648132D01*
X7859561Y652162D01*
X7863750Y656436D01*
X7867669Y660955D01*
X7871317Y665718D01*
X7874695Y670725D01*
X7877802Y675976D01*
X7880638Y681471D01*
X7883205Y687211D01*
X7885500Y693195D01*
X7887526Y699423D01*
X7889280Y705895D01*
X7890765Y712612D01*
X7891979Y719573D01*
X7892922Y726778D01*
X7893595Y734228D01*
X7893997Y741921D01*
X7832082Y741921D01*
G37*
G36*
X7398925Y1007453D02*
G01*
X7408202Y1006841D01*
X7417221Y1005820D01*
X7425982Y1004391D01*
X7434486Y1002553D01*
X7442732Y1000307D01*
X7450720Y997653D01*
X7458451Y994591D01*
X7465924Y991120D01*
X7473140Y987240D01*
X7480098Y982953D01*
X7486799Y978257D01*
X7493241Y973152D01*
X7499427Y967640D01*
X7505354Y961719D01*
X7511024Y955390D01*
X7516392Y948720D01*
X7521414Y941746D01*
X7526090Y934470D01*
X7530419Y926889D01*
X7534402Y919006D01*
X7538038Y910819D01*
X7541328Y902329D01*
X7544272Y893535D01*
X7546869Y884438D01*
X7549121Y875037D01*
X7550116Y870223D01*
X7551025Y865334D01*
X7551848Y860368D01*
X7552584Y855326D01*
X7553233Y850209D01*
X7553796Y845016D01*
X7554272Y839747D01*
X7554662Y834402D01*
X7554965Y828981D01*
X7555181Y823484D01*
X7555311Y817912D01*
X7555354Y812263D01*
X7555311Y806615D01*
X7555183Y801042D01*
X7554968Y795545D01*
X7554667Y790123D01*
X7554281Y784777D01*
X7553809Y779507D01*
X7553251Y774312D01*
X7552607Y769193D01*
X7551877Y764149D01*
X7551061Y759181D01*
X7550159Y754289D01*
X7549172Y749472D01*
X7546939Y740065D01*
X7544364Y730961D01*
X7541444Y722159D01*
X7538181Y713660D01*
X7534575Y705463D01*
X7530625Y697568D01*
X7526332Y689976D01*
X7521695Y682687D01*
X7516714Y675700D01*
X7511391Y669015D01*
X7508609Y665807D01*
X7502842Y659696D01*
X7496802Y653992D01*
X7490491Y648696D01*
X7483908Y643808D01*
X7477053Y639326D01*
X7469926Y635252D01*
X7462527Y631586D01*
X7454856Y628327D01*
X7446914Y625475D01*
X7438699Y623031D01*
X7430213Y620994D01*
X7421454Y619364D01*
X7412424Y618142D01*
X7403122Y617327D01*
X7393548Y616920D01*
X7388659Y616869D01*
X7379109Y617070D01*
X7369816Y617672D01*
X7360779Y618676D01*
X7351999Y620082D01*
X7343476Y621890D01*
X7335210Y624099D01*
X7327200Y626710D01*
X7319446Y629722D01*
X7311950Y633136D01*
X7304710Y636952D01*
X7297726Y641170D01*
X7291000Y645789D01*
X7284530Y650810D01*
X7278316Y656232D01*
X7272359Y662056D01*
X7266659Y668282D01*
X7263910Y671540D01*
X7258672Y678280D01*
X7253783Y685317D01*
X7249243Y692652D01*
X7245053Y700285D01*
X7241212Y708215D01*
X7237720Y716443D01*
X7234577Y724968D01*
X7231784Y733792D01*
X7229340Y742913D01*
X7227244Y752331D01*
X7226328Y757152D01*
X7225499Y762047D01*
X7224756Y767017D01*
X7224102Y772061D01*
X7223534Y777180D01*
X7223054Y782373D01*
X7222661Y787641D01*
X7222356Y792982D01*
X7222138Y798399D01*
X7222007Y803889D01*
X7221963Y809454D01*
X7221968Y810187D01*
X7283146Y810187D01*
X7283257Y802365D01*
X7283592Y794745D01*
X7284150Y787325D01*
X7284932Y780107D01*
X7285936Y773090D01*
X7287164Y766275D01*
X7288615Y759661D01*
X7290290Y753248D01*
X7292188Y747037D01*
X7294308Y741026D01*
X7296653Y735217D01*
X7299220Y729610D01*
X7302011Y724204D01*
X7305025Y718999D01*
X7308262Y713995D01*
X7311722Y709193D01*
X7315357Y704638D01*
X7319149Y700377D01*
X7323097Y696410D01*
X7327201Y692737D01*
X7331462Y689358D01*
X7335879Y686272D01*
X7340453Y683480D01*
X7345183Y680983D01*
X7350070Y678779D01*
X7355113Y676869D01*
X7360313Y675253D01*
X7365669Y673930D01*
X7371182Y672902D01*
X7376851Y672167D01*
X7382677Y671726D01*
X7388659Y671579D01*
X7394729Y671726D01*
X7400634Y672167D01*
X7406376Y672902D01*
X7411953Y673930D01*
X7417367Y675253D01*
X7422616Y676869D01*
X7427701Y678779D01*
X7432622Y680983D01*
X7437379Y683480D01*
X7441972Y686272D01*
X7446401Y689358D01*
X7450666Y692737D01*
X7454766Y696410D01*
X7458703Y700377D01*
X7462475Y704638D01*
X7466084Y709193D01*
X7469485Y714003D01*
X7472667Y719031D01*
X7475629Y724277D01*
X7478372Y729740D01*
X7480896Y735420D01*
X7483200Y741318D01*
X7485284Y747434D01*
X7487150Y753767D01*
X7488795Y760318D01*
X7490222Y767086D01*
X7491429Y774072D01*
X7492416Y781275D01*
X7493184Y788696D01*
X7493733Y796334D01*
X7494062Y804190D01*
X7494172Y812263D01*
X7494062Y820337D01*
X7493733Y828192D01*
X7493184Y835831D01*
X7492416Y843252D01*
X7491429Y850455D01*
X7490222Y857441D01*
X7488795Y864209D01*
X7487150Y870759D01*
X7485284Y877093D01*
X7483200Y883208D01*
X7480896Y889106D01*
X7478372Y894787D01*
X7475629Y900250D01*
X7472667Y905495D01*
X7469485Y910523D01*
X7466084Y915334D01*
X7462475Y919888D01*
X7458703Y924149D01*
X7454766Y928116D01*
X7450666Y931790D01*
X7446401Y935169D01*
X7441972Y938254D01*
X7437379Y941046D01*
X7432622Y943544D01*
X7427701Y945748D01*
X7422616Y947658D01*
X7417367Y949274D01*
X7411953Y950596D01*
X7406376Y951625D01*
X7400634Y952359D01*
X7394729Y952800D01*
X7388659Y952947D01*
X7382502Y952799D01*
X7376519Y952354D01*
X7370710Y951612D01*
X7365074Y950573D01*
X7359612Y949238D01*
X7354323Y947606D01*
X7349209Y945678D01*
X7344268Y943452D01*
X7339500Y940930D01*
X7334906Y938111D01*
X7330486Y934996D01*
X7326239Y931583D01*
X7322166Y927875D01*
X7318267Y923869D01*
X7314541Y919566D01*
X7310989Y914967D01*
X7307618Y910122D01*
X7304464Y905049D01*
X7301527Y899749D01*
X7298808Y894222D01*
X7296306Y888468D01*
X7294022Y882487D01*
X7291956Y876279D01*
X7290107Y869843D01*
X7288475Y863181D01*
X7287061Y856292D01*
X7285865Y849175D01*
X7284886Y841832D01*
X7284125Y834261D01*
X7283581Y826464D01*
X7283255Y818439D01*
X7283146Y810187D01*
X7221968Y810187D01*
X7222006Y815320D01*
X7222135Y821103D01*
X7222349Y826802D01*
X7222650Y832417D01*
X7223036Y837949D01*
X7223509Y843398D01*
X7224067Y848763D01*
X7224711Y854044D01*
X7225441Y859242D01*
X7226256Y864357D01*
X7227158Y869388D01*
X7228145Y874335D01*
X7229219Y879199D01*
X7230378Y883980D01*
X7232954Y893291D01*
X7235873Y902268D01*
X7239136Y910911D01*
X7242743Y919220D01*
X7246693Y927195D01*
X7250986Y934836D01*
X7255623Y942143D01*
X7260603Y949117D01*
X7265927Y955756D01*
X7268709Y958949D01*
X7274482Y965031D01*
X7280533Y970708D01*
X7286861Y975979D01*
X7293467Y980845D01*
X7300351Y985305D01*
X7307512Y989360D01*
X7314951Y993010D01*
X7322668Y996253D01*
X7330662Y999092D01*
X7338934Y1001525D01*
X7347483Y1003552D01*
X7356310Y1005174D01*
X7365415Y1006390D01*
X7374797Y1007201D01*
X7384457Y1007607D01*
X7389391Y1007658D01*
X7398925Y1007453D01*
G37*
G36*
X7107413Y1148341D02*
G01*
X7107413Y632500D01*
X7166398Y632500D01*
X7166398Y1148341D01*
X7107413Y1148341D01*
G37*
G36*
X6865491Y632500D02*
G01*
X6929604Y632500D01*
X7058931Y999842D01*
X6992863Y999842D01*
X6894433Y701865D01*
X6790264Y999842D01*
X6724196Y999842D01*
X6865491Y632500D01*
G37*
G36*
X6620515Y999842D02*
G01*
X6620515Y632500D01*
X6678889Y632500D01*
X6678889Y999842D01*
X6620515Y999842D01*
G37*
G36*
X6620515Y1148341D02*
G01*
X6620515Y1077999D01*
X6679622Y1077999D01*
X6679622Y1148341D01*
X6620515Y1148341D01*
G37*
G36*
X6528435Y999842D02*
G01*
X6474336Y999842D01*
X6474336Y932309D01*
X6471237Y937243D01*
X6468109Y942000D01*
X6464952Y946581D01*
X6461765Y950986D01*
X6458548Y955214D01*
X6455302Y959265D01*
X6452026Y963140D01*
X6448721Y966838D01*
X6443707Y972055D01*
X6438627Y976875D01*
X6433480Y981297D01*
X6428267Y985323D01*
X6422987Y988951D01*
X6421213Y990072D01*
X6415769Y993215D01*
X6410109Y996048D01*
X6404232Y998573D01*
X6398138Y1000788D01*
X6391827Y1002694D01*
X6385299Y1004292D01*
X6378555Y1005580D01*
X6371593Y1006558D01*
X6364415Y1007228D01*
X6359509Y1007503D01*
X6354507Y1007640D01*
X6351970Y1007658D01*
X6345369Y1007551D01*
X6338939Y1007232D01*
X6332680Y1006700D01*
X6326592Y1005955D01*
X6320674Y1004998D01*
X6314927Y1003828D01*
X6309351Y1002445D01*
X6303946Y1000849D01*
X6298711Y999041D01*
X6293647Y997020D01*
X6288754Y994786D01*
X6284032Y992339D01*
X6279481Y989679D01*
X6275100Y986807D01*
X6270890Y983722D01*
X6266851Y980424D01*
X6263006Y976965D01*
X6259410Y973364D01*
X6256061Y969622D01*
X6252960Y965739D01*
X6250107Y961715D01*
X6247503Y957550D01*
X6245146Y953243D01*
X6243038Y948795D01*
X6241177Y944206D01*
X6239565Y939476D01*
X6238200Y934604D01*
X6237084Y929591D01*
X6236216Y924437D01*
X6235596Y919142D01*
X6235224Y913706D01*
X6235100Y908129D01*
X6235100Y632500D01*
X6293596Y632500D01*
X6293596Y882117D01*
X6293775Y888069D01*
X6294313Y893789D01*
X6295209Y899277D01*
X6296464Y904534D01*
X6298077Y909558D01*
X6300049Y914351D01*
X6302379Y918912D01*
X6305068Y923241D01*
X6308115Y927338D01*
X6311521Y931204D01*
X6313990Y933652D01*
X6317944Y937100D01*
X6322158Y940209D01*
X6326631Y942979D01*
X6331364Y945410D01*
X6336357Y947502D01*
X6341609Y949254D01*
X6347121Y950667D01*
X6352893Y951741D01*
X6358925Y952476D01*
X6365217Y952872D01*
X6369555Y952947D01*
X6375120Y952817D01*
X6380546Y952426D01*
X6385836Y951775D01*
X6390988Y950863D01*
X6396002Y949691D01*
X6400880Y948259D01*
X6405619Y946566D01*
X6410222Y944612D01*
X6414687Y942398D01*
X6419015Y939924D01*
X6423205Y937189D01*
X6427258Y934194D01*
X6431173Y930938D01*
X6434951Y927422D01*
X6438592Y923645D01*
X6442096Y919608D01*
X6445408Y915356D01*
X6448507Y910934D01*
X6451392Y906342D01*
X6454063Y901580D01*
X6456521Y896648D01*
X6458765Y891547D01*
X6460795Y886275D01*
X6462612Y880834D01*
X6464215Y875224D01*
X6465604Y869443D01*
X6466779Y863492D01*
X6467741Y857372D01*
X6468489Y851082D01*
X6469023Y844622D01*
X6469344Y837992D01*
X6469451Y831192D01*
X6469451Y632500D01*
X6528435Y632500D01*
X6528435Y999842D01*
G37*
G36*
X6029219Y1007443D02*
G01*
X6037694Y1006799D01*
X6045957Y1005726D01*
X6054009Y1004223D01*
X6061849Y1002291D01*
X6069476Y999930D01*
X6076892Y997139D01*
X6084097Y993919D01*
X6091089Y990270D01*
X6097870Y986191D01*
X6104438Y981683D01*
X6110795Y976746D01*
X6116941Y971379D01*
X6122874Y965583D01*
X6128596Y959358D01*
X6134105Y952703D01*
X6139340Y945715D01*
X6144238Y938460D01*
X6148797Y930939D01*
X6153019Y923149D01*
X6156903Y915093D01*
X6160449Y906770D01*
X6163658Y898179D01*
X6166529Y889322D01*
X6169062Y880197D01*
X6171257Y870805D01*
X6172228Y866009D01*
X6173115Y861146D01*
X6173917Y856216D01*
X6174634Y851220D01*
X6175268Y846157D01*
X6175816Y841027D01*
X6176281Y835830D01*
X6176661Y830566D01*
X6176956Y825236D01*
X6177167Y819839D01*
X6177294Y814375D01*
X6177336Y808844D01*
X6177294Y803443D01*
X6177166Y798110D01*
X6176953Y792843D01*
X6176655Y787644D01*
X6176272Y782513D01*
X6175804Y777448D01*
X6175250Y772451D01*
X6174611Y767521D01*
X6173079Y757863D01*
X6171205Y748474D01*
X6168991Y739354D01*
X6166437Y730503D01*
X6163542Y721921D01*
X6160306Y713608D01*
X6156730Y705564D01*
X6152813Y697790D01*
X6148555Y690284D01*
X6143957Y683047D01*
X6139018Y676080D01*
X6133739Y669381D01*
X6128207Y663022D01*
X6122509Y657074D01*
X6116647Y651535D01*
X6110620Y646407D01*
X6104427Y641689D01*
X6098070Y637382D01*
X6091547Y633484D01*
X6084860Y629997D01*
X6078007Y626920D01*
X6070990Y624253D01*
X6063807Y621997D01*
X6056459Y620151D01*
X6048946Y618715D01*
X6041268Y617689D01*
X6033425Y617074D01*
X6025417Y616869D01*
X6021144Y616930D01*
X6014852Y617251D01*
X6008702Y617846D01*
X6002693Y618716D01*
X5996827Y619861D01*
X5991101Y621281D01*
X5985518Y622975D01*
X5980076Y624944D01*
X5974776Y627188D01*
X5969618Y629707D01*
X5964601Y632500D01*
X5959670Y635582D01*
X5954769Y639012D01*
X5949898Y642789D01*
X5945058Y646915D01*
X5940247Y651388D01*
X5935466Y656208D01*
X5930716Y661377D01*
X5925995Y666893D01*
X5922865Y670764D01*
X5919748Y674789D01*
X5916644Y678969D01*
X5913554Y683303D01*
X5913554Y663519D01*
X5913639Y654792D01*
X5913896Y646348D01*
X5914323Y638187D01*
X5914920Y630310D01*
X5915689Y622716D01*
X5916628Y615405D01*
X5917738Y608378D01*
X5919019Y601634D01*
X5920471Y595174D01*
X5922093Y588997D01*
X5923886Y583103D01*
X5925850Y577492D01*
X5927985Y572165D01*
X5930290Y567122D01*
X5932767Y562361D01*
X5935414Y557884D01*
X5938277Y553670D01*
X5941432Y549727D01*
X5944879Y546056D01*
X5948618Y542657D01*
X5952649Y539530D01*
X5956972Y536675D01*
X5961587Y534092D01*
X5966494Y531781D01*
X5971692Y529742D01*
X5977183Y527974D01*
X5982966Y526479D01*
X5989040Y525255D01*
X5995407Y524303D01*
X6002065Y523624D01*
X6009016Y523216D01*
X6016258Y523080D01*
X6025924Y523324D01*
X6035046Y524057D01*
X6043624Y525278D01*
X6051658Y526988D01*
X6059149Y529186D01*
X6066095Y531872D01*
X6072498Y535048D01*
X6078357Y538711D01*
X6083672Y542863D01*
X6088443Y547504D01*
X6092671Y552633D01*
X6096355Y558251D01*
X6099494Y564357D01*
X6102090Y570951D01*
X6104143Y578034D01*
X6105651Y585606D01*
X6165368Y585606D01*
X6164626Y579281D01*
X6163619Y573130D01*
X6162347Y567153D01*
X6160812Y561350D01*
X6159012Y555720D01*
X6156948Y550263D01*
X6154619Y544980D01*
X6152027Y539871D01*
X6149170Y534936D01*
X6146048Y530174D01*
X6142663Y525586D01*
X6139013Y521172D01*
X6135099Y516931D01*
X6130921Y512863D01*
X6126478Y508970D01*
X6121771Y505250D01*
X6116830Y501730D01*
X6111686Y498438D01*
X6106339Y495372D01*
X6100789Y492534D01*
X6095036Y489923D01*
X6089079Y487539D01*
X6082919Y485381D01*
X6076556Y483451D01*
X6069989Y481748D01*
X6063220Y480272D01*
X6056247Y479023D01*
X6049071Y478002D01*
X6041691Y477207D01*
X6034109Y476639D01*
X6026323Y476299D01*
X6018334Y476185D01*
X6015146Y476200D01*
X6008875Y476316D01*
X6002744Y476549D01*
X5996753Y476898D01*
X5990903Y477364D01*
X5985193Y477946D01*
X5979623Y478644D01*
X5974193Y479459D01*
X5968904Y480390D01*
X5963755Y481437D01*
X5958746Y482601D01*
X5953877Y483882D01*
X5946837Y486021D01*
X5940113Y488421D01*
X5933704Y491084D01*
X5929586Y492992D01*
X5923653Y496083D01*
X5918011Y499449D01*
X5912662Y503090D01*
X5907604Y507005D01*
X5902839Y511196D01*
X5898365Y515661D01*
X5894183Y520401D01*
X5890294Y525415D01*
X5886696Y530705D01*
X5883390Y536269D01*
X5881324Y540076D01*
X5878380Y545864D01*
X5875620Y551748D01*
X5873045Y557725D01*
X5870654Y563798D01*
X5868448Y569964D01*
X5866427Y576225D01*
X5864590Y582581D01*
X5862938Y589031D01*
X5861470Y595575D01*
X5860187Y602214D01*
X5859052Y609031D01*
X5858029Y616155D01*
X5857409Y621075D01*
X5856838Y626131D01*
X5856317Y631323D01*
X5855846Y636652D01*
X5855424Y642118D01*
X5855052Y647719D01*
X5854730Y653458D01*
X5854457Y659332D01*
X5854234Y665344D01*
X5854060Y671491D01*
X5853936Y677775D01*
X5853861Y684196D01*
X5853837Y690752D01*
X5853837Y810187D01*
X5913554Y810187D01*
X5913658Y802191D01*
X5913972Y794413D01*
X5914494Y786853D01*
X5915226Y779512D01*
X5916166Y772389D01*
X5917315Y765485D01*
X5918673Y758799D01*
X5920240Y752332D01*
X5922016Y746083D01*
X5924001Y740053D01*
X5926195Y734241D01*
X5928598Y728648D01*
X5931210Y723273D01*
X5934030Y718117D01*
X5937060Y713179D01*
X5940299Y708460D01*
X5943718Y703994D01*
X5947292Y699816D01*
X5951019Y695926D01*
X5954900Y692325D01*
X5958934Y689011D01*
X5963122Y685986D01*
X5967463Y683249D01*
X5971959Y680800D01*
X5976607Y678639D01*
X5981410Y676766D01*
X5986366Y675181D01*
X5991475Y673884D01*
X5996738Y672876D01*
X6002155Y672156D01*
X6007725Y671723D01*
X6013449Y671579D01*
X6019354Y671726D01*
X6025099Y672167D01*
X6030684Y672902D01*
X6036110Y673930D01*
X6041377Y675253D01*
X6046485Y676869D01*
X6051433Y678779D01*
X6056222Y680983D01*
X6060852Y683480D01*
X6065322Y686272D01*
X6069633Y689358D01*
X6073785Y692737D01*
X6077777Y696410D01*
X6081610Y700377D01*
X6085284Y704638D01*
X6088798Y709193D01*
X6092111Y714003D01*
X6095210Y719031D01*
X6098095Y724277D01*
X6100766Y729740D01*
X6103224Y735420D01*
X6105468Y741318D01*
X6107498Y747434D01*
X6109315Y753767D01*
X6110917Y760318D01*
X6112307Y767086D01*
X6113482Y774072D01*
X6114444Y781275D01*
X6115192Y788696D01*
X6115726Y796334D01*
X6116047Y804190D01*
X6116153Y812263D01*
X6116047Y820264D01*
X6115726Y828053D01*
X6115192Y835632D01*
X6114444Y843000D01*
X6113482Y850157D01*
X6112307Y857103D01*
X6110917Y863838D01*
X6109315Y870363D01*
X6107498Y876676D01*
X6105468Y882779D01*
X6103224Y888671D01*
X6100766Y894352D01*
X6098095Y899822D01*
X6095210Y905081D01*
X6092111Y910130D01*
X6088798Y914967D01*
X6085287Y919566D01*
X6081622Y923869D01*
X6077803Y927875D01*
X6073831Y931583D01*
X6069705Y934996D01*
X6065425Y938111D01*
X6060992Y940930D01*
X6056406Y943452D01*
X6051665Y945678D01*
X6046771Y947606D01*
X6041724Y949238D01*
X6036523Y950573D01*
X6031168Y951612D01*
X6025660Y952354D01*
X6019998Y952799D01*
X6014182Y952947D01*
X6008282Y952800D01*
X6002550Y952359D01*
X5996986Y951625D01*
X5991590Y950596D01*
X5986361Y949274D01*
X5981301Y947658D01*
X5976408Y945748D01*
X5971684Y943544D01*
X5967127Y941046D01*
X5962738Y938254D01*
X5958518Y935169D01*
X5954465Y931790D01*
X5950580Y928116D01*
X5946863Y924149D01*
X5943313Y919888D01*
X5939932Y915334D01*
X5936738Y910515D01*
X5933750Y905463D01*
X5930968Y900177D01*
X5928392Y894657D01*
X5926022Y888903D01*
X5923858Y882916D01*
X5921900Y876695D01*
X5920149Y870240D01*
X5918603Y863552D01*
X5917263Y856630D01*
X5916130Y849474D01*
X5915203Y842084D01*
X5914481Y834460D01*
X5913966Y826603D01*
X5913657Y818512D01*
X5913554Y810187D01*
X5853837Y810187D01*
X5853837Y999842D01*
X5915019Y999842D01*
X5907936Y943300D01*
X5913485Y951093D01*
X5919233Y958383D01*
X5925178Y965171D01*
X5931323Y971456D01*
X5937665Y977238D01*
X5944206Y982518D01*
X5950946Y987294D01*
X5957884Y991568D01*
X5965021Y995339D01*
X5972355Y998607D01*
X5979889Y1001373D01*
X5987621Y1003635D01*
X5995551Y1005395D01*
X6003680Y1006652D01*
X6012007Y1007406D01*
X6020532Y1007658D01*
X6029219Y1007443D01*
G37*
G36*
X10422644Y-207500D02*
G01*
X10489445Y-207500D01*
X10564061Y81684D01*
X10635013Y-207500D01*
X10701203Y-207500D01*
X10808059Y159842D01*
X10743335Y159842D01*
X10668108Y-125922D01*
X10597766Y159842D01*
X10526081Y159842D01*
X10453541Y-125678D01*
X10380390Y159842D01*
X10314323Y159842D01*
X10422644Y-207500D01*
G37*
G36*
X10139331Y167453D02*
G01*
X10148608Y166841D01*
X10157626Y165820D01*
X10166388Y164391D01*
X10174891Y162553D01*
X10183137Y160307D01*
X10191126Y157653D01*
X10198857Y154591D01*
X10206330Y151120D01*
X10213546Y147240D01*
X10220504Y142953D01*
X10227204Y138257D01*
X10233647Y133152D01*
X10239832Y127640D01*
X10245760Y121719D01*
X10251430Y115390D01*
X10256798Y108720D01*
X10261820Y101746D01*
X10266495Y94470D01*
X10270824Y86889D01*
X10274807Y79006D01*
X10278444Y70819D01*
X10281734Y62329D01*
X10284678Y53535D01*
X10287275Y44438D01*
X10289526Y35037D01*
X10290522Y30223D01*
X10291431Y25334D01*
X10292254Y20368D01*
X10292989Y15326D01*
X10293639Y10209D01*
X10294202Y5016D01*
X10294678Y-253D01*
X10295067Y-5598D01*
X10295370Y-11019D01*
X10295587Y-16516D01*
X10295717Y-22088D01*
X10295760Y-27737D01*
X10295717Y-33385D01*
X10295588Y-38958D01*
X10295374Y-44455D01*
X10295073Y-49877D01*
X10294687Y-55223D01*
X10294214Y-60493D01*
X10293656Y-65688D01*
X10293012Y-70807D01*
X10292282Y-75851D01*
X10291467Y-80819D01*
X10290565Y-85711D01*
X10289578Y-90528D01*
X10287345Y-99935D01*
X10284769Y-109039D01*
X10281850Y-117841D01*
X10278587Y-126340D01*
X10274980Y-134537D01*
X10271030Y-142432D01*
X10266737Y-150024D01*
X10262100Y-157313D01*
X10257120Y-164300D01*
X10251796Y-170985D01*
X10249015Y-174193D01*
X10243247Y-180304D01*
X10237208Y-186008D01*
X10230897Y-191304D01*
X10224314Y-196192D01*
X10217459Y-200674D01*
X10210332Y-204748D01*
X10202933Y-208414D01*
X10195262Y-211673D01*
X10187319Y-214525D01*
X10179105Y-216969D01*
X10170618Y-219006D01*
X10161860Y-220636D01*
X10152830Y-221858D01*
X10143528Y-222673D01*
X10133953Y-223080D01*
X10129064Y-223131D01*
X10119515Y-222930D01*
X10110221Y-222328D01*
X10101185Y-221324D01*
X10092405Y-219918D01*
X10083882Y-218110D01*
X10075615Y-215901D01*
X10067605Y-213290D01*
X10059852Y-210278D01*
X10052355Y-206864D01*
X10045115Y-203048D01*
X10038132Y-198830D01*
X10031405Y-194211D01*
X10024935Y-189190D01*
X10018722Y-183768D01*
X10012765Y-177944D01*
X10007065Y-171718D01*
X10004315Y-168460D01*
X9999077Y-161720D01*
X9994189Y-154683D01*
X9989649Y-147348D01*
X9985459Y-139715D01*
X9981618Y-131785D01*
X9978126Y-123557D01*
X9974983Y-115032D01*
X9972190Y-106208D01*
X9969745Y-97087D01*
X9967650Y-87669D01*
X9966733Y-82848D01*
X9965904Y-77953D01*
X9965162Y-72983D01*
X9964507Y-67939D01*
X9963940Y-62820D01*
X9963460Y-57627D01*
X9963067Y-52359D01*
X9962761Y-47018D01*
X9962543Y-41601D01*
X9962412Y-36111D01*
X9962369Y-30546D01*
X9962374Y-29813D01*
X10023551Y-29813D01*
X10023663Y-37635D01*
X10023998Y-45255D01*
X10024556Y-52675D01*
X10025337Y-59893D01*
X10026342Y-66910D01*
X10027570Y-73725D01*
X10029021Y-80339D01*
X10030696Y-86752D01*
X10032593Y-92963D01*
X10034714Y-98974D01*
X10037058Y-104783D01*
X10039626Y-110390D01*
X10042416Y-115796D01*
X10045430Y-121001D01*
X10048667Y-126005D01*
X10052128Y-130807D01*
X10055763Y-135362D01*
X10059554Y-139623D01*
X10063502Y-143590D01*
X10067607Y-147263D01*
X10071868Y-150642D01*
X10076285Y-153728D01*
X10080859Y-156520D01*
X10085589Y-159017D01*
X10090476Y-161221D01*
X10095519Y-163131D01*
X10100719Y-164747D01*
X10106075Y-166070D01*
X10111588Y-167098D01*
X10117257Y-167833D01*
X10123082Y-168274D01*
X10129064Y-168421D01*
X10135134Y-168274D01*
X10141040Y-167833D01*
X10146781Y-167098D01*
X10152359Y-166070D01*
X10157772Y-164747D01*
X10163022Y-163131D01*
X10168107Y-161221D01*
X10173028Y-159017D01*
X10177785Y-156520D01*
X10182378Y-153728D01*
X10186807Y-150642D01*
X10191071Y-147263D01*
X10195172Y-143590D01*
X10199109Y-139623D01*
X10202881Y-135362D01*
X10206489Y-130807D01*
X10209891Y-125997D01*
X10213072Y-120969D01*
X10216035Y-115723D01*
X10218778Y-110260D01*
X10221301Y-104580D01*
X10223605Y-98682D01*
X10225690Y-92566D01*
X10227555Y-86233D01*
X10229201Y-79682D01*
X10230627Y-72914D01*
X10231834Y-65928D01*
X10232822Y-58725D01*
X10233590Y-51304D01*
X10234138Y-43666D01*
X10234468Y-35810D01*
X10234577Y-27737D01*
X10234468Y-19663D01*
X10234138Y-11808D01*
X10233590Y-4169D01*
X10232822Y3252D01*
X10231834Y10455D01*
X10230627Y17441D01*
X10229201Y24209D01*
X10227555Y30759D01*
X10225690Y37093D01*
X10223605Y43208D01*
X10221301Y49106D01*
X10218778Y54787D01*
X10216035Y60250D01*
X10213072Y65495D01*
X10209891Y70523D01*
X10206489Y75334D01*
X10202881Y79888D01*
X10199109Y84149D01*
X10195172Y88116D01*
X10191071Y91790D01*
X10186807Y95169D01*
X10182378Y98254D01*
X10177785Y101046D01*
X10173028Y103544D01*
X10168107Y105748D01*
X10163022Y107658D01*
X10157772Y109274D01*
X10152359Y110596D01*
X10146781Y111625D01*
X10141040Y112359D01*
X10135134Y112800D01*
X10129064Y112947D01*
X10122908Y112799D01*
X10116925Y112354D01*
X10111115Y111612D01*
X10105480Y110573D01*
X10100018Y109238D01*
X10094729Y107606D01*
X10089614Y105678D01*
X10084673Y103452D01*
X10079906Y100930D01*
X10075312Y98111D01*
X10070892Y94996D01*
X10066645Y91583D01*
X10062572Y87875D01*
X10058673Y83869D01*
X10054947Y79566D01*
X10051395Y74967D01*
X10048023Y70122D01*
X10044869Y65049D01*
X10041933Y59749D01*
X10039214Y54222D01*
X10036712Y48468D01*
X10034428Y42487D01*
X10032361Y36279D01*
X10030512Y29843D01*
X10028881Y23181D01*
X10027467Y16292D01*
X10026271Y9175D01*
X10025292Y1832D01*
X10024530Y-5739D01*
X10023986Y-13536D01*
X10023660Y-21561D01*
X10023551Y-29813D01*
X9962374Y-29813D01*
X9962412Y-24680D01*
X9962540Y-18897D01*
X9962755Y-13198D01*
X9963056Y-7583D01*
X9963442Y-2051D01*
X9963914Y3398D01*
X9964472Y8763D01*
X9965116Y14044D01*
X9965846Y19242D01*
X9966662Y24357D01*
X9967564Y29388D01*
X9968551Y34335D01*
X9969624Y39199D01*
X9970784Y43980D01*
X9973360Y53291D01*
X9976279Y62268D01*
X9979542Y70911D01*
X9983148Y79220D01*
X9987098Y87195D01*
X9991392Y94836D01*
X9996028Y102143D01*
X10001009Y109117D01*
X10006332Y115756D01*
X10009115Y118949D01*
X10014888Y125031D01*
X10020939Y130708D01*
X10027267Y135979D01*
X10033873Y140845D01*
X10040757Y145305D01*
X10047918Y149360D01*
X10055357Y153010D01*
X10063073Y156253D01*
X10071068Y159092D01*
X10079339Y161525D01*
X10087889Y163552D01*
X10096716Y165174D01*
X10105821Y166390D01*
X10115203Y167201D01*
X10124863Y167607D01*
X10129797Y167658D01*
X10139331Y167453D01*
G37*
G36*
X9727163Y112947D02*
G01*
X9734436Y112667D01*
X9741478Y112193D01*
X9748289Y111526D01*
X9754869Y110665D01*
X9761218Y109610D01*
X9767337Y108362D01*
X9773224Y106920D01*
X9778881Y105284D01*
X9784307Y103455D01*
X9789502Y101431D01*
X9794466Y99215D01*
X9799199Y96804D01*
X9803701Y94200D01*
X9807973Y91402D01*
X9812013Y88411D01*
X9815823Y85226D01*
X9819402Y81760D01*
X9822749Y77929D01*
X9825866Y73731D01*
X9828752Y69167D01*
X9831408Y64236D01*
X9833832Y58939D01*
X9836025Y53276D01*
X9837988Y47246D01*
X9839720Y40850D01*
X9841220Y34087D01*
X9842490Y26958D01*
X9843529Y19463D01*
X9844337Y11602D01*
X9844915Y3374D01*
X9845261Y-5221D01*
X9845376Y-14181D01*
X9845376Y-207500D01*
X9904361Y-207500D01*
X9904361Y159842D01*
X9850261Y159842D01*
X9850261Y97316D01*
X9847108Y101949D01*
X9843968Y106414D01*
X9840842Y110711D01*
X9837728Y114840D01*
X9834629Y118801D01*
X9831542Y122595D01*
X9826938Y127970D01*
X9822363Y132967D01*
X9817819Y137587D01*
X9813304Y141829D01*
X9808820Y145693D01*
X9804365Y149179D01*
X9801413Y151293D01*
X9796953Y154218D01*
X9792411Y156855D01*
X9787788Y159204D01*
X9783083Y161265D01*
X9778297Y163039D01*
X9773429Y164525D01*
X9768479Y165724D01*
X9763448Y166635D01*
X9758335Y167258D01*
X9753141Y167594D01*
X9749633Y167658D01*
X9744745Y167513D01*
X9739460Y167141D01*
X9734108Y166627D01*
X9728982Y166048D01*
X9727163Y165826D01*
X9727163Y112947D01*
G37*
G36*
X9613346Y308341D02*
G01*
X9613346Y-207500D01*
X9672330Y-207500D01*
X9672330Y308341D01*
X9613346Y308341D01*
G37*
G36*
X9279343Y110871D02*
G01*
X9284151Y117748D01*
X9289260Y124180D01*
X9294672Y130170D01*
X9300387Y135715D01*
X9306403Y140817D01*
X9312723Y145475D01*
X9319344Y149690D01*
X9326269Y153461D01*
X9333495Y156788D01*
X9341024Y159672D01*
X9348856Y162112D01*
X9356990Y164108D01*
X9365426Y165661D01*
X9374165Y166770D01*
X9383206Y167436D01*
X9392550Y167658D01*
X9401414Y167452D01*
X9410055Y166837D01*
X9418473Y165811D01*
X9426668Y164375D01*
X9434639Y162529D01*
X9442387Y160273D01*
X9449912Y157606D01*
X9457213Y154529D01*
X9464292Y151042D01*
X9471147Y147145D01*
X9477778Y142837D01*
X9484187Y138119D01*
X9490372Y132991D01*
X9496334Y127453D01*
X9502073Y121504D01*
X9507588Y115145D01*
X9510248Y111830D01*
X9515314Y104997D01*
X9520043Y97894D01*
X9524433Y90523D01*
X9528486Y82883D01*
X9532201Y74974D01*
X9535579Y66795D01*
X9538618Y58348D01*
X9541320Y49632D01*
X9543685Y40646D01*
X9545711Y31392D01*
X9547400Y21868D01*
X9548117Y17005D01*
X9548751Y12076D01*
X9549300Y7078D01*
X9549764Y2014D01*
X9550144Y-3118D01*
X9550439Y-8317D01*
X9550651Y-13583D01*
X9550777Y-18917D01*
X9550819Y-24317D01*
X9550778Y-30057D01*
X9550652Y-35720D01*
X9550443Y-41306D01*
X9550150Y-46816D01*
X9549773Y-52250D01*
X9549312Y-57606D01*
X9548768Y-62887D01*
X9548140Y-68090D01*
X9547429Y-73217D01*
X9546633Y-78268D01*
X9545754Y-83242D01*
X9544792Y-88139D01*
X9542615Y-97704D01*
X9540103Y-106963D01*
X9537257Y-115916D01*
X9534075Y-124562D01*
X9530559Y-132902D01*
X9526708Y-140936D01*
X9522522Y-148663D01*
X9518001Y-156084D01*
X9513145Y-163199D01*
X9507955Y-170008D01*
X9502458Y-176441D01*
X9496716Y-182459D01*
X9490727Y-188062D01*
X9484492Y-193249D01*
X9478011Y-198022D01*
X9471284Y-202380D01*
X9464311Y-206323D01*
X9457091Y-209850D01*
X9449626Y-212963D01*
X9441914Y-215661D01*
X9433956Y-217943D01*
X9425752Y-219811D01*
X9417302Y-221263D01*
X9408605Y-222301D01*
X9399663Y-222924D01*
X9390474Y-223131D01*
X9385767Y-223072D01*
X9378856Y-222764D01*
X9372125Y-222192D01*
X9365575Y-221356D01*
X9359205Y-220256D01*
X9353016Y-218892D01*
X9347006Y-217263D01*
X9341177Y-215371D01*
X9335529Y-213215D01*
X9330061Y-210795D01*
X9324773Y-208110D01*
X9321307Y-206157D01*
X9316167Y-202945D01*
X9311095Y-199394D01*
X9306092Y-195503D01*
X9301157Y-191274D01*
X9296292Y-186705D01*
X9291495Y-181797D01*
X9286766Y-176550D01*
X9282106Y-170963D01*
X9279038Y-167051D01*
X9276000Y-162987D01*
X9272993Y-158773D01*
X9272993Y-207500D01*
X9220969Y-207500D01*
X9220969Y-29080D01*
X9279343Y-29080D01*
X9279454Y-36874D01*
X9279784Y-44473D01*
X9280335Y-51876D01*
X9281107Y-59084D01*
X9282098Y-66096D01*
X9283311Y-72912D01*
X9284743Y-79533D01*
X9286396Y-85958D01*
X9288269Y-92188D01*
X9290363Y-98222D01*
X9292677Y-104060D01*
X9295212Y-109703D01*
X9297967Y-115150D01*
X9300942Y-120402D01*
X9304137Y-125458D01*
X9307554Y-130319D01*
X9311136Y-134933D01*
X9314862Y-139249D01*
X9318730Y-143267D01*
X9322742Y-146988D01*
X9326897Y-150412D01*
X9331195Y-153537D01*
X9335637Y-156365D01*
X9340221Y-158895D01*
X9344948Y-161128D01*
X9349819Y-163063D01*
X9354833Y-164700D01*
X9359989Y-166039D01*
X9365289Y-167081D01*
X9370732Y-167825D01*
X9376318Y-168272D01*
X9382048Y-168421D01*
X9388034Y-168270D01*
X9393872Y-167820D01*
X9399563Y-167068D01*
X9405106Y-166016D01*
X9410500Y-164664D01*
X9415747Y-163011D01*
X9420846Y-161058D01*
X9425798Y-158804D01*
X9430601Y-156249D01*
X9435256Y-153394D01*
X9439764Y-150238D01*
X9444123Y-146782D01*
X9448335Y-143026D01*
X9452399Y-138968D01*
X9456315Y-134611D01*
X9460083Y-129952D01*
X9463662Y-125045D01*
X9467010Y-119940D01*
X9470127Y-114638D01*
X9473013Y-109138D01*
X9475668Y-103441D01*
X9478092Y-97546D01*
X9480286Y-91454D01*
X9482248Y-85164D01*
X9483980Y-78677D01*
X9485481Y-71992D01*
X9486750Y-65110D01*
X9487789Y-58031D01*
X9488598Y-50753D01*
X9489175Y-43279D01*
X9489521Y-35606D01*
X9489637Y-27737D01*
X9489521Y-19954D01*
X9489175Y-12361D01*
X9488598Y-4956D01*
X9487789Y2259D01*
X9486750Y9286D01*
X9485481Y16124D01*
X9483980Y22773D01*
X9482248Y29233D01*
X9480286Y35504D01*
X9478092Y41586D01*
X9475668Y47480D01*
X9473013Y53184D01*
X9470127Y58699D01*
X9467010Y64026D01*
X9463662Y69164D01*
X9460083Y74113D01*
X9456318Y78815D01*
X9452411Y83214D01*
X9448361Y87310D01*
X9444169Y91103D01*
X9439835Y94592D01*
X9435359Y97777D01*
X9430741Y100660D01*
X9425981Y103238D01*
X9421078Y105514D01*
X9416034Y107486D01*
X9410847Y109155D01*
X9405518Y110520D01*
X9400047Y111582D01*
X9394433Y112340D01*
X9388678Y112795D01*
X9382780Y112947D01*
X9376962Y112797D01*
X9371293Y112346D01*
X9365773Y111595D01*
X9360402Y110543D01*
X9355179Y109190D01*
X9350105Y107538D01*
X9345180Y105584D01*
X9340404Y103330D01*
X9335777Y100776D01*
X9331299Y97920D01*
X9326969Y94765D01*
X9322788Y91309D01*
X9318756Y87552D01*
X9314873Y83495D01*
X9311139Y79137D01*
X9307554Y74479D01*
X9304137Y69566D01*
X9300942Y64446D01*
X9297967Y59117D01*
X9295212Y53581D01*
X9292677Y47836D01*
X9290363Y41884D01*
X9288269Y35723D01*
X9286396Y29355D01*
X9284743Y22779D01*
X9283311Y15994D01*
X9282098Y9002D01*
X9281107Y1801D01*
X9280335Y-5607D01*
X9279784Y-13223D01*
X9279454Y-21048D01*
X9279343Y-29080D01*
X9220969Y-29080D01*
X9220969Y308341D01*
X9279343Y308341D01*
X9279343Y110871D01*
G37*
G36*
X8801317Y167400D02*
G01*
X8810409Y166629D01*
X8819231Y165343D01*
X8827784Y163544D01*
X8836068Y161229D01*
X8844084Y158401D01*
X8851830Y155058D01*
X8859307Y151202D01*
X8866515Y146831D01*
X8873454Y141945D01*
X8880124Y136546D01*
X8886525Y130632D01*
X8892656Y124204D01*
X8898519Y117261D01*
X8904113Y109805D01*
X8909438Y101834D01*
X8909438Y159842D01*
X8963537Y159842D01*
X8963537Y-355999D01*
X8904553Y-355999D01*
X8904553Y-168421D01*
X8898829Y-175046D01*
X8892925Y-181243D01*
X8886839Y-187014D01*
X8880571Y-192356D01*
X8874123Y-197272D01*
X8867493Y-201760D01*
X8860682Y-205820D01*
X8853689Y-209453D01*
X8846516Y-212659D01*
X8839161Y-215437D01*
X8831624Y-217788D01*
X8823907Y-219712D01*
X8816008Y-221208D01*
X8807928Y-222276D01*
X8799667Y-222917D01*
X8791224Y-223131D01*
X8782449Y-222926D01*
X8773891Y-222311D01*
X8765550Y-221285D01*
X8757427Y-219849D01*
X8749522Y-218003D01*
X8741834Y-215747D01*
X8734363Y-213080D01*
X8727110Y-210003D01*
X8720075Y-206516D01*
X8713257Y-202618D01*
X8706657Y-198311D01*
X8700274Y-193593D01*
X8694109Y-188465D01*
X8688161Y-182926D01*
X8682431Y-176978D01*
X8676918Y-170619D01*
X8674259Y-167303D01*
X8669193Y-160470D01*
X8664464Y-153368D01*
X8660074Y-145997D01*
X8656021Y-138357D01*
X8652306Y-130447D01*
X8648928Y-122269D01*
X8645888Y-113822D01*
X8643187Y-105105D01*
X8640822Y-96120D01*
X8638796Y-86865D01*
X8637107Y-77342D01*
X8636389Y-72479D01*
X8635756Y-67549D01*
X8635207Y-62552D01*
X8634743Y-57487D01*
X8634363Y-52356D01*
X8634067Y-47157D01*
X8633856Y-41890D01*
X8633730Y-36557D01*
X8633688Y-31156D01*
X8633698Y-29813D01*
X8694870Y-29813D01*
X8694986Y-37431D01*
X8695332Y-44868D01*
X8695909Y-52124D01*
X8696717Y-59198D01*
X8697756Y-66091D01*
X8699026Y-72803D01*
X8700527Y-79334D01*
X8702259Y-85683D01*
X8704221Y-91851D01*
X8706415Y-97838D01*
X8708839Y-103644D01*
X8711494Y-109268D01*
X8714380Y-114711D01*
X8717497Y-119973D01*
X8720845Y-125053D01*
X8724424Y-129952D01*
X8728189Y-134611D01*
X8732098Y-138968D01*
X8736150Y-143026D01*
X8740345Y-146782D01*
X8744683Y-150238D01*
X8749165Y-153394D01*
X8753789Y-156249D01*
X8758557Y-158804D01*
X8763467Y-161058D01*
X8768521Y-163011D01*
X8773718Y-164664D01*
X8779058Y-166016D01*
X8784541Y-167068D01*
X8790167Y-167820D01*
X8795936Y-168270D01*
X8801849Y-168421D01*
X8807578Y-168270D01*
X8813166Y-167820D01*
X8818611Y-167068D01*
X8823915Y-166016D01*
X8829076Y-164664D01*
X8834094Y-163011D01*
X8838971Y-161058D01*
X8843706Y-158804D01*
X8848298Y-156249D01*
X8852749Y-153394D01*
X8857057Y-150238D01*
X8861223Y-146782D01*
X8865246Y-143026D01*
X8869128Y-138968D01*
X8872868Y-134611D01*
X8876465Y-129952D01*
X8879866Y-125045D01*
X8883048Y-119940D01*
X8886010Y-114638D01*
X8888753Y-109138D01*
X8891277Y-103441D01*
X8893581Y-97546D01*
X8895666Y-91454D01*
X8897531Y-85164D01*
X8899177Y-78677D01*
X8900603Y-71992D01*
X8901810Y-65110D01*
X8902797Y-58031D01*
X8903565Y-50753D01*
X8904114Y-43279D01*
X8904443Y-35606D01*
X8904553Y-27737D01*
X8904443Y-19867D01*
X8904114Y-12195D01*
X8903565Y-4720D01*
X8902797Y2557D01*
X8901810Y9637D01*
X8900603Y16519D01*
X8899177Y23204D01*
X8897531Y29691D01*
X8895666Y35981D01*
X8893581Y42073D01*
X8891277Y47968D01*
X8888753Y53665D01*
X8886010Y59165D01*
X8883048Y64467D01*
X8879866Y69572D01*
X8876465Y74479D01*
X8872868Y79137D01*
X8869128Y83495D01*
X8865246Y87552D01*
X8861223Y91309D01*
X8857057Y94765D01*
X8852749Y97920D01*
X8848298Y100776D01*
X8843706Y103330D01*
X8838971Y105584D01*
X8834094Y107538D01*
X8829076Y109190D01*
X8823915Y110543D01*
X8818611Y111595D01*
X8813166Y112346D01*
X8807578Y112797D01*
X8801849Y112947D01*
X8795849Y112795D01*
X8790001Y112340D01*
X8784305Y111582D01*
X8778760Y110520D01*
X8773367Y109155D01*
X8768126Y107486D01*
X8763037Y105514D01*
X8758099Y103238D01*
X8753313Y100660D01*
X8748678Y97777D01*
X8744195Y94592D01*
X8739864Y91103D01*
X8735685Y87310D01*
X8731658Y83214D01*
X8727782Y78815D01*
X8724057Y74113D01*
X8720523Y69156D01*
X8717217Y63994D01*
X8714138Y58626D01*
X8711288Y53054D01*
X8708666Y47277D01*
X8706272Y41294D01*
X8704105Y35107D01*
X8702167Y28714D01*
X8700457Y22116D01*
X8698975Y15313D01*
X8697721Y8305D01*
X8696695Y1092D01*
X8695896Y-6327D01*
X8695326Y-13950D01*
X8694984Y-21779D01*
X8694870Y-29813D01*
X8633698Y-29813D01*
X8633729Y-25461D01*
X8633854Y-19841D01*
X8634062Y-14296D01*
X8634353Y-8825D01*
X8634728Y-3429D01*
X8635186Y1892D01*
X8635727Y7139D01*
X8636351Y12311D01*
X8637059Y17409D01*
X8637850Y22432D01*
X8638724Y27380D01*
X8639681Y32253D01*
X8641845Y41777D01*
X8644343Y51001D01*
X8647173Y59927D01*
X8650336Y68554D01*
X8653832Y76883D01*
X8657661Y84913D01*
X8661824Y92644D01*
X8666319Y100077D01*
X8671147Y107211D01*
X8676308Y114046D01*
X8681740Y120538D01*
X8687411Y126611D01*
X8693322Y132266D01*
X8699473Y137501D01*
X8705863Y142318D01*
X8712492Y146716D01*
X8719361Y150695D01*
X8726469Y154255D01*
X8733817Y157396D01*
X8741404Y160118D01*
X8749231Y162422D01*
X8757297Y164307D01*
X8765603Y165773D01*
X8774148Y166820D01*
X8782933Y167448D01*
X8791957Y167658D01*
X8801317Y167400D01*
G37*
G36*
X8434082Y167446D02*
G01*
X8443310Y166812D01*
X8452298Y165756D01*
X8461046Y164276D01*
X8469555Y162374D01*
X8477824Y160050D01*
X8485854Y157302D01*
X8493645Y154133D01*
X8501196Y150540D01*
X8508507Y146525D01*
X8515579Y142087D01*
X8522412Y137226D01*
X8529005Y131943D01*
X8535359Y126237D01*
X8541473Y120109D01*
X8547348Y113558D01*
X8552923Y106674D01*
X8558138Y99516D01*
X8562994Y92084D01*
X8567490Y84378D01*
X8571626Y76399D01*
X8575403Y68146D01*
X8578820Y59619D01*
X8581877Y50818D01*
X8584575Y41743D01*
X8586913Y32395D01*
X8587947Y27618D01*
X8588891Y22772D01*
X8589746Y17859D01*
X8590510Y12876D01*
X8591184Y7825D01*
X8591769Y2706D01*
X8592263Y-2481D01*
X8592668Y-7737D01*
X8592983Y-13062D01*
X8593208Y-18455D01*
X8593342Y-23917D01*
X8593387Y-29446D01*
X8593344Y-34967D01*
X8593212Y-40417D01*
X8592992Y-45795D01*
X8592685Y-51102D01*
X8592290Y-56338D01*
X8591807Y-61502D01*
X8591237Y-66595D01*
X8590579Y-71617D01*
X8589833Y-76567D01*
X8588999Y-81446D01*
X8587068Y-90990D01*
X8584786Y-100249D01*
X8582152Y-109222D01*
X8579168Y-117911D01*
X8575832Y-126314D01*
X8572146Y-134431D01*
X8568108Y-142264D01*
X8563720Y-149811D01*
X8558980Y-157073D01*
X8553889Y-164050D01*
X8548447Y-170741D01*
X8542687Y-177085D01*
X8536675Y-183020D01*
X8530410Y-188545D01*
X8523893Y-193662D01*
X8517122Y-198369D01*
X8510099Y-202666D01*
X8502822Y-206554D01*
X8495293Y-210034D01*
X8487512Y-213103D01*
X8479477Y-215764D01*
X8471189Y-218015D01*
X8462649Y-219857D01*
X8453856Y-221289D01*
X8444810Y-222312D01*
X8435511Y-222926D01*
X8425959Y-223131D01*
X8418137Y-223002D01*
X8410484Y-222616D01*
X8403001Y-221972D01*
X8395688Y-221070D01*
X8388545Y-219911D01*
X8381572Y-218494D01*
X8374768Y-216820D01*
X8368134Y-214888D01*
X8361671Y-212698D01*
X8355377Y-210251D01*
X8349252Y-207546D01*
X8343298Y-204584D01*
X8337513Y-201364D01*
X8331899Y-197886D01*
X8326454Y-194151D01*
X8321179Y-190158D01*
X8316107Y-185935D01*
X8311272Y-181507D01*
X8306673Y-176875D01*
X8302311Y-172038D01*
X8298186Y-166998D01*
X8294297Y-161754D01*
X8290645Y-156305D01*
X8287229Y-150652D01*
X8284050Y-144795D01*
X8281108Y-138734D01*
X8278402Y-132468D01*
X8275933Y-125999D01*
X8273700Y-119325D01*
X8271704Y-112447D01*
X8269945Y-105365D01*
X8268422Y-98079D01*
X8327529Y-98079D01*
X8330796Y-106597D01*
X8334431Y-114565D01*
X8338433Y-121984D01*
X8342802Y-128853D01*
X8347538Y-135173D01*
X8352642Y-140943D01*
X8358113Y-146164D01*
X8363952Y-150835D01*
X8370158Y-154957D01*
X8376731Y-158529D01*
X8383671Y-161551D01*
X8390979Y-164024D01*
X8398654Y-165948D01*
X8406696Y-167322D01*
X8415106Y-168146D01*
X8423883Y-168421D01*
X8430042Y-168288D01*
X8436034Y-167888D01*
X8441858Y-167223D01*
X8447513Y-166291D01*
X8453001Y-165093D01*
X8458321Y-163629D01*
X8463473Y-161899D01*
X8468457Y-159903D01*
X8473273Y-157640D01*
X8477922Y-155111D01*
X8482402Y-152316D01*
X8486714Y-149255D01*
X8490859Y-145928D01*
X8494835Y-142334D01*
X8498644Y-138475D01*
X8502285Y-134349D01*
X8505736Y-130001D01*
X8508977Y-125474D01*
X8512006Y-120769D01*
X8514825Y-115886D01*
X8517433Y-110824D01*
X8519830Y-105583D01*
X8522017Y-100165D01*
X8523992Y-94568D01*
X8525757Y-88792D01*
X8527310Y-82838D01*
X8528653Y-76706D01*
X8529785Y-70395D01*
X8530706Y-63906D01*
X8531417Y-57239D01*
X8531916Y-50393D01*
X8532205Y-43368D01*
X8260729Y-43368D01*
X8260889Y-30385D01*
X8261369Y-17814D01*
X8262169Y-5656D01*
X8263044Y3526D01*
X8323255Y3526D01*
X8530861Y3526D01*
X8530320Y9691D01*
X8529581Y15696D01*
X8528644Y21544D01*
X8527511Y27233D01*
X8526179Y32764D01*
X8524650Y38136D01*
X8522924Y43350D01*
X8521000Y48406D01*
X8518879Y53303D01*
X8516560Y58042D01*
X8514043Y62623D01*
X8511329Y67045D01*
X8508418Y71308D01*
X8505309Y75414D01*
X8502003Y79361D01*
X8498499Y83149D01*
X8494836Y86758D01*
X8491052Y90133D01*
X8487146Y93276D01*
X8483119Y96186D01*
X8478972Y98863D01*
X8474703Y101307D01*
X8470312Y103519D01*
X8465801Y105498D01*
X8461169Y107244D01*
X8456415Y108757D01*
X8451540Y110037D01*
X8446544Y111085D01*
X8441427Y111900D01*
X8436189Y112482D01*
X8430829Y112831D01*
X8425348Y112947D01*
X8419868Y112824D01*
X8414508Y112455D01*
X8409270Y111839D01*
X8404153Y110978D01*
X8399157Y109870D01*
X8394282Y108516D01*
X8389528Y106916D01*
X8384896Y105070D01*
X8380384Y102978D01*
X8375994Y100640D01*
X8371725Y98055D01*
X8367577Y95224D01*
X8363551Y92147D01*
X8359645Y88824D01*
X8355861Y85255D01*
X8352198Y81440D01*
X8348693Y77457D01*
X8345414Y73357D01*
X8342362Y69138D01*
X8339535Y64801D01*
X8336935Y60345D01*
X8334561Y55771D01*
X8332413Y51079D01*
X8330491Y46269D01*
X8328795Y41340D01*
X8327325Y36293D01*
X8326081Y31128D01*
X8325064Y25844D01*
X8324272Y20442D01*
X8323707Y14922D01*
X8323368Y9283D01*
X8323255Y3526D01*
X8263044Y3526D01*
X8263289Y6091D01*
X8264730Y17425D01*
X8266490Y28347D01*
X8268571Y38858D01*
X8270972Y48955D01*
X8273692Y58641D01*
X8276733Y67915D01*
X8280094Y76776D01*
X8283775Y85226D01*
X8287776Y93263D01*
X8292098Y100888D01*
X8296739Y108100D01*
X8301700Y114901D01*
X8306982Y121290D01*
X8312584Y127266D01*
X8318505Y132830D01*
X8324747Y137982D01*
X8331309Y142722D01*
X8338191Y147050D01*
X8345393Y150965D01*
X8352915Y154468D01*
X8360757Y157560D01*
X8368920Y160239D01*
X8377402Y162506D01*
X8386205Y164360D01*
X8395327Y165803D01*
X8404770Y166833D01*
X8414533Y167451D01*
X8424616Y167658D01*
X8434082Y167446D01*
G37*
G36*
X8066595Y167543D02*
G01*
X8075156Y167200D01*
X8083444Y166627D01*
X8091461Y165826D01*
X8099205Y164795D01*
X8106678Y163536D01*
X8113879Y162048D01*
X8120808Y160330D01*
X8127465Y158384D01*
X8133850Y156209D01*
X8139963Y153804D01*
X8145805Y151171D01*
X8151374Y148309D01*
X8156672Y145218D01*
X8161697Y141898D01*
X8166451Y138348D01*
X8170933Y134570D01*
X8175143Y130563D01*
X8179080Y126327D01*
X8182747Y121862D01*
X8186141Y117168D01*
X8189263Y112245D01*
X8192113Y107093D01*
X8194692Y101712D01*
X8196998Y96102D01*
X8199033Y90263D01*
X8200795Y84195D01*
X8202286Y77898D01*
X8203505Y71372D01*
X8204452Y64618D01*
X8205127Y57634D01*
X8205530Y50421D01*
X8146423Y50421D01*
X8145912Y54384D01*
X8144887Y60079D01*
X8143553Y65472D01*
X8141910Y70566D01*
X8139958Y75359D01*
X8137697Y79851D01*
X8135127Y84043D01*
X8131219Y89164D01*
X8126761Y93751D01*
X8121755Y97804D01*
X8117620Y100510D01*
X8113141Y102950D01*
X8108315Y105124D01*
X8103144Y107032D01*
X8097628Y108673D01*
X8091766Y110049D01*
X8085558Y111158D01*
X8079004Y112001D01*
X8072105Y112577D01*
X8064861Y112888D01*
X8059839Y112947D01*
X8057399Y112934D01*
X8050287Y112737D01*
X8043488Y112304D01*
X8037003Y111635D01*
X8030832Y110730D01*
X8024973Y109589D01*
X8019428Y108211D01*
X8014197Y106598D01*
X8009279Y104748D01*
X8004674Y102662D01*
X7999022Y99514D01*
X7993985Y95967D01*
X7989619Y92041D01*
X7985925Y87739D01*
X7982902Y83058D01*
X7980552Y77999D01*
X7978872Y72563D01*
X7977865Y66749D01*
X7977529Y60557D01*
X7977529Y45658D01*
X7977647Y42460D01*
X7978369Y37468D01*
X7980100Y32037D01*
X7982777Y27216D01*
X7986397Y23004D01*
X7990962Y19402D01*
X7994622Y17307D01*
X8000131Y14892D01*
X8005285Y13123D01*
X8011103Y11499D01*
X8015902Y10377D01*
X8021075Y9335D01*
X8026621Y8376D01*
X8032541Y7498D01*
X8038834Y6701D01*
X8041934Y6208D01*
X8047773Y5285D01*
X8053131Y4445D01*
X8058008Y3689D01*
X8063428Y2863D01*
X8068941Y2044D01*
X8074005Y1328D01*
X8078068Y743D01*
X8082929Y-6D01*
X8088589Y-917D01*
X8093916Y-1802D01*
X8099797Y-2799D01*
X8104902Y-3679D01*
X8107493Y-4117D01*
X8113537Y-5176D01*
X8118961Y-6180D01*
X8124651Y-7315D01*
X8129448Y-8373D01*
X8134455Y-9663D01*
X8139134Y-11014D01*
X8143992Y-12509D01*
X8148723Y-14023D01*
X8153978Y-15752D01*
X8158757Y-17356D01*
X8162555Y-18707D01*
X8167721Y-20762D01*
X8172252Y-22852D01*
X8176735Y-25333D01*
X8181228Y-28592D01*
X8181651Y-28954D01*
X8185736Y-32501D01*
X8189789Y-36092D01*
X8193660Y-39572D01*
X8197836Y-43368D01*
X8200187Y-45622D01*
X8203860Y-49685D01*
X8206972Y-53900D01*
X8209524Y-58267D01*
X8211514Y-62786D01*
X8212912Y-66794D01*
X8214489Y-71764D01*
X8216007Y-77049D01*
X8217263Y-81830D01*
X8218475Y-86844D01*
X8219219Y-90307D01*
X8220149Y-95666D01*
X8220856Y-101223D01*
X8221340Y-106978D01*
X8221572Y-111924D01*
X8221650Y-117008D01*
X8221522Y-123006D01*
X8221138Y-128849D01*
X8220499Y-134539D01*
X8219604Y-140073D01*
X8218454Y-145453D01*
X8217047Y-150679D01*
X8215385Y-155750D01*
X8213468Y-160666D01*
X8211294Y-165428D01*
X8208865Y-170035D01*
X8206180Y-174488D01*
X8203240Y-178786D01*
X8200044Y-182929D01*
X8196592Y-186918D01*
X8192885Y-190753D01*
X8188921Y-194433D01*
X8184741Y-197908D01*
X8180382Y-201159D01*
X8175845Y-204186D01*
X8171130Y-206988D01*
X8166236Y-209567D01*
X8161163Y-211921D01*
X8155913Y-214051D01*
X8150484Y-215956D01*
X8144876Y-217638D01*
X8139090Y-219095D01*
X8133126Y-220328D01*
X8126983Y-221337D01*
X8120662Y-222122D01*
X8114162Y-222683D01*
X8107484Y-223019D01*
X8100627Y-223131D01*
X8092396Y-222929D01*
X8084219Y-222322D01*
X8076097Y-221311D01*
X8068029Y-219895D01*
X8060015Y-218074D01*
X8052056Y-215850D01*
X8044151Y-213220D01*
X8036300Y-210186D01*
X8028504Y-206748D01*
X8020762Y-202905D01*
X8013075Y-198657D01*
X8005441Y-194005D01*
X7997863Y-188948D01*
X7990338Y-183487D01*
X7982869Y-177622D01*
X7975453Y-171352D01*
X7974693Y-176262D01*
X7973384Y-182416D01*
X7971734Y-188120D01*
X7969745Y-193373D01*
X7967416Y-198176D01*
X7964747Y-202528D01*
X7961739Y-206430D01*
X7957501Y-210675D01*
X7956587Y-211441D01*
X7951616Y-214908D01*
X7947159Y-217243D01*
X7942274Y-219190D01*
X7936962Y-220747D01*
X7931222Y-221915D01*
X7925055Y-222693D01*
X7920149Y-223022D01*
X7915003Y-223131D01*
X7913029Y-223108D01*
X7907785Y-222845D01*
X7902100Y-222290D01*
X7897234Y-221635D01*
X7892086Y-220794D01*
X7886655Y-219765D01*
X7880943Y-218550D01*
X7874947Y-217147D01*
X7874947Y-174893D01*
X7877287Y-175350D01*
X7882386Y-176015D01*
X7887526Y-176236D01*
X7891356Y-176125D01*
X7896638Y-175539D01*
X7902815Y-173976D01*
X7908004Y-171520D01*
X7912205Y-168171D01*
X7915418Y-163930D01*
X7917642Y-158795D01*
X7918877Y-152767D01*
X7919155Y-147660D01*
X7919155Y-28469D01*
X7977529Y-28469D01*
X7977529Y-94049D01*
X7977802Y-99489D01*
X7978620Y-104865D01*
X7979983Y-110177D01*
X7981891Y-115424D01*
X7984345Y-120607D01*
X7987344Y-125725D01*
X7990888Y-130779D01*
X7994977Y-135768D01*
X7999612Y-140694D01*
X8004792Y-145554D01*
X8008548Y-148759D01*
X8012479Y-151835D01*
X8016549Y-154713D01*
X8020757Y-157392D01*
X8025103Y-159872D01*
X8029588Y-162154D01*
X8034211Y-164238D01*
X8038972Y-166123D01*
X8043872Y-167810D01*
X8048910Y-169298D01*
X8054086Y-170588D01*
X8059401Y-171680D01*
X8064854Y-172573D01*
X8070445Y-173267D01*
X8076175Y-173763D01*
X8082043Y-174061D01*
X8088049Y-174160D01*
X8092294Y-174100D01*
X8098435Y-173782D01*
X8104306Y-173191D01*
X8109907Y-172328D01*
X8115237Y-171192D01*
X8120297Y-169783D01*
X8125086Y-168102D01*
X8131051Y-165436D01*
X8136535Y-162286D01*
X8141538Y-158651D01*
X8143830Y-156648D01*
X8147971Y-152347D01*
X8151520Y-147653D01*
X8154478Y-142566D01*
X8156844Y-137086D01*
X8158618Y-131212D01*
X8159802Y-124946D01*
X8160301Y-119988D01*
X8160467Y-114809D01*
X8160384Y-111316D01*
X8159951Y-106260D01*
X8159147Y-101422D01*
X8157496Y-95312D01*
X8155185Y-89591D01*
X8152214Y-84260D01*
X8148583Y-79318D01*
X8144292Y-74765D01*
X8139340Y-70601D01*
X8136680Y-68663D01*
X8132619Y-65929D01*
X8127070Y-62608D01*
X8121368Y-59657D01*
X8115514Y-57077D01*
X8109507Y-54866D01*
X8103348Y-53026D01*
X8097035Y-51555D01*
X8092201Y-50696D01*
X8088912Y-50171D01*
X8083840Y-49365D01*
X8078600Y-48536D01*
X8073192Y-47682D01*
X8067618Y-46805D01*
X8061875Y-45905D01*
X8055965Y-44981D01*
X8049888Y-44033D01*
X8043644Y-43062D01*
X8037231Y-42067D01*
X8030652Y-41048D01*
X8028448Y-40703D01*
X8022048Y-39649D01*
X8015963Y-38568D01*
X8010194Y-37458D01*
X8004741Y-36321D01*
X7999603Y-35156D01*
X7993243Y-33559D01*
X7987444Y-31912D01*
X7982206Y-30215D01*
X7977529Y-28469D01*
X7919155Y-28469D01*
X7919155Y66907D01*
X7919292Y72982D01*
X7919705Y78871D01*
X7920392Y84576D01*
X7921353Y90095D01*
X7922590Y95429D01*
X7924101Y100579D01*
X7925887Y105543D01*
X7927948Y110322D01*
X7930283Y114915D01*
X7932894Y119324D01*
X7935779Y123548D01*
X7938939Y127586D01*
X7942373Y131440D01*
X7946083Y135108D01*
X7950067Y138592D01*
X7954326Y141890D01*
X7958852Y145010D01*
X7963636Y147929D01*
X7968679Y150647D01*
X7973980Y153163D01*
X7979540Y155478D01*
X7985358Y157592D01*
X7991435Y159504D01*
X7997771Y161216D01*
X8004365Y162725D01*
X8011217Y164034D01*
X8018329Y165141D01*
X8025698Y166047D01*
X8033327Y166752D01*
X8041214Y167255D01*
X8049359Y167557D01*
X8057763Y167658D01*
X8066595Y167543D01*
G37*
G36*
X7536060Y34789D02*
G01*
X7595167Y34789D01*
X7596369Y41710D01*
X7597870Y48322D01*
X7599670Y54625D01*
X7601767Y60618D01*
X7604163Y66302D01*
X7606858Y71678D01*
X7609850Y76744D01*
X7613142Y81501D01*
X7616731Y85949D01*
X7620619Y90088D01*
X7623377Y92675D01*
X7627714Y96298D01*
X7632297Y99564D01*
X7637127Y102474D01*
X7642205Y105028D01*
X7647529Y107226D01*
X7653100Y109067D01*
X7658918Y110552D01*
X7664982Y111680D01*
X7671294Y112452D01*
X7677852Y112868D01*
X7682362Y112947D01*
X7688264Y112797D01*
X7694005Y112348D01*
X7699584Y111599D01*
X7705000Y110550D01*
X7710254Y109202D01*
X7715346Y107555D01*
X7720276Y105607D01*
X7725043Y103361D01*
X7729648Y100814D01*
X7734091Y97968D01*
X7738372Y94823D01*
X7742491Y91377D01*
X7746448Y87633D01*
X7750242Y83588D01*
X7753874Y79244D01*
X7757344Y74601D01*
X7760612Y69708D01*
X7763670Y64587D01*
X7766516Y59237D01*
X7769152Y53657D01*
X7771577Y47849D01*
X7773790Y41811D01*
X7775794Y35545D01*
X7777586Y29050D01*
X7779167Y22325D01*
X7780538Y15372D01*
X7781697Y8190D01*
X7782646Y779D01*
X7783384Y-6862D01*
X7783911Y-14731D01*
X7784228Y-22829D01*
X7784333Y-31156D01*
X7784226Y-39063D01*
X7783906Y-46755D01*
X7783371Y-54233D01*
X7782623Y-61496D01*
X7781662Y-68544D01*
X7780486Y-75377D01*
X7779097Y-81996D01*
X7777494Y-88401D01*
X7775678Y-94590D01*
X7773647Y-100565D01*
X7771403Y-106325D01*
X7768946Y-111871D01*
X7766274Y-117202D01*
X7763389Y-122318D01*
X7760290Y-127219D01*
X7756978Y-131906D01*
X7753461Y-136328D01*
X7749778Y-140464D01*
X7745931Y-144315D01*
X7741919Y-147881D01*
X7737741Y-151162D01*
X7733399Y-154157D01*
X7728891Y-156867D01*
X7724219Y-159292D01*
X7719381Y-161432D01*
X7714378Y-163286D01*
X7709211Y-164855D01*
X7703878Y-166139D01*
X7698380Y-167137D01*
X7692717Y-167850D01*
X7686889Y-168278D01*
X7680896Y-168421D01*
X7671729Y-168085D01*
X7663034Y-167077D01*
X7654811Y-165398D01*
X7647061Y-163047D01*
X7639783Y-160025D01*
X7632977Y-156331D01*
X7626643Y-151965D01*
X7620782Y-146927D01*
X7615393Y-141218D01*
X7610476Y-134837D01*
X7606031Y-127785D01*
X7602059Y-120061D01*
X7598559Y-111665D01*
X7595531Y-102597D01*
X7594195Y-97812D01*
X7592976Y-92858D01*
X7591875Y-87737D01*
X7590893Y-82447D01*
X7531786Y-82447D01*
X7532620Y-90652D01*
X7533719Y-98626D01*
X7535082Y-106371D01*
X7536709Y-113886D01*
X7538600Y-121171D01*
X7540756Y-128226D01*
X7543176Y-135050D01*
X7545860Y-141646D01*
X7548809Y-148011D01*
X7552022Y-154146D01*
X7555499Y-160051D01*
X7559240Y-165726D01*
X7563246Y-171172D01*
X7567516Y-176387D01*
X7572050Y-181373D01*
X7576849Y-186128D01*
X7581869Y-190609D01*
X7587099Y-194801D01*
X7592539Y-198703D01*
X7598189Y-202317D01*
X7604049Y-205641D01*
X7610119Y-208677D01*
X7616399Y-211423D01*
X7622888Y-213880D01*
X7629588Y-216048D01*
X7636497Y-217928D01*
X7643617Y-219517D01*
X7650946Y-220818D01*
X7658485Y-221830D01*
X7666234Y-222553D01*
X7674193Y-222987D01*
X7682362Y-223131D01*
X7691643Y-222929D01*
X7700680Y-222322D01*
X7709473Y-221311D01*
X7718021Y-219895D01*
X7726325Y-218074D01*
X7734385Y-215850D01*
X7742201Y-213220D01*
X7749773Y-210186D01*
X7757100Y-206748D01*
X7764183Y-202905D01*
X7771022Y-198657D01*
X7777616Y-194005D01*
X7783967Y-188948D01*
X7790073Y-183487D01*
X7795935Y-177622D01*
X7801552Y-171352D01*
X7806876Y-164722D01*
X7811856Y-157808D01*
X7816493Y-150609D01*
X7820786Y-143126D01*
X7824736Y-135359D01*
X7828343Y-127308D01*
X7831605Y-118972D01*
X7834525Y-110352D01*
X7837101Y-101448D01*
X7839333Y-92259D01*
X7841223Y-82786D01*
X7842038Y-77943D01*
X7842768Y-73029D01*
X7843412Y-68043D01*
X7843970Y-62987D01*
X7844443Y-57859D01*
X7844829Y-52661D01*
X7845129Y-47391D01*
X7845344Y-42051D01*
X7845473Y-36639D01*
X7845516Y-31156D01*
X7845472Y-25543D01*
X7845342Y-20001D01*
X7845124Y-14530D01*
X7844819Y-9129D01*
X7844428Y-3798D01*
X7843949Y1462D01*
X7843383Y6651D01*
X7842730Y11770D01*
X7841990Y16818D01*
X7841163Y21795D01*
X7840249Y26702D01*
X7839248Y31538D01*
X7838159Y36304D01*
X7835722Y45623D01*
X7832936Y54660D01*
X7829802Y63414D01*
X7826319Y71887D01*
X7822489Y80076D01*
X7818310Y87984D01*
X7813783Y95609D01*
X7808907Y102951D01*
X7803684Y110011D01*
X7800942Y113436D01*
X7795238Y120002D01*
X7789300Y126144D01*
X7783128Y131863D01*
X7776723Y137158D01*
X7770084Y142029D01*
X7763212Y146477D01*
X7756105Y150501D01*
X7748765Y154102D01*
X7741191Y157279D01*
X7733384Y160033D01*
X7725342Y162362D01*
X7717067Y164269D01*
X7708558Y165751D01*
X7699815Y166810D01*
X7690839Y167446D01*
X7681629Y167658D01*
X7673730Y167524D01*
X7666032Y167125D01*
X7658534Y166460D01*
X7651236Y165528D01*
X7644139Y164330D01*
X7637242Y162866D01*
X7630545Y161136D01*
X7624049Y159140D01*
X7617753Y156877D01*
X7611657Y154348D01*
X7605762Y151553D01*
X7600067Y148492D01*
X7594573Y145165D01*
X7589278Y141571D01*
X7584185Y137712D01*
X7579291Y133586D01*
X7574629Y129207D01*
X7570227Y124589D01*
X7566088Y119731D01*
X7562209Y114634D01*
X7558593Y109297D01*
X7555237Y103721D01*
X7552143Y97906D01*
X7549310Y91851D01*
X7546739Y85556D01*
X7544429Y79022D01*
X7542381Y72249D01*
X7540594Y65236D01*
X7539068Y57983D01*
X7537804Y50492D01*
X7536801Y42760D01*
X7536060Y34789D01*
G37*
G36*
X7332059Y167446D02*
G01*
X7341286Y166812D01*
X7350274Y165756D01*
X7359022Y164276D01*
X7367531Y162374D01*
X7375801Y160050D01*
X7383831Y157302D01*
X7391621Y154133D01*
X7399172Y150540D01*
X7406484Y146525D01*
X7413556Y142087D01*
X7420388Y137226D01*
X7426981Y131943D01*
X7433335Y126237D01*
X7439449Y120109D01*
X7445324Y113558D01*
X7450899Y106674D01*
X7456115Y99516D01*
X7460970Y92084D01*
X7465466Y84378D01*
X7469603Y76399D01*
X7473379Y68146D01*
X7476796Y59619D01*
X7479854Y50818D01*
X7482551Y41743D01*
X7484889Y32395D01*
X7485923Y27618D01*
X7486868Y22772D01*
X7487722Y17859D01*
X7488486Y12876D01*
X7489161Y7825D01*
X7489745Y2706D01*
X7490240Y-2481D01*
X7490644Y-7737D01*
X7490959Y-13062D01*
X7491184Y-18455D01*
X7491319Y-23917D01*
X7491364Y-29446D01*
X7491320Y-34967D01*
X7491188Y-40417D01*
X7490969Y-45795D01*
X7490662Y-51102D01*
X7490267Y-56338D01*
X7489784Y-61502D01*
X7489213Y-66595D01*
X7488555Y-71617D01*
X7487809Y-76567D01*
X7486975Y-81446D01*
X7485044Y-90990D01*
X7482762Y-100249D01*
X7480129Y-109222D01*
X7477144Y-117911D01*
X7473809Y-126314D01*
X7470122Y-134431D01*
X7466085Y-142264D01*
X7461696Y-149811D01*
X7456956Y-157073D01*
X7451865Y-164050D01*
X7446423Y-170741D01*
X7440664Y-177085D01*
X7434652Y-183020D01*
X7428387Y-188545D01*
X7421869Y-193662D01*
X7415098Y-198369D01*
X7408075Y-202666D01*
X7400799Y-206554D01*
X7393270Y-210034D01*
X7385488Y-213103D01*
X7377453Y-215764D01*
X7369165Y-218015D01*
X7360625Y-219857D01*
X7351832Y-221289D01*
X7342786Y-222312D01*
X7333487Y-222926D01*
X7323935Y-223131D01*
X7316113Y-223002D01*
X7308460Y-222616D01*
X7300977Y-221972D01*
X7293664Y-221070D01*
X7286521Y-219911D01*
X7279548Y-218494D01*
X7272744Y-216820D01*
X7266111Y-214888D01*
X7259647Y-212698D01*
X7253353Y-210251D01*
X7247229Y-207546D01*
X7241274Y-204584D01*
X7235490Y-201364D01*
X7229875Y-197886D01*
X7224430Y-194151D01*
X7219155Y-190158D01*
X7214083Y-185935D01*
X7209248Y-181507D01*
X7204649Y-176875D01*
X7200287Y-172038D01*
X7196162Y-166998D01*
X7192273Y-161754D01*
X7188621Y-156305D01*
X7185205Y-150652D01*
X7182026Y-144795D01*
X7179084Y-138734D01*
X7176378Y-132468D01*
X7173909Y-125999D01*
X7171677Y-119325D01*
X7169681Y-112447D01*
X7167921Y-105365D01*
X7166399Y-98079D01*
X7225505Y-98079D01*
X7228773Y-106597D01*
X7232407Y-114565D01*
X7236409Y-121984D01*
X7240778Y-128853D01*
X7245515Y-135173D01*
X7250619Y-140943D01*
X7256090Y-146164D01*
X7261928Y-150835D01*
X7268134Y-154957D01*
X7274707Y-158529D01*
X7281647Y-161551D01*
X7288955Y-164024D01*
X7296630Y-165948D01*
X7304672Y-167322D01*
X7313082Y-168146D01*
X7321859Y-168421D01*
X7328019Y-168288D01*
X7334010Y-167888D01*
X7339834Y-167223D01*
X7345490Y-166291D01*
X7350978Y-165093D01*
X7356297Y-163629D01*
X7361449Y-161899D01*
X7366433Y-159903D01*
X7371250Y-157640D01*
X7375898Y-155111D01*
X7380378Y-152316D01*
X7384691Y-149255D01*
X7388835Y-145928D01*
X7392812Y-142334D01*
X7396620Y-138475D01*
X7400261Y-134349D01*
X7403712Y-130001D01*
X7406953Y-125474D01*
X7409983Y-120769D01*
X7412801Y-115886D01*
X7415409Y-110824D01*
X7417807Y-105583D01*
X7419993Y-100165D01*
X7421968Y-94568D01*
X7423733Y-88792D01*
X7425286Y-82838D01*
X7426629Y-76706D01*
X7427761Y-70395D01*
X7428683Y-63906D01*
X7429393Y-57239D01*
X7429892Y-50393D01*
X7430181Y-43368D01*
X7158705Y-43368D01*
X7158865Y-30385D01*
X7159345Y-17814D01*
X7160145Y-5656D01*
X7161021Y3526D01*
X7221231Y3526D01*
X7428838Y3526D01*
X7428296Y9691D01*
X7427557Y15696D01*
X7426621Y21544D01*
X7425487Y27233D01*
X7424155Y32764D01*
X7422627Y38136D01*
X7420900Y43350D01*
X7418976Y48406D01*
X7416855Y53303D01*
X7414536Y58042D01*
X7412020Y62623D01*
X7409306Y67045D01*
X7406394Y71308D01*
X7403286Y75414D01*
X7399979Y79361D01*
X7396475Y83149D01*
X7392812Y86758D01*
X7389028Y90133D01*
X7385122Y93276D01*
X7381096Y96186D01*
X7376948Y98863D01*
X7372679Y101307D01*
X7368289Y103519D01*
X7363777Y105498D01*
X7359145Y107244D01*
X7354391Y108757D01*
X7349516Y110037D01*
X7344520Y111085D01*
X7339403Y111900D01*
X7334165Y112482D01*
X7328805Y112831D01*
X7323325Y112947D01*
X7317844Y112824D01*
X7312484Y112455D01*
X7307246Y111839D01*
X7302129Y110978D01*
X7297133Y109870D01*
X7292258Y108516D01*
X7287504Y106916D01*
X7282872Y105070D01*
X7278361Y102978D01*
X7273970Y100640D01*
X7269701Y98055D01*
X7265554Y95224D01*
X7261527Y92147D01*
X7257621Y88824D01*
X7253837Y85255D01*
X7250174Y81440D01*
X7246669Y77457D01*
X7243390Y73357D01*
X7240338Y69138D01*
X7237511Y64801D01*
X7234911Y60345D01*
X7232537Y55771D01*
X7230389Y51079D01*
X7228467Y46269D01*
X7226771Y41340D01*
X7225301Y36293D01*
X7224058Y31128D01*
X7223040Y25844D01*
X7222249Y20442D01*
X7221683Y14922D01*
X7221344Y9283D01*
X7221231Y3526D01*
X7161021Y3526D01*
X7161266Y6091D01*
X7162706Y17425D01*
X7164467Y28347D01*
X7166547Y38858D01*
X7168948Y48955D01*
X7171669Y58641D01*
X7174710Y67915D01*
X7178071Y76776D01*
X7181752Y85226D01*
X7185753Y93263D01*
X7190074Y100888D01*
X7194715Y108100D01*
X7199677Y114901D01*
X7204958Y121290D01*
X7210560Y127266D01*
X7216482Y132830D01*
X7222723Y137982D01*
X7229285Y142722D01*
X7236167Y147050D01*
X7243369Y150965D01*
X7250891Y154468D01*
X7258734Y157560D01*
X7266896Y160239D01*
X7275378Y162506D01*
X7284181Y164360D01*
X7293304Y165803D01*
X7302746Y166833D01*
X7312509Y167451D01*
X7322592Y167658D01*
X7332059Y167446D01*
G37*
G36*
X6795654Y167443D02*
G01*
X6804129Y166799D01*
X6812392Y165726D01*
X6820444Y164223D01*
X6828284Y162291D01*
X6835911Y159930D01*
X6843327Y157139D01*
X6850532Y153919D01*
X6857524Y150270D01*
X6864305Y146191D01*
X6870873Y141683D01*
X6877230Y136746D01*
X6883376Y131379D01*
X6889309Y125583D01*
X6895030Y119358D01*
X6900540Y112703D01*
X6905775Y105715D01*
X6910673Y98460D01*
X6915232Y90939D01*
X6919454Y83149D01*
X6923338Y75093D01*
X6926884Y66770D01*
X6930093Y58179D01*
X6932964Y49322D01*
X6935497Y40197D01*
X6937692Y30805D01*
X6938663Y26009D01*
X6939549Y21146D01*
X6940352Y16216D01*
X6941069Y11220D01*
X6941703Y6157D01*
X6942251Y1027D01*
X6942716Y-4170D01*
X6943096Y-9434D01*
X6943391Y-14764D01*
X6943602Y-20161D01*
X6943729Y-25625D01*
X6943771Y-31156D01*
X6943729Y-36557D01*
X6943601Y-41890D01*
X6943388Y-47157D01*
X6943090Y-52356D01*
X6942707Y-57487D01*
X6942239Y-62552D01*
X6941685Y-67549D01*
X6941046Y-72479D01*
X6939514Y-82137D01*
X6937640Y-91526D01*
X6935426Y-100646D01*
X6932872Y-109497D01*
X6929977Y-118079D01*
X6926741Y-126392D01*
X6923165Y-134436D01*
X6919248Y-142210D01*
X6914990Y-149716D01*
X6910392Y-156953D01*
X6905453Y-163920D01*
X6900174Y-170619D01*
X6894642Y-176978D01*
X6888944Y-182926D01*
X6883082Y-188465D01*
X6877055Y-193593D01*
X6870862Y-198311D01*
X6864505Y-202618D01*
X6857982Y-206516D01*
X6851295Y-210003D01*
X6844442Y-213080D01*
X6837424Y-215747D01*
X6830242Y-218003D01*
X6822894Y-219849D01*
X6815381Y-221285D01*
X6807703Y-222311D01*
X6799860Y-222926D01*
X6791852Y-223131D01*
X6787579Y-223070D01*
X6781287Y-222749D01*
X6775137Y-222154D01*
X6769128Y-221284D01*
X6763261Y-220139D01*
X6757536Y-218719D01*
X6751953Y-217025D01*
X6746511Y-215056D01*
X6741211Y-212812D01*
X6736052Y-210293D01*
X6731036Y-207500D01*
X6726105Y-204418D01*
X6721204Y-200988D01*
X6716333Y-197211D01*
X6711492Y-193085D01*
X6706682Y-188612D01*
X6701901Y-183792D01*
X6697151Y-178623D01*
X6692430Y-173107D01*
X6689300Y-169236D01*
X6686183Y-165211D01*
X6683079Y-161031D01*
X6679989Y-156697D01*
X6679989Y-176481D01*
X6680074Y-185208D01*
X6680331Y-193652D01*
X6680757Y-201813D01*
X6681355Y-209690D01*
X6682124Y-217284D01*
X6683063Y-224595D01*
X6684173Y-231622D01*
X6685454Y-238366D01*
X6686906Y-244826D01*
X6688528Y-251003D01*
X6690321Y-256897D01*
X6692285Y-262508D01*
X6694420Y-267835D01*
X6696725Y-272878D01*
X6699202Y-277639D01*
X6701849Y-282116D01*
X6704712Y-286330D01*
X6707867Y-290273D01*
X6711314Y-293944D01*
X6715053Y-297343D01*
X6719084Y-300470D01*
X6723407Y-303325D01*
X6728022Y-305908D01*
X6732929Y-308219D01*
X6738127Y-310258D01*
X6743618Y-312026D01*
X6749401Y-313521D01*
X6755475Y-314745D01*
X6761842Y-315697D01*
X6768500Y-316376D01*
X6775451Y-316784D01*
X6782693Y-316920D01*
X6792359Y-316676D01*
X6801481Y-315943D01*
X6810059Y-314722D01*
X6818093Y-313012D01*
X6825583Y-310814D01*
X6832530Y-308128D01*
X6838933Y-304952D01*
X6844792Y-301289D01*
X6850107Y-297137D01*
X6854878Y-292496D01*
X6859106Y-287367D01*
X6862789Y-281749D01*
X6865929Y-275643D01*
X6868525Y-269049D01*
X6870578Y-261966D01*
X6872086Y-254394D01*
X6931803Y-254394D01*
X6931061Y-260719D01*
X6930054Y-266870D01*
X6928782Y-272847D01*
X6927247Y-278650D01*
X6925447Y-284280D01*
X6923383Y-289737D01*
X6921054Y-295020D01*
X6918462Y-300129D01*
X6915605Y-305064D01*
X6912483Y-309826D01*
X6909098Y-314414D01*
X6905448Y-318828D01*
X6901534Y-323069D01*
X6897356Y-327137D01*
X6892913Y-331030D01*
X6888206Y-334750D01*
X6883265Y-338270D01*
X6878121Y-341562D01*
X6872774Y-344628D01*
X6867224Y-347466D01*
X6861470Y-350077D01*
X6855514Y-352461D01*
X6849354Y-354619D01*
X6842991Y-356549D01*
X6836424Y-358252D01*
X6829655Y-359728D01*
X6822682Y-360977D01*
X6815506Y-361998D01*
X6808126Y-362793D01*
X6800544Y-363361D01*
X6792758Y-363701D01*
X6784769Y-363815D01*
X6781581Y-363800D01*
X6775310Y-363684D01*
X6769179Y-363451D01*
X6763188Y-363102D01*
X6757338Y-362636D01*
X6751628Y-362054D01*
X6746058Y-361356D01*
X6740628Y-360541D01*
X6735339Y-359610D01*
X6730190Y-358563D01*
X6725181Y-357399D01*
X6720312Y-356118D01*
X6713272Y-353979D01*
X6706548Y-351579D01*
X6700139Y-348916D01*
X6696021Y-347008D01*
X6690088Y-343917D01*
X6684446Y-340551D01*
X6679097Y-336910D01*
X6674039Y-332995D01*
X6669274Y-328804D01*
X6664800Y-324339D01*
X6660618Y-319599D01*
X6656729Y-314585D01*
X6653131Y-309295D01*
X6649825Y-303731D01*
X6647759Y-299924D01*
X6644815Y-294136D01*
X6642055Y-288252D01*
X6639480Y-282275D01*
X6637089Y-276202D01*
X6634883Y-270036D01*
X6632862Y-263775D01*
X6631025Y-257419D01*
X6629373Y-250969D01*
X6627905Y-244425D01*
X6626622Y-237786D01*
X6625487Y-230969D01*
X6624464Y-223845D01*
X6623844Y-218925D01*
X6623273Y-213869D01*
X6622752Y-208677D01*
X6622281Y-203348D01*
X6621859Y-197882D01*
X6621487Y-192281D01*
X6621165Y-186542D01*
X6620892Y-180668D01*
X6620668Y-174656D01*
X6620495Y-168509D01*
X6620371Y-162225D01*
X6620296Y-155804D01*
X6620272Y-149248D01*
X6620272Y-29813D01*
X6679989Y-29813D01*
X6680093Y-37809D01*
X6680407Y-45587D01*
X6680929Y-53147D01*
X6681661Y-60488D01*
X6682601Y-67611D01*
X6683750Y-74515D01*
X6685108Y-81201D01*
X6686675Y-87668D01*
X6688451Y-93917D01*
X6690436Y-99947D01*
X6692630Y-105759D01*
X6695033Y-111352D01*
X6697645Y-116727D01*
X6700465Y-121883D01*
X6703495Y-126821D01*
X6706734Y-131540D01*
X6710153Y-136006D01*
X6713727Y-140184D01*
X6717454Y-144074D01*
X6721335Y-147675D01*
X6725369Y-150989D01*
X6729557Y-154014D01*
X6733898Y-156751D01*
X6738394Y-159200D01*
X6743042Y-161361D01*
X6747845Y-163234D01*
X6752801Y-164819D01*
X6757910Y-166116D01*
X6763173Y-167124D01*
X6768590Y-167844D01*
X6774160Y-168277D01*
X6779884Y-168421D01*
X6785789Y-168274D01*
X6791534Y-167833D01*
X6797119Y-167098D01*
X6802545Y-166070D01*
X6807812Y-164747D01*
X6812920Y-163131D01*
X6817868Y-161221D01*
X6822657Y-159017D01*
X6827287Y-156520D01*
X6831757Y-153728D01*
X6836068Y-150642D01*
X6840220Y-147263D01*
X6844212Y-143590D01*
X6848045Y-139623D01*
X6851719Y-135362D01*
X6855233Y-130807D01*
X6858546Y-125997D01*
X6861645Y-120969D01*
X6864530Y-115723D01*
X6867201Y-110260D01*
X6869659Y-104580D01*
X6871903Y-98682D01*
X6873933Y-92566D01*
X6875750Y-86233D01*
X6877352Y-79682D01*
X6878742Y-72914D01*
X6879917Y-65928D01*
X6880879Y-58725D01*
X6881627Y-51304D01*
X6882161Y-43666D01*
X6882482Y-35810D01*
X6882588Y-27737D01*
X6882482Y-19736D01*
X6882161Y-11947D01*
X6881627Y-4368D01*
X6880879Y3000D01*
X6879917Y10157D01*
X6878742Y17103D01*
X6877352Y23838D01*
X6875750Y30363D01*
X6873933Y36676D01*
X6871903Y42779D01*
X6869659Y48671D01*
X6867201Y54352D01*
X6864530Y59822D01*
X6861645Y65081D01*
X6858546Y70130D01*
X6855233Y74967D01*
X6851722Y79566D01*
X6848057Y83869D01*
X6844238Y87875D01*
X6840266Y91583D01*
X6836140Y94996D01*
X6831860Y98111D01*
X6827427Y100930D01*
X6822841Y103452D01*
X6818100Y105678D01*
X6813206Y107606D01*
X6808159Y109238D01*
X6802958Y110573D01*
X6797603Y111612D01*
X6792095Y112354D01*
X6786433Y112799D01*
X6780617Y112947D01*
X6774717Y112800D01*
X6768985Y112359D01*
X6763421Y111625D01*
X6758025Y110596D01*
X6752796Y109274D01*
X6747736Y107658D01*
X6742843Y105748D01*
X6738119Y103544D01*
X6733562Y101046D01*
X6729173Y98254D01*
X6724953Y95169D01*
X6720900Y91790D01*
X6717015Y88116D01*
X6713298Y84149D01*
X6709748Y79888D01*
X6706367Y75334D01*
X6703173Y70515D01*
X6700185Y65463D01*
X6697403Y60177D01*
X6694827Y54657D01*
X6692457Y48903D01*
X6690293Y42916D01*
X6688335Y36695D01*
X6686584Y30240D01*
X6685038Y23552D01*
X6683698Y16630D01*
X6682565Y9474D01*
X6681638Y2084D01*
X6680916Y-5540D01*
X6680401Y-13397D01*
X6680092Y-21488D01*
X6679989Y-29813D01*
X6620272Y-29813D01*
X6620272Y159842D01*
X6681454Y159842D01*
X6674371Y103300D01*
X6679920Y111093D01*
X6685668Y118383D01*
X6691613Y125171D01*
X6697758Y131456D01*
X6704100Y137238D01*
X6710641Y142518D01*
X6717381Y147294D01*
X6724319Y151568D01*
X6731456Y155339D01*
X6738790Y158607D01*
X6746324Y161373D01*
X6754056Y163635D01*
X6761986Y165395D01*
X6770115Y166652D01*
X6778442Y167406D01*
X6786967Y167658D01*
X6795654Y167443D01*
G37*
G36*
X6480320Y159842D02*
G01*
X6480320Y-207500D01*
X6538694Y-207500D01*
X6538694Y159842D01*
X6480320Y159842D01*
G37*
G36*
X6480320Y308341D02*
G01*
X6480320Y237999D01*
X6539427Y237999D01*
X6539427Y308341D01*
X6480320Y308341D01*
G37*
G36*
X6236810Y-207500D02*
G01*
X6300924Y-207500D01*
X6430251Y159842D01*
X6364183Y159842D01*
X6265753Y-138135D01*
X6161584Y159842D01*
X6095516Y159842D01*
X6236810Y-207500D01*
G37*
G36*
X5991835Y159842D02*
G01*
X5991835Y-207500D01*
X6050209Y-207500D01*
X6050209Y159842D01*
X5991835Y159842D01*
G37*
G36*
X5991835Y308341D02*
G01*
X5991835Y237999D01*
X6050942Y237999D01*
X6050942Y308341D01*
X5991835Y308341D01*
G37*
G36*
X5899755Y159842D02*
G01*
X5845655Y159842D01*
X5845655Y92309D01*
X5842557Y97243D01*
X5839429Y102000D01*
X5836272Y106581D01*
X5833085Y110986D01*
X5829868Y115214D01*
X5826622Y119265D01*
X5823346Y123140D01*
X5820040Y126838D01*
X5815027Y132055D01*
X5809947Y136875D01*
X5804800Y141297D01*
X5799587Y145323D01*
X5794307Y148951D01*
X5792533Y150072D01*
X5787089Y153215D01*
X5781429Y156048D01*
X5775551Y158573D01*
X5769457Y160788D01*
X5763147Y162694D01*
X5756619Y164292D01*
X5749874Y165580D01*
X5742913Y166558D01*
X5735735Y167228D01*
X5730829Y167503D01*
X5725827Y167640D01*
X5723290Y167658D01*
X5716689Y167551D01*
X5710259Y167232D01*
X5704000Y166700D01*
X5697911Y165955D01*
X5691994Y164998D01*
X5686247Y163828D01*
X5680671Y162445D01*
X5675265Y160849D01*
X5670031Y159041D01*
X5664967Y157020D01*
X5660074Y154786D01*
X5655352Y152339D01*
X5650801Y149679D01*
X5646420Y146807D01*
X5642210Y143722D01*
X5638171Y140424D01*
X5634326Y136965D01*
X5630729Y133364D01*
X5627381Y129622D01*
X5624280Y125739D01*
X5621427Y121715D01*
X5618822Y117550D01*
X5616466Y113243D01*
X5614357Y108795D01*
X5612497Y104206D01*
X5610885Y99476D01*
X5609520Y94604D01*
X5608404Y89591D01*
X5607536Y84437D01*
X5606916Y79142D01*
X5606544Y73706D01*
X5606420Y68129D01*
X5606420Y-207500D01*
X5664916Y-207500D01*
X5664916Y42117D01*
X5665095Y48069D01*
X5665633Y53789D01*
X5666529Y59277D01*
X5667784Y64534D01*
X5669397Y69558D01*
X5671369Y74351D01*
X5673699Y78912D01*
X5676387Y83241D01*
X5679435Y87338D01*
X5682840Y91204D01*
X5685310Y93652D01*
X5689264Y97100D01*
X5693477Y100209D01*
X5697951Y102979D01*
X5702684Y105410D01*
X5707676Y107502D01*
X5712929Y109254D01*
X5718441Y110667D01*
X5724213Y111741D01*
X5730245Y112476D01*
X5736537Y112872D01*
X5740875Y112947D01*
X5746439Y112817D01*
X5751866Y112426D01*
X5757156Y111775D01*
X5762308Y110863D01*
X5767322Y109691D01*
X5772199Y108259D01*
X5776939Y106566D01*
X5781542Y104612D01*
X5786007Y102398D01*
X5790334Y99924D01*
X5794525Y97189D01*
X5798578Y94194D01*
X5802493Y90938D01*
X5806271Y87422D01*
X5809912Y83645D01*
X5813415Y79608D01*
X5816728Y75356D01*
X5819827Y70934D01*
X5822712Y66342D01*
X5825383Y61580D01*
X5827841Y56648D01*
X5830085Y51547D01*
X5832115Y46275D01*
X5833932Y40834D01*
X5835535Y35224D01*
X5836924Y29443D01*
X5838099Y23492D01*
X5839061Y17372D01*
X5839809Y11082D01*
X5840343Y4622D01*
X5840664Y-2008D01*
X5840771Y-8808D01*
X5840771Y-207500D01*
X5899755Y-207500D01*
X5899755Y159842D01*
G37*
G36*
X5400539Y167443D02*
G01*
X5409014Y166799D01*
X5417277Y165726D01*
X5425329Y164223D01*
X5433168Y162291D01*
X5440796Y159930D01*
X5448212Y157139D01*
X5455416Y153919D01*
X5462409Y150270D01*
X5469189Y146191D01*
X5475758Y141683D01*
X5482115Y136746D01*
X5488260Y131379D01*
X5494194Y125583D01*
X5499915Y119358D01*
X5505425Y112703D01*
X5510660Y105715D01*
X5515557Y98460D01*
X5520117Y90939D01*
X5524339Y83149D01*
X5528223Y75093D01*
X5531769Y66770D01*
X5534978Y58179D01*
X5537848Y49322D01*
X5540381Y40197D01*
X5542577Y30805D01*
X5543548Y26009D01*
X5544434Y21146D01*
X5545236Y16216D01*
X5545954Y11220D01*
X5546587Y6157D01*
X5547136Y1027D01*
X5547601Y-4170D01*
X5547981Y-9434D01*
X5548276Y-14764D01*
X5548487Y-20161D01*
X5548614Y-25625D01*
X5548656Y-31156D01*
X5548614Y-36557D01*
X5548486Y-41890D01*
X5548273Y-47157D01*
X5547975Y-52356D01*
X5547592Y-57487D01*
X5547123Y-62552D01*
X5546570Y-67549D01*
X5545931Y-72479D01*
X5544399Y-82137D01*
X5542525Y-91526D01*
X5540311Y-100646D01*
X5537757Y-109497D01*
X5534862Y-118079D01*
X5531626Y-126392D01*
X5528050Y-134436D01*
X5524133Y-142210D01*
X5519875Y-149716D01*
X5515277Y-156953D01*
X5510338Y-163920D01*
X5505059Y-170619D01*
X5499527Y-176978D01*
X5493829Y-182926D01*
X5487967Y-188465D01*
X5481940Y-193593D01*
X5475747Y-198311D01*
X5469390Y-202618D01*
X5462867Y-206516D01*
X5456180Y-210003D01*
X5449327Y-213080D01*
X5442309Y-215747D01*
X5435127Y-218003D01*
X5427779Y-219849D01*
X5420266Y-221285D01*
X5412588Y-222311D01*
X5404745Y-222926D01*
X5396737Y-223131D01*
X5392464Y-223070D01*
X5386172Y-222749D01*
X5380022Y-222154D01*
X5374013Y-221284D01*
X5368146Y-220139D01*
X5362421Y-218719D01*
X5356838Y-217025D01*
X5351396Y-215056D01*
X5346096Y-212812D01*
X5340937Y-210293D01*
X5335921Y-207500D01*
X5330990Y-204418D01*
X5326089Y-200988D01*
X5321218Y-197211D01*
X5316377Y-193085D01*
X5311567Y-188612D01*
X5306786Y-183792D01*
X5302035Y-178623D01*
X5297315Y-173107D01*
X5294185Y-169236D01*
X5291068Y-165211D01*
X5287964Y-161031D01*
X5284874Y-156697D01*
X5284874Y-176481D01*
X5284959Y-185208D01*
X5285215Y-193652D01*
X5285642Y-201813D01*
X5286240Y-209690D01*
X5287009Y-217284D01*
X5287948Y-224595D01*
X5289058Y-231622D01*
X5290339Y-238366D01*
X5291790Y-244826D01*
X5293413Y-251003D01*
X5295206Y-256897D01*
X5297170Y-262508D01*
X5299305Y-267835D01*
X5301610Y-272878D01*
X5304086Y-277639D01*
X5306734Y-282116D01*
X5309597Y-286330D01*
X5312752Y-290273D01*
X5316199Y-293944D01*
X5319938Y-297343D01*
X5323969Y-300470D01*
X5328292Y-303325D01*
X5332907Y-305908D01*
X5337813Y-308219D01*
X5343012Y-310258D01*
X5348503Y-312026D01*
X5354286Y-313521D01*
X5360360Y-314745D01*
X5366727Y-315697D01*
X5373385Y-316376D01*
X5380336Y-316784D01*
X5387578Y-316920D01*
X5397244Y-316676D01*
X5406366Y-315943D01*
X5414944Y-314722D01*
X5422978Y-313012D01*
X5430468Y-310814D01*
X5437415Y-308128D01*
X5443818Y-304952D01*
X5449677Y-301289D01*
X5454992Y-297137D01*
X5459763Y-292496D01*
X5463991Y-287367D01*
X5467674Y-281749D01*
X5470814Y-275643D01*
X5473410Y-269049D01*
X5475462Y-261966D01*
X5476971Y-254394D01*
X5536688Y-254394D01*
X5535945Y-260719D01*
X5534938Y-266870D01*
X5533667Y-272847D01*
X5532132Y-278650D01*
X5530332Y-284280D01*
X5528268Y-289737D01*
X5525939Y-295020D01*
X5523346Y-300129D01*
X5520489Y-305064D01*
X5517368Y-309826D01*
X5513983Y-314414D01*
X5510333Y-318828D01*
X5506419Y-323069D01*
X5502240Y-327137D01*
X5497798Y-331030D01*
X5493091Y-334750D01*
X5488150Y-338270D01*
X5483006Y-341562D01*
X5477659Y-344628D01*
X5472109Y-347466D01*
X5466355Y-350077D01*
X5460399Y-352461D01*
X5454239Y-354619D01*
X5447875Y-356549D01*
X5441309Y-358252D01*
X5434539Y-359728D01*
X5427567Y-360977D01*
X5420390Y-361998D01*
X5413011Y-362793D01*
X5405429Y-363361D01*
X5397643Y-363701D01*
X5389654Y-363815D01*
X5386466Y-363800D01*
X5380195Y-363684D01*
X5374064Y-363451D01*
X5368073Y-363102D01*
X5362223Y-362636D01*
X5356513Y-362054D01*
X5350943Y-361356D01*
X5345513Y-360541D01*
X5340224Y-359610D01*
X5335075Y-358563D01*
X5330066Y-357399D01*
X5325197Y-356118D01*
X5318157Y-353979D01*
X5311433Y-351579D01*
X5305024Y-348916D01*
X5300906Y-347008D01*
X5294973Y-343917D01*
X5289331Y-340551D01*
X5283982Y-336910D01*
X5278924Y-332995D01*
X5274159Y-328804D01*
X5269685Y-324339D01*
X5265503Y-319599D01*
X5261614Y-314585D01*
X5258016Y-309295D01*
X5254710Y-303731D01*
X5252644Y-299924D01*
X5249700Y-294136D01*
X5246940Y-288252D01*
X5244365Y-282275D01*
X5241974Y-276202D01*
X5239768Y-270036D01*
X5237746Y-263775D01*
X5235910Y-257419D01*
X5234257Y-250969D01*
X5232790Y-244425D01*
X5231507Y-237786D01*
X5230372Y-230969D01*
X5229349Y-223845D01*
X5228729Y-218925D01*
X5228158Y-213869D01*
X5227637Y-208677D01*
X5227166Y-203348D01*
X5226744Y-197882D01*
X5226372Y-192281D01*
X5226049Y-186542D01*
X5225777Y-180668D01*
X5225553Y-174656D01*
X5225380Y-168509D01*
X5225256Y-162225D01*
X5225181Y-155804D01*
X5225156Y-149248D01*
X5225156Y-29813D01*
X5284874Y-29813D01*
X5284978Y-37809D01*
X5285292Y-45587D01*
X5285814Y-53147D01*
X5286545Y-60488D01*
X5287486Y-67611D01*
X5288635Y-74515D01*
X5289993Y-81201D01*
X5291560Y-87668D01*
X5293336Y-93917D01*
X5295321Y-99947D01*
X5297515Y-105759D01*
X5299918Y-111352D01*
X5302529Y-116727D01*
X5305350Y-121883D01*
X5308380Y-126821D01*
X5311618Y-131540D01*
X5315038Y-136006D01*
X5318612Y-140184D01*
X5322339Y-144074D01*
X5326220Y-147675D01*
X5330254Y-150989D01*
X5334442Y-154014D01*
X5338783Y-156751D01*
X5343278Y-159200D01*
X5347927Y-161361D01*
X5352729Y-163234D01*
X5357685Y-164819D01*
X5362795Y-166116D01*
X5368058Y-167124D01*
X5373475Y-167844D01*
X5379045Y-168277D01*
X5384769Y-168421D01*
X5390673Y-168274D01*
X5396418Y-167833D01*
X5402004Y-167098D01*
X5407430Y-166070D01*
X5412697Y-164747D01*
X5417805Y-163131D01*
X5422753Y-161221D01*
X5427542Y-159017D01*
X5432172Y-156520D01*
X5436642Y-153728D01*
X5440953Y-150642D01*
X5445105Y-147263D01*
X5449097Y-143590D01*
X5452930Y-139623D01*
X5456604Y-135362D01*
X5460118Y-130807D01*
X5463431Y-125997D01*
X5466529Y-120969D01*
X5469415Y-115723D01*
X5472086Y-110260D01*
X5474544Y-104580D01*
X5476788Y-98682D01*
X5478818Y-92566D01*
X5480634Y-86233D01*
X5482237Y-79682D01*
X5483626Y-72914D01*
X5484802Y-65928D01*
X5485764Y-58725D01*
X5486512Y-51304D01*
X5487046Y-43666D01*
X5487366Y-35810D01*
X5487473Y-27737D01*
X5487366Y-19736D01*
X5487046Y-11947D01*
X5486512Y-4368D01*
X5485764Y3000D01*
X5484802Y10157D01*
X5483626Y17103D01*
X5482237Y23838D01*
X5480634Y30363D01*
X5478818Y36676D01*
X5476788Y42779D01*
X5474544Y48671D01*
X5472086Y54352D01*
X5469415Y59822D01*
X5466529Y65081D01*
X5463431Y70130D01*
X5460118Y74967D01*
X5456607Y79566D01*
X5452942Y83869D01*
X5449123Y87875D01*
X5445151Y91583D01*
X5441025Y94996D01*
X5436745Y98111D01*
X5432312Y100930D01*
X5427725Y103452D01*
X5422985Y105678D01*
X5418091Y107606D01*
X5413044Y109238D01*
X5407842Y110573D01*
X5402488Y111612D01*
X5396979Y112354D01*
X5391317Y112799D01*
X5385502Y112947D01*
X5379602Y112800D01*
X5373870Y112359D01*
X5368306Y111625D01*
X5362909Y110596D01*
X5357681Y109274D01*
X5352621Y107658D01*
X5347728Y105748D01*
X5343004Y103544D01*
X5338447Y101046D01*
X5334058Y98254D01*
X5329837Y95169D01*
X5325785Y91790D01*
X5321900Y88116D01*
X5318182Y84149D01*
X5314633Y79888D01*
X5311252Y75334D01*
X5308058Y70515D01*
X5305070Y65463D01*
X5302288Y60177D01*
X5299712Y54657D01*
X5297342Y48903D01*
X5295178Y42916D01*
X5293220Y36695D01*
X5291468Y30240D01*
X5289923Y23552D01*
X5288583Y16630D01*
X5287450Y9474D01*
X5286522Y2084D01*
X5285801Y-5540D01*
X5285286Y-13397D01*
X5284977Y-21488D01*
X5284874Y-29813D01*
X5225156Y-29813D01*
X5225156Y159842D01*
X5286339Y159842D01*
X5279256Y103300D01*
X5284805Y111093D01*
X5290552Y118383D01*
X5296498Y125171D01*
X5302643Y131456D01*
X5308985Y137238D01*
X5315526Y142518D01*
X5322266Y147294D01*
X5329204Y151568D01*
X5336340Y155339D01*
X5343675Y158607D01*
X5351209Y161373D01*
X5358940Y163635D01*
X5366871Y165395D01*
X5374999Y166652D01*
X5383327Y167406D01*
X5391852Y167658D01*
X5400539Y167443D01*
G37*
G36*
X10606315Y-1047500D02*
G01*
X10659071Y-1047500D01*
X10659071Y-992545D01*
X10662331Y-997237D01*
X10665609Y-1001757D01*
X10668903Y-1006106D01*
X10672215Y-1010283D01*
X10675543Y-1014288D01*
X10678889Y-1018122D01*
X10682252Y-1021783D01*
X10687329Y-1026954D01*
X10692445Y-1031738D01*
X10697599Y-1036136D01*
X10702792Y-1040147D01*
X10708023Y-1043772D01*
X10713293Y-1047011D01*
X10718671Y-1049892D01*
X10724273Y-1052489D01*
X10730097Y-1054803D01*
X10736145Y-1056834D01*
X10742416Y-1058582D01*
X10748911Y-1060046D01*
X10755628Y-1061226D01*
X10762569Y-1062124D01*
X10769733Y-1062737D01*
X10774633Y-1062989D01*
X10779633Y-1063115D01*
X10782170Y-1063131D01*
X10788772Y-1063025D01*
X10795206Y-1062706D01*
X10801472Y-1062174D01*
X10807571Y-1061429D01*
X10813501Y-1060472D01*
X10819264Y-1059301D01*
X10824859Y-1057918D01*
X10830286Y-1056323D01*
X10835544Y-1054514D01*
X10840635Y-1052493D01*
X10845558Y-1050259D01*
X10850313Y-1047812D01*
X10854901Y-1045153D01*
X10859320Y-1042281D01*
X10863571Y-1039196D01*
X10867655Y-1035898D01*
X10871529Y-1032407D01*
X10875154Y-1028775D01*
X10878528Y-1025000D01*
X10881653Y-1021083D01*
X10884527Y-1017024D01*
X10887152Y-1012823D01*
X10889527Y-1008479D01*
X10891652Y-1003994D01*
X10893526Y-999366D01*
X10895151Y-994596D01*
X10896526Y-989684D01*
X10897651Y-984630D01*
X10898526Y-979434D01*
X10899151Y-974095D01*
X10899526Y-968614D01*
X10899650Y-962991D01*
X10899650Y-680158D01*
X10841276Y-680158D01*
X10841276Y-937102D01*
X10841097Y-943078D01*
X10840559Y-948824D01*
X10839663Y-954341D01*
X10838409Y-959627D01*
X10836795Y-964685D01*
X10834824Y-969512D01*
X10832493Y-974110D01*
X10829805Y-978478D01*
X10826757Y-982616D01*
X10823352Y-986525D01*
X10820882Y-989003D01*
X10816928Y-992473D01*
X10812715Y-995602D01*
X10808242Y-998390D01*
X10803508Y-1000836D01*
X10798516Y-1002941D01*
X10793263Y-1004704D01*
X10787751Y-1006126D01*
X10781979Y-1007207D01*
X10775947Y-1007947D01*
X10769656Y-1008345D01*
X10765317Y-1008421D01*
X10759679Y-1008289D01*
X10754185Y-1007896D01*
X10748833Y-1007240D01*
X10743625Y-1006322D01*
X10738560Y-1005141D01*
X10733638Y-1003698D01*
X10728859Y-1001993D01*
X10724223Y-1000025D01*
X10719730Y-997795D01*
X10715381Y-995302D01*
X10711174Y-992547D01*
X10707111Y-989530D01*
X10703191Y-986250D01*
X10699413Y-982708D01*
X10695779Y-978904D01*
X10692288Y-974837D01*
X10688961Y-970554D01*
X10685848Y-966100D01*
X10682950Y-961475D01*
X10680267Y-956679D01*
X10677798Y-951713D01*
X10675544Y-946576D01*
X10673505Y-941268D01*
X10671680Y-935789D01*
X10670070Y-930139D01*
X10668675Y-924319D01*
X10667494Y-918328D01*
X10666528Y-912166D01*
X10665777Y-905833D01*
X10665240Y-899330D01*
X10664918Y-892656D01*
X10664811Y-885811D01*
X10664811Y-680158D01*
X10606315Y-680158D01*
X10606315Y-1047500D01*
G37*
G36*
X10529378Y-680158D02*
G01*
X10475279Y-680158D01*
X10475279Y-747691D01*
X10472180Y-742757D01*
X10469052Y-738000D01*
X10465895Y-733419D01*
X10462708Y-729014D01*
X10459491Y-724786D01*
X10456245Y-720735D01*
X10452969Y-716860D01*
X10449664Y-713162D01*
X10444650Y-707945D01*
X10439570Y-703125D01*
X10434423Y-698703D01*
X10429210Y-694677D01*
X10423930Y-691049D01*
X10422156Y-689928D01*
X10416712Y-686785D01*
X10411052Y-683952D01*
X10405175Y-681427D01*
X10399080Y-679212D01*
X10392770Y-677306D01*
X10386242Y-675708D01*
X10379498Y-674420D01*
X10372536Y-673442D01*
X10365358Y-672772D01*
X10360452Y-672497D01*
X10355450Y-672360D01*
X10352913Y-672342D01*
X10346312Y-672449D01*
X10339882Y-672768D01*
X10333623Y-673300D01*
X10327535Y-674045D01*
X10321617Y-675002D01*
X10315870Y-676172D01*
X10310294Y-677555D01*
X10304889Y-679151D01*
X10299654Y-680959D01*
X10294590Y-682980D01*
X10289697Y-685214D01*
X10284975Y-687661D01*
X10280424Y-690321D01*
X10276043Y-693193D01*
X10271833Y-696278D01*
X10267794Y-699576D01*
X10263949Y-703035D01*
X10260352Y-706636D01*
X10257004Y-710378D01*
X10253903Y-714261D01*
X10251050Y-718285D01*
X10248446Y-722450D01*
X10246089Y-726757D01*
X10243981Y-731205D01*
X10242120Y-735794D01*
X10240508Y-740524D01*
X10239143Y-745396D01*
X10238027Y-750409D01*
X10237159Y-755563D01*
X10236539Y-760858D01*
X10236167Y-766294D01*
X10236043Y-771871D01*
X10236043Y-1047500D01*
X10294539Y-1047500D01*
X10294539Y-797883D01*
X10294718Y-791931D01*
X10295256Y-786211D01*
X10296152Y-780723D01*
X10297407Y-775466D01*
X10299020Y-770442D01*
X10300992Y-765649D01*
X10303322Y-761088D01*
X10306011Y-756759D01*
X10309058Y-752662D01*
X10312463Y-748796D01*
X10314933Y-746348D01*
X10318887Y-742900D01*
X10323100Y-739791D01*
X10327574Y-737021D01*
X10332307Y-734590D01*
X10337300Y-732498D01*
X10342552Y-730746D01*
X10348064Y-729333D01*
X10353836Y-728259D01*
X10359868Y-727524D01*
X10366160Y-727128D01*
X10370498Y-727053D01*
X10376063Y-727183D01*
X10381489Y-727574D01*
X10386779Y-728225D01*
X10391931Y-729137D01*
X10396945Y-730309D01*
X10401823Y-731741D01*
X10406562Y-733434D01*
X10411165Y-735388D01*
X10415630Y-737602D01*
X10419958Y-740076D01*
X10424148Y-742811D01*
X10428201Y-745806D01*
X10432116Y-749062D01*
X10435894Y-752578D01*
X10439535Y-756355D01*
X10443038Y-760392D01*
X10446351Y-764644D01*
X10449450Y-769066D01*
X10452335Y-773658D01*
X10455006Y-778420D01*
X10457464Y-783352D01*
X10459708Y-788453D01*
X10461738Y-793725D01*
X10463555Y-799166D01*
X10465158Y-804776D01*
X10466547Y-810557D01*
X10467722Y-816508D01*
X10468684Y-822628D01*
X10469432Y-828918D01*
X10469966Y-835378D01*
X10470287Y-842008D01*
X10470394Y-848808D01*
X10470394Y-1047500D01*
X10529378Y-1047500D01*
X10529378Y-680158D01*
G37*
G36*
X10095847Y-680158D02*
G01*
X10095847Y-1047500D01*
X10154221Y-1047500D01*
X10154221Y-680158D01*
X10095847Y-680158D01*
G37*
G36*
X10095847Y-531659D02*
G01*
X10095847Y-602001D01*
X10154954Y-602001D01*
X10154954Y-531659D01*
X10095847Y-531659D01*
G37*
G36*
X9852337Y-1047500D02*
G01*
X9916451Y-1047500D01*
X10045777Y-680158D01*
X9979710Y-680158D01*
X9881280Y-978135D01*
X9777110Y-680158D01*
X9711043Y-680158D01*
X9852337Y-1047500D01*
G37*
G36*
X9532442Y-672554D02*
G01*
X9541670Y-673188D01*
X9550658Y-674244D01*
X9559406Y-675724D01*
X9567915Y-677626D01*
X9576184Y-679950D01*
X9584214Y-682698D01*
X9592005Y-685867D01*
X9599556Y-689460D01*
X9606867Y-693475D01*
X9613939Y-697913D01*
X9620772Y-702774D01*
X9627365Y-708057D01*
X9633719Y-713763D01*
X9639833Y-719891D01*
X9645708Y-726442D01*
X9651283Y-733326D01*
X9656498Y-740484D01*
X9661354Y-747916D01*
X9665850Y-755622D01*
X9669986Y-763601D01*
X9673763Y-771854D01*
X9677180Y-780381D01*
X9680238Y-789182D01*
X9682935Y-798257D01*
X9685273Y-807605D01*
X9686307Y-812382D01*
X9687251Y-817228D01*
X9688106Y-822141D01*
X9688870Y-827124D01*
X9689544Y-832175D01*
X9690129Y-837294D01*
X9690623Y-842481D01*
X9691028Y-847737D01*
X9691343Y-853062D01*
X9691568Y-858455D01*
X9691703Y-863917D01*
X9691747Y-869446D01*
X9691704Y-874967D01*
X9691572Y-880417D01*
X9691353Y-885795D01*
X9691045Y-891102D01*
X9690650Y-896338D01*
X9690168Y-901502D01*
X9689597Y-906595D01*
X9688939Y-911617D01*
X9688193Y-916567D01*
X9687359Y-921446D01*
X9685428Y-930990D01*
X9683146Y-940249D01*
X9680512Y-949222D01*
X9677528Y-957911D01*
X9674193Y-966314D01*
X9670506Y-974431D01*
X9666468Y-982264D01*
X9662080Y-989811D01*
X9657340Y-997073D01*
X9652249Y-1004050D01*
X9646807Y-1010741D01*
X9641048Y-1017085D01*
X9635035Y-1023020D01*
X9628771Y-1028545D01*
X9622253Y-1033662D01*
X9615482Y-1038369D01*
X9608459Y-1042666D01*
X9601183Y-1046554D01*
X9593653Y-1050034D01*
X9585872Y-1053103D01*
X9577837Y-1055764D01*
X9569549Y-1058015D01*
X9561009Y-1059857D01*
X9552216Y-1061289D01*
X9543170Y-1062312D01*
X9533871Y-1062926D01*
X9524319Y-1063131D01*
X9516497Y-1063002D01*
X9508844Y-1062616D01*
X9501361Y-1061972D01*
X9494048Y-1061070D01*
X9486905Y-1059911D01*
X9479932Y-1058494D01*
X9473128Y-1056820D01*
X9466495Y-1054888D01*
X9460031Y-1052698D01*
X9453737Y-1050251D01*
X9447612Y-1047546D01*
X9441658Y-1044584D01*
X9435874Y-1041364D01*
X9430259Y-1037886D01*
X9424814Y-1034151D01*
X9419539Y-1030158D01*
X9414467Y-1025935D01*
X9409632Y-1021507D01*
X9405033Y-1016875D01*
X9400671Y-1012038D01*
X9396546Y-1006998D01*
X9392657Y-1001754D01*
X9389005Y-996305D01*
X9385589Y-990652D01*
X9382410Y-984795D01*
X9379468Y-978734D01*
X9376762Y-972468D01*
X9374293Y-965999D01*
X9372060Y-959325D01*
X9370064Y-952447D01*
X9368305Y-945365D01*
X9366782Y-938079D01*
X9425889Y-938079D01*
X9429156Y-946597D01*
X9432791Y-954565D01*
X9436793Y-961984D01*
X9441162Y-968853D01*
X9445898Y-975173D01*
X9451002Y-980943D01*
X9456473Y-986164D01*
X9462312Y-990835D01*
X9468518Y-994957D01*
X9475091Y-998529D01*
X9482031Y-1001551D01*
X9489339Y-1004024D01*
X9497014Y-1005948D01*
X9505056Y-1007322D01*
X9513466Y-1008146D01*
X9522243Y-1008421D01*
X9528402Y-1008288D01*
X9534394Y-1007888D01*
X9540218Y-1007223D01*
X9545873Y-1006291D01*
X9551361Y-1005093D01*
X9556681Y-1003629D01*
X9561833Y-1001899D01*
X9566817Y-999903D01*
X9571633Y-997640D01*
X9576282Y-995111D01*
X9580762Y-992316D01*
X9585074Y-989255D01*
X9589219Y-985928D01*
X9593195Y-982334D01*
X9597004Y-978475D01*
X9600645Y-974349D01*
X9604096Y-970001D01*
X9607337Y-965474D01*
X9610366Y-960769D01*
X9613185Y-955886D01*
X9615793Y-950824D01*
X9618190Y-945583D01*
X9620377Y-940165D01*
X9622352Y-934568D01*
X9624117Y-928792D01*
X9625670Y-922838D01*
X9627013Y-916706D01*
X9628145Y-910395D01*
X9629066Y-903906D01*
X9629777Y-897239D01*
X9630276Y-890393D01*
X9630565Y-883368D01*
X9359089Y-883368D01*
X9359249Y-870385D01*
X9359729Y-857814D01*
X9360529Y-845656D01*
X9361404Y-836474D01*
X9421615Y-836474D01*
X9629221Y-836474D01*
X9628680Y-830309D01*
X9627941Y-824304D01*
X9627005Y-818456D01*
X9625871Y-812767D01*
X9624539Y-807236D01*
X9623010Y-801864D01*
X9621284Y-796650D01*
X9619360Y-791594D01*
X9617239Y-786697D01*
X9614920Y-781958D01*
X9612403Y-777377D01*
X9609690Y-772955D01*
X9606778Y-768692D01*
X9603669Y-764586D01*
X9600363Y-760639D01*
X9596859Y-756851D01*
X9593196Y-753242D01*
X9589412Y-749867D01*
X9585506Y-746724D01*
X9581479Y-743814D01*
X9577332Y-741137D01*
X9573063Y-738693D01*
X9568672Y-736481D01*
X9564161Y-734502D01*
X9559529Y-732756D01*
X9554775Y-731243D01*
X9549900Y-729963D01*
X9544904Y-728915D01*
X9539787Y-728100D01*
X9534549Y-727518D01*
X9529189Y-727169D01*
X9523708Y-727053D01*
X9518228Y-727176D01*
X9512868Y-727545D01*
X9507630Y-728161D01*
X9502513Y-729022D01*
X9497517Y-730130D01*
X9492642Y-731484D01*
X9487888Y-733084D01*
X9483256Y-734930D01*
X9478744Y-737022D01*
X9474354Y-739360D01*
X9470085Y-741945D01*
X9465937Y-744776D01*
X9461911Y-747853D01*
X9458005Y-751176D01*
X9454221Y-754745D01*
X9450558Y-758560D01*
X9447053Y-762543D01*
X9443774Y-766643D01*
X9440722Y-770862D01*
X9437895Y-775199D01*
X9435295Y-779655D01*
X9432921Y-784229D01*
X9430773Y-788921D01*
X9428851Y-793731D01*
X9427155Y-798660D01*
X9425685Y-803707D01*
X9424441Y-808872D01*
X9423424Y-814156D01*
X9422632Y-819558D01*
X9422067Y-825078D01*
X9421728Y-830717D01*
X9421615Y-836474D01*
X9361404Y-836474D01*
X9361649Y-833909D01*
X9363090Y-822575D01*
X9364850Y-811653D01*
X9366931Y-801142D01*
X9369332Y-791045D01*
X9372052Y-781359D01*
X9375093Y-772085D01*
X9378454Y-763224D01*
X9382135Y-754774D01*
X9386136Y-746737D01*
X9390458Y-739112D01*
X9395099Y-731900D01*
X9400060Y-725099D01*
X9405342Y-718710D01*
X9410944Y-712734D01*
X9416865Y-707170D01*
X9423107Y-702018D01*
X9429669Y-697278D01*
X9436551Y-692950D01*
X9443753Y-689035D01*
X9451275Y-685532D01*
X9459117Y-682440D01*
X9467280Y-679761D01*
X9475762Y-677494D01*
X9484565Y-675640D01*
X9493687Y-674197D01*
X9503130Y-673167D01*
X9512893Y-672549D01*
X9522976Y-672342D01*
X9532442Y-672554D01*
G37*
G36*
X9121685Y-727053D02*
G01*
X9128958Y-727333D01*
X9136000Y-727807D01*
X9142811Y-728474D01*
X9149391Y-729335D01*
X9155740Y-730390D01*
X9161859Y-731638D01*
X9167746Y-733080D01*
X9173403Y-734716D01*
X9178829Y-736545D01*
X9184024Y-738569D01*
X9188988Y-740785D01*
X9193721Y-743196D01*
X9198223Y-745800D01*
X9202495Y-748598D01*
X9206535Y-751589D01*
X9210345Y-754774D01*
X9213924Y-758240D01*
X9217271Y-762071D01*
X9220388Y-766269D01*
X9223274Y-770833D01*
X9225930Y-775764D01*
X9228354Y-781061D01*
X9230547Y-786724D01*
X9232510Y-792754D01*
X9234242Y-799150D01*
X9235742Y-805913D01*
X9237012Y-813042D01*
X9238051Y-820537D01*
X9238859Y-828398D01*
X9239436Y-836626D01*
X9239783Y-845221D01*
X9239898Y-854181D01*
X9239898Y-1047500D01*
X9298883Y-1047500D01*
X9298883Y-680158D01*
X9244783Y-680158D01*
X9244783Y-742684D01*
X9241630Y-738051D01*
X9238490Y-733586D01*
X9235364Y-729289D01*
X9232250Y-725160D01*
X9229151Y-721199D01*
X9226064Y-717405D01*
X9221460Y-712030D01*
X9216885Y-707033D01*
X9212341Y-702413D01*
X9207826Y-698171D01*
X9203342Y-694307D01*
X9198887Y-690821D01*
X9195935Y-688707D01*
X9191474Y-685782D01*
X9186933Y-683145D01*
X9182310Y-680796D01*
X9177605Y-678735D01*
X9172818Y-676961D01*
X9167951Y-675475D01*
X9163001Y-674276D01*
X9157970Y-673365D01*
X9152857Y-672742D01*
X9147663Y-672406D01*
X9144155Y-672342D01*
X9139267Y-672487D01*
X9133981Y-672859D01*
X9128630Y-673373D01*
X9123504Y-673952D01*
X9121685Y-674174D01*
X9121685Y-727053D01*
G37*
G36*
X9026674Y-938079D02*
G01*
X9025747Y-944030D01*
X9024569Y-949747D01*
X9023140Y-955229D01*
X9021459Y-960478D01*
X9019528Y-965493D01*
X9017345Y-970274D01*
X9014911Y-974821D01*
X9012226Y-979134D01*
X9009289Y-983213D01*
X9006102Y-987058D01*
X9003838Y-989492D01*
X9000072Y-992875D01*
X8995783Y-995925D01*
X8990970Y-998642D01*
X8985634Y-1001027D01*
X8979773Y-1003078D01*
X8973389Y-1004798D01*
X8966481Y-1006184D01*
X8961585Y-1006923D01*
X8956456Y-1007515D01*
X8951094Y-1007959D01*
X8945499Y-1008254D01*
X8939672Y-1008402D01*
X8936671Y-1008421D01*
X8929545Y-1008283D01*
X8922686Y-1007871D01*
X8916093Y-1007184D01*
X8909766Y-1006222D01*
X8903705Y-1004986D01*
X8897911Y-1003475D01*
X8892382Y-1001689D01*
X8887120Y-999628D01*
X8882124Y-997292D01*
X8877394Y-994682D01*
X8874389Y-992789D01*
X8870177Y-989747D01*
X8866379Y-986529D01*
X8861960Y-981965D01*
X8858277Y-977088D01*
X8855331Y-971898D01*
X8853121Y-966395D01*
X8851648Y-960579D01*
X8850911Y-954450D01*
X8850819Y-951268D01*
X8851029Y-946360D01*
X8851882Y-940590D01*
X8853391Y-935226D01*
X8855555Y-930267D01*
X8858376Y-925714D01*
X8861852Y-921566D01*
X8864253Y-919272D01*
X8868827Y-915689D01*
X8873083Y-912995D01*
X8877870Y-910454D01*
X8883187Y-908065D01*
X8889034Y-905828D01*
X8893768Y-904251D01*
X8898800Y-902760D01*
X8904131Y-901355D01*
X8907850Y-900465D01*
X8962683Y-887154D01*
X8970709Y-885246D01*
X8978425Y-883279D01*
X8985829Y-881251D01*
X8992923Y-879163D01*
X8999705Y-877015D01*
X9006177Y-874806D01*
X9012337Y-872538D01*
X9018187Y-870210D01*
X9023725Y-867821D01*
X9028953Y-865373D01*
X9033869Y-862864D01*
X9038474Y-860295D01*
X9042768Y-857666D01*
X9048627Y-853610D01*
X9053785Y-849419D01*
X9058368Y-844966D01*
X9062501Y-840172D01*
X9066182Y-835037D01*
X9069413Y-829560D01*
X9072193Y-823743D01*
X9074522Y-817583D01*
X9076400Y-811083D01*
X9077828Y-804241D01*
X9078805Y-797058D01*
X9079205Y-792080D01*
X9079406Y-786950D01*
X9079431Y-784328D01*
X9079280Y-778028D01*
X9078828Y-771889D01*
X9078074Y-765911D01*
X9077019Y-760094D01*
X9075662Y-754439D01*
X9074004Y-748945D01*
X9072044Y-743612D01*
X9069783Y-738441D01*
X9067220Y-733430D01*
X9064356Y-728581D01*
X9061191Y-723893D01*
X9057724Y-719367D01*
X9053955Y-715002D01*
X9049885Y-710797D01*
X9045513Y-706754D01*
X9040840Y-702873D01*
X9035902Y-699176D01*
X9030767Y-695717D01*
X9025434Y-692497D01*
X9019904Y-689516D01*
X9014176Y-686773D01*
X9008251Y-684268D01*
X9002128Y-682002D01*
X8995808Y-679975D01*
X8989290Y-678186D01*
X8982575Y-676636D01*
X8975662Y-675324D01*
X8968552Y-674251D01*
X8961244Y-673416D01*
X8953739Y-672820D01*
X8946036Y-672462D01*
X8938136Y-672342D01*
X8930238Y-672454D01*
X8922571Y-672789D01*
X8915137Y-673347D01*
X8907934Y-674129D01*
X8900963Y-675133D01*
X8894224Y-676361D01*
X8887717Y-677812D01*
X8881441Y-679487D01*
X8875398Y-681384D01*
X8869586Y-683505D01*
X8864006Y-685849D01*
X8858658Y-688417D01*
X8853542Y-691207D01*
X8848657Y-694221D01*
X8844005Y-697458D01*
X8839584Y-700919D01*
X8835411Y-704569D01*
X8831501Y-708406D01*
X8827855Y-712431D01*
X8824472Y-716642D01*
X8821352Y-721040D01*
X8818495Y-725626D01*
X8815902Y-730398D01*
X8813572Y-735357D01*
X8811506Y-740503D01*
X8809703Y-745837D01*
X8808163Y-751357D01*
X8806886Y-757064D01*
X8805873Y-762958D01*
X8805123Y-769040D01*
X8804636Y-775308D01*
X8804413Y-781763D01*
X8866329Y-781763D01*
X8866861Y-775138D01*
X8867937Y-768941D01*
X8869559Y-763170D01*
X8871725Y-757827D01*
X8874436Y-752912D01*
X8877692Y-748424D01*
X8881492Y-744364D01*
X8885838Y-740730D01*
X8890728Y-737525D01*
X8896163Y-734747D01*
X8902142Y-732396D01*
X8908667Y-730472D01*
X8915736Y-728976D01*
X8923350Y-727908D01*
X8931509Y-727267D01*
X8940212Y-727053D01*
X8946792Y-727184D01*
X8953115Y-727577D01*
X8959180Y-728231D01*
X8964988Y-729148D01*
X8970537Y-730327D01*
X8975830Y-731767D01*
X8980864Y-733469D01*
X8985641Y-735433D01*
X8990161Y-737660D01*
X8994423Y-740148D01*
X8997121Y-741952D01*
X9002072Y-745833D01*
X9006364Y-750027D01*
X9009995Y-754534D01*
X9012966Y-759354D01*
X9015277Y-764487D01*
X9016927Y-769933D01*
X9017918Y-775692D01*
X9018248Y-781763D01*
X9017854Y-787652D01*
X9016674Y-793184D01*
X9014706Y-798357D01*
X9011951Y-803173D01*
X9008409Y-807631D01*
X9004080Y-811731D01*
X9002128Y-813271D01*
X8997760Y-816234D01*
X8992778Y-819079D01*
X8987181Y-821806D01*
X8982581Y-823773D01*
X8977634Y-825674D01*
X8972342Y-827508D01*
X8966705Y-829276D01*
X8960722Y-830977D01*
X8954393Y-832612D01*
X8949982Y-833665D01*
X8893806Y-847098D01*
X8887056Y-848758D01*
X8880543Y-850502D01*
X8874267Y-852330D01*
X8868229Y-854242D01*
X8862429Y-856238D01*
X8856866Y-858318D01*
X8851541Y-860482D01*
X8846454Y-862730D01*
X8841603Y-865062D01*
X8836991Y-867477D01*
X8832616Y-869977D01*
X8826499Y-873884D01*
X8820917Y-877980D01*
X8815869Y-882264D01*
X8814305Y-883735D01*
X8809897Y-888296D01*
X8805922Y-893140D01*
X8802380Y-898268D01*
X8799273Y-903679D01*
X8796599Y-909373D01*
X8794358Y-915351D01*
X8792551Y-921612D01*
X8791178Y-928156D01*
X8790239Y-934984D01*
X8789733Y-942095D01*
X8789637Y-946994D01*
X8789797Y-953549D01*
X8790280Y-959937D01*
X8791083Y-966155D01*
X8792209Y-972204D01*
X8793656Y-978084D01*
X8795424Y-983796D01*
X8797514Y-989339D01*
X8799925Y-994713D01*
X8802658Y-999917D01*
X8805713Y-1004954D01*
X8809089Y-1009821D01*
X8812786Y-1014519D01*
X8816805Y-1019049D01*
X8821146Y-1023409D01*
X8825808Y-1027601D01*
X8830791Y-1031624D01*
X8836047Y-1035439D01*
X8841525Y-1039008D01*
X8847225Y-1042331D01*
X8853147Y-1045408D01*
X8859292Y-1048239D01*
X8865659Y-1050823D01*
X8872248Y-1053162D01*
X8879060Y-1055254D01*
X8886094Y-1057100D01*
X8893350Y-1058700D01*
X8900829Y-1060054D01*
X8908529Y-1061162D01*
X8916452Y-1062023D01*
X8924598Y-1062639D01*
X8932966Y-1063008D01*
X8941556Y-1063131D01*
X8950343Y-1063009D01*
X8958860Y-1062643D01*
X8967106Y-1062032D01*
X8975082Y-1061177D01*
X8982787Y-1060078D01*
X8990222Y-1058735D01*
X8997386Y-1057147D01*
X9004280Y-1055315D01*
X9010904Y-1053239D01*
X9017257Y-1050919D01*
X9023339Y-1048354D01*
X9029151Y-1045546D01*
X9034692Y-1042493D01*
X9039964Y-1039195D01*
X9044964Y-1035654D01*
X9049694Y-1031868D01*
X9054154Y-1027838D01*
X9058343Y-1023564D01*
X9062261Y-1019045D01*
X9065910Y-1014282D01*
X9069287Y-1009275D01*
X9072394Y-1004024D01*
X9075231Y-998529D01*
X9077797Y-992789D01*
X9080093Y-986805D01*
X9082118Y-980577D01*
X9083873Y-974105D01*
X9085357Y-967388D01*
X9086571Y-960427D01*
X9087515Y-953222D01*
X9088187Y-945772D01*
X9088590Y-938079D01*
X9026674Y-938079D01*
G37*
G36*
X8594892Y-672457D02*
G01*
X8603453Y-672800D01*
X8611741Y-673373D01*
X8619758Y-674174D01*
X8627503Y-675205D01*
X8634975Y-676464D01*
X8642176Y-677952D01*
X8649105Y-679670D01*
X8655762Y-681616D01*
X8662147Y-683791D01*
X8668261Y-686196D01*
X8674102Y-688829D01*
X8679671Y-691691D01*
X8684969Y-694782D01*
X8689995Y-698102D01*
X8694748Y-701652D01*
X8699230Y-705430D01*
X8703440Y-709437D01*
X8707378Y-713673D01*
X8711044Y-718138D01*
X8714438Y-722832D01*
X8717560Y-727755D01*
X8720410Y-732907D01*
X8722989Y-738288D01*
X8725295Y-743898D01*
X8727330Y-749737D01*
X8729092Y-755805D01*
X8730583Y-762102D01*
X8731802Y-768628D01*
X8732749Y-775382D01*
X8733424Y-782366D01*
X8733827Y-789579D01*
X8674720Y-789579D01*
X8674209Y-785616D01*
X8673184Y-779921D01*
X8671850Y-774528D01*
X8670208Y-769434D01*
X8668255Y-764641D01*
X8665994Y-760149D01*
X8663424Y-755957D01*
X8659516Y-750836D01*
X8655059Y-746249D01*
X8650052Y-742196D01*
X8645918Y-739490D01*
X8641438Y-737050D01*
X8636613Y-734876D01*
X8631442Y-732968D01*
X8625925Y-731327D01*
X8620063Y-729951D01*
X8613855Y-728842D01*
X8607302Y-727999D01*
X8600403Y-727423D01*
X8593158Y-727112D01*
X8588136Y-727053D01*
X8585696Y-727066D01*
X8578584Y-727263D01*
X8571786Y-727696D01*
X8565300Y-728365D01*
X8559129Y-729270D01*
X8553271Y-730411D01*
X8547726Y-731789D01*
X8542494Y-733402D01*
X8537576Y-735252D01*
X8532972Y-737338D01*
X8527320Y-740486D01*
X8522282Y-744033D01*
X8517916Y-747959D01*
X8514222Y-752261D01*
X8511200Y-756942D01*
X8508849Y-762001D01*
X8507170Y-767437D01*
X8506162Y-773251D01*
X8505826Y-779443D01*
X8505826Y-794342D01*
X8505944Y-797540D01*
X8506666Y-802532D01*
X8508398Y-807963D01*
X8511074Y-812784D01*
X8514694Y-816996D01*
X8519260Y-820598D01*
X8522920Y-822693D01*
X8528428Y-825108D01*
X8533582Y-826877D01*
X8539400Y-828501D01*
X8544199Y-829623D01*
X8549372Y-830665D01*
X8554918Y-831624D01*
X8560838Y-832502D01*
X8567131Y-833299D01*
X8570231Y-833792D01*
X8576070Y-834715D01*
X8581428Y-835555D01*
X8586305Y-836311D01*
X8591726Y-837137D01*
X8597238Y-837956D01*
X8602302Y-838672D01*
X8606365Y-839257D01*
X8611227Y-840006D01*
X8616887Y-840917D01*
X8622213Y-841802D01*
X8628095Y-842799D01*
X8633199Y-843679D01*
X8635790Y-844117D01*
X8641834Y-845176D01*
X8647258Y-846180D01*
X8652948Y-847315D01*
X8657745Y-848373D01*
X8662752Y-849663D01*
X8667431Y-851014D01*
X8672289Y-852509D01*
X8677020Y-854023D01*
X8682275Y-855752D01*
X8687055Y-857356D01*
X8690852Y-858707D01*
X8696018Y-860762D01*
X8700549Y-862852D01*
X8705032Y-865333D01*
X8709525Y-868592D01*
X8709948Y-868954D01*
X8714033Y-872501D01*
X8718086Y-876092D01*
X8721958Y-879572D01*
X8726133Y-883368D01*
X8728484Y-885622D01*
X8732157Y-889685D01*
X8735270Y-893900D01*
X8737821Y-898267D01*
X8739811Y-902786D01*
X8741209Y-906794D01*
X8742786Y-911764D01*
X8744305Y-917049D01*
X8745560Y-921830D01*
X8746772Y-926844D01*
X8747516Y-930307D01*
X8748446Y-935666D01*
X8749153Y-941223D01*
X8749637Y-946978D01*
X8749870Y-951924D01*
X8749947Y-957008D01*
X8749819Y-963006D01*
X8749436Y-968849D01*
X8748796Y-974539D01*
X8747902Y-980073D01*
X8746751Y-985453D01*
X8745345Y-990679D01*
X8743683Y-995750D01*
X8741765Y-1000666D01*
X8739592Y-1005428D01*
X8737162Y-1010035D01*
X8734478Y-1014488D01*
X8731537Y-1018786D01*
X8728341Y-1022929D01*
X8724889Y-1026918D01*
X8721182Y-1030753D01*
X8717219Y-1034433D01*
X8713038Y-1037908D01*
X8708680Y-1041159D01*
X8704142Y-1044186D01*
X8699427Y-1046988D01*
X8694533Y-1049567D01*
X8689461Y-1051921D01*
X8684210Y-1054051D01*
X8678781Y-1055956D01*
X8673173Y-1057638D01*
X8667387Y-1059095D01*
X8661423Y-1060328D01*
X8655280Y-1061337D01*
X8648959Y-1062122D01*
X8642459Y-1062683D01*
X8635781Y-1063019D01*
X8628925Y-1063131D01*
X8620693Y-1062929D01*
X8612517Y-1062322D01*
X8604394Y-1061311D01*
X8596326Y-1059895D01*
X8588312Y-1058074D01*
X8580353Y-1055850D01*
X8572448Y-1053220D01*
X8564597Y-1050186D01*
X8556801Y-1046748D01*
X8549059Y-1042905D01*
X8541372Y-1038657D01*
X8533739Y-1034005D01*
X8526160Y-1028948D01*
X8518636Y-1023487D01*
X8511166Y-1017622D01*
X8503750Y-1011352D01*
X8502991Y-1016262D01*
X8501681Y-1022416D01*
X8500031Y-1028120D01*
X8498042Y-1033373D01*
X8495713Y-1038176D01*
X8493044Y-1042528D01*
X8490036Y-1046430D01*
X8485798Y-1050675D01*
X8484884Y-1051441D01*
X8479914Y-1054908D01*
X8475456Y-1057243D01*
X8470571Y-1059190D01*
X8465259Y-1060747D01*
X8459519Y-1061915D01*
X8453352Y-1062693D01*
X8448446Y-1063022D01*
X8443300Y-1063131D01*
X8441326Y-1063108D01*
X8436082Y-1062845D01*
X8430397Y-1062290D01*
X8425532Y-1061635D01*
X8420383Y-1060794D01*
X8414953Y-1059765D01*
X8409240Y-1058550D01*
X8403244Y-1057147D01*
X8403244Y-1014893D01*
X8405584Y-1015350D01*
X8410683Y-1016015D01*
X8415823Y-1016236D01*
X8419653Y-1016125D01*
X8424935Y-1015539D01*
X8431112Y-1013976D01*
X8436302Y-1011520D01*
X8440502Y-1008171D01*
X8443715Y-1003930D01*
X8445939Y-998795D01*
X8447174Y-992767D01*
X8447452Y-987660D01*
X8447452Y-868469D01*
X8505826Y-868469D01*
X8505826Y-934049D01*
X8506099Y-939489D01*
X8506917Y-944865D01*
X8508280Y-950177D01*
X8510188Y-955424D01*
X8512642Y-960607D01*
X8515641Y-965725D01*
X8519185Y-970779D01*
X8523274Y-975768D01*
X8527909Y-980694D01*
X8533089Y-985554D01*
X8536845Y-988759D01*
X8540776Y-991835D01*
X8544846Y-994713D01*
X8549054Y-997392D01*
X8553400Y-999872D01*
X8557885Y-1002154D01*
X8562508Y-1004238D01*
X8567269Y-1006123D01*
X8572169Y-1007810D01*
X8577207Y-1009298D01*
X8582383Y-1010588D01*
X8587698Y-1011680D01*
X8593151Y-1012573D01*
X8598742Y-1013267D01*
X8604472Y-1013763D01*
X8610340Y-1014061D01*
X8616346Y-1014160D01*
X8620591Y-1014100D01*
X8626733Y-1013782D01*
X8632604Y-1013191D01*
X8638204Y-1012328D01*
X8643534Y-1011192D01*
X8648594Y-1009783D01*
X8653383Y-1008102D01*
X8659348Y-1005436D01*
X8664832Y-1002286D01*
X8669835Y-998651D01*
X8672128Y-996648D01*
X8676268Y-992347D01*
X8679817Y-987653D01*
X8682775Y-982566D01*
X8685141Y-977086D01*
X8686916Y-971212D01*
X8688099Y-964946D01*
X8688598Y-959988D01*
X8688764Y-954809D01*
X8688682Y-951316D01*
X8688248Y-946260D01*
X8687444Y-941422D01*
X8685793Y-935312D01*
X8683482Y-929591D01*
X8680511Y-924260D01*
X8676880Y-919318D01*
X8672589Y-914765D01*
X8667637Y-910601D01*
X8664977Y-908663D01*
X8660916Y-905929D01*
X8655367Y-902608D01*
X8649665Y-899657D01*
X8643811Y-897077D01*
X8637804Y-894866D01*
X8631645Y-893026D01*
X8625333Y-891555D01*
X8620498Y-890696D01*
X8617210Y-890171D01*
X8612137Y-889365D01*
X8606897Y-888536D01*
X8601490Y-887682D01*
X8595915Y-886805D01*
X8590172Y-885905D01*
X8584263Y-884981D01*
X8578185Y-884033D01*
X8571941Y-883062D01*
X8565529Y-882067D01*
X8558949Y-881048D01*
X8556746Y-880703D01*
X8550345Y-879649D01*
X8544261Y-878568D01*
X8538491Y-877458D01*
X8533038Y-876321D01*
X8527900Y-875156D01*
X8521540Y-873559D01*
X8515741Y-871912D01*
X8510503Y-870215D01*
X8505826Y-868469D01*
X8447452Y-868469D01*
X8447452Y-773093D01*
X8447590Y-767018D01*
X8448002Y-761129D01*
X8448689Y-755424D01*
X8449650Y-749905D01*
X8450887Y-744571D01*
X8452398Y-739421D01*
X8454184Y-734457D01*
X8456245Y-729678D01*
X8458581Y-725085D01*
X8461191Y-720676D01*
X8464076Y-716452D01*
X8467236Y-712414D01*
X8470671Y-708560D01*
X8474380Y-704892D01*
X8478364Y-701408D01*
X8482623Y-698110D01*
X8487149Y-694990D01*
X8491933Y-692071D01*
X8496976Y-689353D01*
X8502277Y-686837D01*
X8507837Y-684522D01*
X8513655Y-682408D01*
X8519732Y-680496D01*
X8526068Y-678784D01*
X8532662Y-677275D01*
X8539515Y-675966D01*
X8546626Y-674859D01*
X8553996Y-673953D01*
X8561624Y-673248D01*
X8569511Y-672745D01*
X8577656Y-672443D01*
X8586060Y-672342D01*
X8594892Y-672457D01*
G37*
G36*
X8295655Y-531659D02*
G01*
X8295655Y-1047500D01*
X8354640Y-1047500D01*
X8354640Y-531659D01*
X8295655Y-531659D01*
G37*
G36*
X7986688Y-938079D02*
G01*
X7985761Y-944030D01*
X7984583Y-949747D01*
X7983154Y-955229D01*
X7981473Y-960478D01*
X7979542Y-965493D01*
X7977359Y-970274D01*
X7974925Y-974821D01*
X7972240Y-979134D01*
X7969303Y-983213D01*
X7966116Y-987058D01*
X7963851Y-989492D01*
X7960086Y-992875D01*
X7955797Y-995925D01*
X7950984Y-998642D01*
X7945648Y-1001027D01*
X7939787Y-1003078D01*
X7933403Y-1004798D01*
X7926495Y-1006184D01*
X7921599Y-1006923D01*
X7916470Y-1007515D01*
X7911108Y-1007959D01*
X7905513Y-1008254D01*
X7899686Y-1008402D01*
X7896685Y-1008421D01*
X7889559Y-1008283D01*
X7882700Y-1007871D01*
X7876107Y-1007184D01*
X7869780Y-1006222D01*
X7863719Y-1004986D01*
X7857924Y-1003475D01*
X7852396Y-1001689D01*
X7847134Y-999628D01*
X7842138Y-997292D01*
X7837408Y-994682D01*
X7834403Y-992789D01*
X7830191Y-989747D01*
X7826393Y-986529D01*
X7821974Y-981965D01*
X7818291Y-977088D01*
X7815345Y-971898D01*
X7813135Y-966395D01*
X7811662Y-960579D01*
X7810925Y-954450D01*
X7810833Y-951268D01*
X7811043Y-946360D01*
X7811896Y-940590D01*
X7813405Y-935226D01*
X7815569Y-930267D01*
X7818390Y-925714D01*
X7821866Y-921566D01*
X7824267Y-919272D01*
X7828841Y-915689D01*
X7833097Y-912995D01*
X7837884Y-910454D01*
X7843201Y-908065D01*
X7849048Y-905828D01*
X7853782Y-904251D01*
X7858814Y-902760D01*
X7864145Y-901355D01*
X7867864Y-900465D01*
X7922697Y-887154D01*
X7930723Y-885246D01*
X7938439Y-883279D01*
X7945843Y-881251D01*
X7952937Y-879163D01*
X7959719Y-877015D01*
X7966191Y-874806D01*
X7972351Y-872538D01*
X7978201Y-870210D01*
X7983739Y-867821D01*
X7988966Y-865373D01*
X7993883Y-862864D01*
X7998488Y-860295D01*
X8002782Y-857666D01*
X8008641Y-853610D01*
X8013799Y-849419D01*
X8018382Y-844966D01*
X8022515Y-840172D01*
X8026196Y-835037D01*
X8029427Y-829560D01*
X8032207Y-823743D01*
X8034536Y-817583D01*
X8036414Y-811083D01*
X8037842Y-804241D01*
X8038819Y-797058D01*
X8039219Y-792080D01*
X8039420Y-786950D01*
X8039445Y-784328D01*
X8039294Y-778028D01*
X8038842Y-771889D01*
X8038088Y-765911D01*
X8037033Y-760094D01*
X8035676Y-754439D01*
X8034018Y-748945D01*
X8032058Y-743612D01*
X8029797Y-738441D01*
X8027234Y-733430D01*
X8024370Y-728581D01*
X8021205Y-723893D01*
X8017738Y-719367D01*
X8013969Y-715002D01*
X8009899Y-710797D01*
X8005527Y-706754D01*
X8000854Y-702873D01*
X7995916Y-699176D01*
X7990781Y-695717D01*
X7985448Y-692497D01*
X7979918Y-689516D01*
X7974190Y-686773D01*
X7968265Y-684268D01*
X7962142Y-682002D01*
X7955822Y-679975D01*
X7949304Y-678186D01*
X7942589Y-676636D01*
X7935676Y-675324D01*
X7928566Y-674251D01*
X7921258Y-673416D01*
X7913753Y-672820D01*
X7906050Y-672462D01*
X7898150Y-672342D01*
X7890252Y-672454D01*
X7882585Y-672789D01*
X7875151Y-673347D01*
X7867948Y-674129D01*
X7860977Y-675133D01*
X7854238Y-676361D01*
X7847731Y-677812D01*
X7841455Y-679487D01*
X7835412Y-681384D01*
X7829600Y-683505D01*
X7824020Y-685849D01*
X7818672Y-688417D01*
X7813556Y-691207D01*
X7808671Y-694221D01*
X7804019Y-697458D01*
X7799598Y-700919D01*
X7795425Y-704569D01*
X7791515Y-708406D01*
X7787869Y-712431D01*
X7784486Y-716642D01*
X7781366Y-721040D01*
X7778509Y-725626D01*
X7775916Y-730398D01*
X7773586Y-735357D01*
X7771520Y-740503D01*
X7769717Y-745837D01*
X7768177Y-751357D01*
X7766900Y-757064D01*
X7765887Y-762958D01*
X7765137Y-769040D01*
X7764650Y-775308D01*
X7764427Y-781763D01*
X7826343Y-781763D01*
X7826875Y-775138D01*
X7827951Y-768941D01*
X7829573Y-763170D01*
X7831739Y-757827D01*
X7834450Y-752912D01*
X7837706Y-748424D01*
X7841506Y-744364D01*
X7845852Y-740730D01*
X7850742Y-737525D01*
X7856177Y-734747D01*
X7862156Y-732396D01*
X7868681Y-730472D01*
X7875750Y-728976D01*
X7883364Y-727908D01*
X7891523Y-727267D01*
X7900226Y-727053D01*
X7906806Y-727184D01*
X7913129Y-727577D01*
X7919194Y-728231D01*
X7925002Y-729148D01*
X7930551Y-730327D01*
X7935844Y-731767D01*
X7940878Y-733469D01*
X7945655Y-735433D01*
X7950175Y-737660D01*
X7954437Y-740148D01*
X7957135Y-741952D01*
X7962086Y-745833D01*
X7966378Y-750027D01*
X7970009Y-754534D01*
X7972980Y-759354D01*
X7975291Y-764487D01*
X7976941Y-769933D01*
X7977932Y-775692D01*
X7978262Y-781763D01*
X7977868Y-787652D01*
X7976688Y-793184D01*
X7974720Y-798357D01*
X7971965Y-803173D01*
X7968423Y-807631D01*
X7964094Y-811731D01*
X7962142Y-813271D01*
X7957774Y-816234D01*
X7952792Y-819079D01*
X7947195Y-821806D01*
X7942595Y-823773D01*
X7937648Y-825674D01*
X7932356Y-827508D01*
X7926719Y-829276D01*
X7920736Y-830977D01*
X7914407Y-832612D01*
X7909996Y-833665D01*
X7853820Y-847098D01*
X7847070Y-848758D01*
X7840557Y-850502D01*
X7834281Y-852330D01*
X7828243Y-854242D01*
X7822443Y-856238D01*
X7816880Y-858318D01*
X7811555Y-860482D01*
X7806467Y-862730D01*
X7801617Y-865062D01*
X7797005Y-867477D01*
X7792630Y-869977D01*
X7786513Y-873884D01*
X7780931Y-877980D01*
X7775883Y-882264D01*
X7774319Y-883735D01*
X7769910Y-888296D01*
X7765936Y-893140D01*
X7762394Y-898268D01*
X7759287Y-903679D01*
X7756613Y-909373D01*
X7754372Y-915351D01*
X7752565Y-921612D01*
X7751192Y-928156D01*
X7750253Y-934984D01*
X7749747Y-942095D01*
X7749650Y-946994D01*
X7749811Y-953549D01*
X7750294Y-959937D01*
X7751097Y-966155D01*
X7752223Y-972204D01*
X7753670Y-978084D01*
X7755438Y-983796D01*
X7757528Y-989339D01*
X7759939Y-994713D01*
X7762672Y-999917D01*
X7765727Y-1004954D01*
X7769103Y-1009821D01*
X7772800Y-1014519D01*
X7776819Y-1019049D01*
X7781160Y-1023409D01*
X7785822Y-1027601D01*
X7790805Y-1031624D01*
X7796061Y-1035439D01*
X7801539Y-1039008D01*
X7807239Y-1042331D01*
X7813161Y-1045408D01*
X7819306Y-1048239D01*
X7825673Y-1050823D01*
X7832262Y-1053162D01*
X7839074Y-1055254D01*
X7846108Y-1057100D01*
X7853364Y-1058700D01*
X7860843Y-1060054D01*
X7868543Y-1061162D01*
X7876466Y-1062023D01*
X7884612Y-1062639D01*
X7892980Y-1063008D01*
X7901570Y-1063131D01*
X7910357Y-1063009D01*
X7918874Y-1062643D01*
X7927120Y-1062032D01*
X7935096Y-1061177D01*
X7942801Y-1060078D01*
X7950236Y-1058735D01*
X7957400Y-1057147D01*
X7964294Y-1055315D01*
X7970918Y-1053239D01*
X7977271Y-1050919D01*
X7983353Y-1048354D01*
X7989165Y-1045546D01*
X7994706Y-1042493D01*
X7999977Y-1039195D01*
X8004978Y-1035654D01*
X8009708Y-1031868D01*
X8014168Y-1027838D01*
X8018357Y-1023564D01*
X8022275Y-1019045D01*
X8025923Y-1014282D01*
X8029301Y-1009275D01*
X8032408Y-1004024D01*
X8035245Y-998529D01*
X8037811Y-992789D01*
X8040107Y-986805D01*
X8042132Y-980577D01*
X8043887Y-974105D01*
X8045371Y-967388D01*
X8046585Y-960427D01*
X8047528Y-953222D01*
X8048201Y-945772D01*
X8048604Y-938079D01*
X7986688Y-938079D01*
G37*
G36*
X7553532Y-672547D02*
G01*
X7562809Y-673159D01*
X7571827Y-674180D01*
X7580589Y-675609D01*
X7589092Y-677447D01*
X7597338Y-679693D01*
X7605327Y-682347D01*
X7613058Y-685409D01*
X7620531Y-688880D01*
X7627747Y-692760D01*
X7634705Y-697047D01*
X7641405Y-701743D01*
X7647848Y-706848D01*
X7654033Y-712360D01*
X7659961Y-718281D01*
X7665631Y-724610D01*
X7670999Y-731280D01*
X7676021Y-738254D01*
X7680696Y-745530D01*
X7685025Y-753111D01*
X7689008Y-760994D01*
X7692645Y-769181D01*
X7695935Y-777671D01*
X7698879Y-786465D01*
X7701476Y-795562D01*
X7703727Y-804963D01*
X7704723Y-809777D01*
X7705632Y-814666D01*
X7706454Y-819632D01*
X7707190Y-824674D01*
X7707840Y-829791D01*
X7708403Y-834984D01*
X7708879Y-840253D01*
X7709268Y-845598D01*
X7709571Y-851019D01*
X7709788Y-856516D01*
X7709918Y-862088D01*
X7709961Y-867737D01*
X7709918Y-873385D01*
X7709789Y-878958D01*
X7709575Y-884455D01*
X7709274Y-889877D01*
X7708888Y-895223D01*
X7708415Y-900493D01*
X7707857Y-905688D01*
X7707213Y-910807D01*
X7706483Y-915851D01*
X7705668Y-920819D01*
X7704766Y-925711D01*
X7703779Y-930528D01*
X7701546Y-939935D01*
X7698970Y-949039D01*
X7696051Y-957841D01*
X7692788Y-966340D01*
X7689181Y-974537D01*
X7685231Y-982432D01*
X7680938Y-990024D01*
X7676301Y-997313D01*
X7671321Y-1004300D01*
X7665997Y-1010985D01*
X7663216Y-1014193D01*
X7657448Y-1020304D01*
X7651409Y-1026008D01*
X7645098Y-1031304D01*
X7638515Y-1036192D01*
X7631660Y-1040674D01*
X7624533Y-1044748D01*
X7617134Y-1048414D01*
X7609463Y-1051673D01*
X7601520Y-1054525D01*
X7593306Y-1056969D01*
X7584819Y-1059006D01*
X7576061Y-1060636D01*
X7567031Y-1061858D01*
X7557728Y-1062673D01*
X7548154Y-1063080D01*
X7543265Y-1063131D01*
X7533715Y-1062930D01*
X7524422Y-1062328D01*
X7515386Y-1061324D01*
X7506606Y-1059918D01*
X7498083Y-1058110D01*
X7489816Y-1055901D01*
X7481806Y-1053290D01*
X7474053Y-1050278D01*
X7466556Y-1046864D01*
X7459316Y-1043048D01*
X7452333Y-1038830D01*
X7445606Y-1034211D01*
X7439136Y-1029190D01*
X7432923Y-1023768D01*
X7426966Y-1017944D01*
X7421266Y-1011718D01*
X7418516Y-1008460D01*
X7413278Y-1001720D01*
X7408390Y-994683D01*
X7403850Y-987348D01*
X7399660Y-979715D01*
X7395819Y-971785D01*
X7392327Y-963557D01*
X7389184Y-955032D01*
X7386391Y-946208D01*
X7383946Y-937087D01*
X7381851Y-927669D01*
X7380934Y-922848D01*
X7380105Y-917953D01*
X7379363Y-912983D01*
X7378708Y-907939D01*
X7378141Y-902820D01*
X7377661Y-897627D01*
X7377268Y-892359D01*
X7376962Y-887018D01*
X7376744Y-881601D01*
X7376613Y-876111D01*
X7376570Y-870546D01*
X7376575Y-869813D01*
X7437752Y-869813D01*
X7437864Y-877635D01*
X7438199Y-885255D01*
X7438757Y-892675D01*
X7439538Y-899893D01*
X7440543Y-906910D01*
X7441771Y-913725D01*
X7443222Y-920339D01*
X7444896Y-926752D01*
X7446794Y-932963D01*
X7448915Y-938974D01*
X7451259Y-944783D01*
X7453827Y-950390D01*
X7456617Y-955796D01*
X7459631Y-961001D01*
X7462868Y-966005D01*
X7466329Y-970807D01*
X7469964Y-975362D01*
X7473755Y-979623D01*
X7477703Y-983590D01*
X7481808Y-987263D01*
X7486069Y-990642D01*
X7490486Y-993728D01*
X7495060Y-996520D01*
X7499790Y-999017D01*
X7504677Y-1001221D01*
X7509720Y-1003131D01*
X7514920Y-1004747D01*
X7520276Y-1006070D01*
X7525789Y-1007098D01*
X7531458Y-1007833D01*
X7537283Y-1008274D01*
X7543265Y-1008421D01*
X7549335Y-1008274D01*
X7555241Y-1007833D01*
X7560982Y-1007098D01*
X7566560Y-1006070D01*
X7571973Y-1004747D01*
X7577223Y-1003131D01*
X7582308Y-1001221D01*
X7587229Y-999017D01*
X7591986Y-996520D01*
X7596579Y-993728D01*
X7601008Y-990642D01*
X7605272Y-987263D01*
X7609373Y-983590D01*
X7613310Y-979623D01*
X7617082Y-975362D01*
X7620690Y-970807D01*
X7624092Y-965997D01*
X7627273Y-960969D01*
X7630236Y-955723D01*
X7632979Y-950260D01*
X7635502Y-944580D01*
X7637806Y-938682D01*
X7639891Y-932566D01*
X7641756Y-926233D01*
X7643402Y-919682D01*
X7644828Y-912914D01*
X7646035Y-905928D01*
X7647023Y-898725D01*
X7647791Y-891304D01*
X7648339Y-883666D01*
X7648668Y-875810D01*
X7648778Y-867737D01*
X7648668Y-859663D01*
X7648339Y-851808D01*
X7647791Y-844169D01*
X7647023Y-836748D01*
X7646035Y-829545D01*
X7644828Y-822559D01*
X7643402Y-815791D01*
X7641756Y-809241D01*
X7639891Y-802907D01*
X7637806Y-796792D01*
X7635502Y-790894D01*
X7632979Y-785213D01*
X7630236Y-779750D01*
X7627273Y-774505D01*
X7624092Y-769477D01*
X7620690Y-764666D01*
X7617082Y-760112D01*
X7613310Y-755851D01*
X7609373Y-751884D01*
X7605272Y-748210D01*
X7601008Y-744831D01*
X7596579Y-741746D01*
X7591986Y-738954D01*
X7587229Y-736456D01*
X7582308Y-734252D01*
X7577223Y-732342D01*
X7571973Y-730726D01*
X7566560Y-729404D01*
X7560982Y-728375D01*
X7555241Y-727641D01*
X7549335Y-727200D01*
X7543265Y-727053D01*
X7537109Y-727201D01*
X7531126Y-727646D01*
X7525316Y-728388D01*
X7519681Y-729427D01*
X7514219Y-730762D01*
X7508930Y-732394D01*
X7503815Y-734322D01*
X7498874Y-736548D01*
X7494107Y-739070D01*
X7489513Y-741889D01*
X7485093Y-745004D01*
X7480846Y-748417D01*
X7476773Y-752125D01*
X7472874Y-756131D01*
X7469148Y-760434D01*
X7465596Y-765033D01*
X7462224Y-769878D01*
X7459070Y-774951D01*
X7456134Y-780251D01*
X7453414Y-785778D01*
X7450913Y-791532D01*
X7448629Y-797513D01*
X7446562Y-803721D01*
X7444713Y-810157D01*
X7443082Y-816819D01*
X7441668Y-823708D01*
X7440471Y-830825D01*
X7439493Y-838168D01*
X7438731Y-845739D01*
X7438187Y-853536D01*
X7437861Y-861561D01*
X7437752Y-869813D01*
X7376575Y-869813D01*
X7376612Y-864680D01*
X7376741Y-858897D01*
X7376956Y-853198D01*
X7377256Y-847583D01*
X7377643Y-842051D01*
X7378115Y-836602D01*
X7378673Y-831237D01*
X7379317Y-825956D01*
X7380047Y-820758D01*
X7380863Y-815643D01*
X7381764Y-810612D01*
X7382752Y-805665D01*
X7383825Y-800801D01*
X7384984Y-796020D01*
X7387560Y-786709D01*
X7390480Y-777732D01*
X7393743Y-769089D01*
X7397349Y-760780D01*
X7401299Y-752805D01*
X7405592Y-745164D01*
X7410229Y-737857D01*
X7415210Y-730883D01*
X7420533Y-724244D01*
X7423316Y-721051D01*
X7429089Y-714969D01*
X7435140Y-709292D01*
X7441468Y-704021D01*
X7448074Y-699155D01*
X7454958Y-694695D01*
X7462119Y-690640D01*
X7469558Y-686990D01*
X7477274Y-683747D01*
X7485268Y-680908D01*
X7493540Y-678475D01*
X7502090Y-676448D01*
X7510917Y-674826D01*
X7520022Y-673610D01*
X7529404Y-672799D01*
X7539064Y-672393D01*
X7543998Y-672342D01*
X7553532Y-672547D01*
G37*
G36*
X7321981Y-680158D02*
G01*
X7267881Y-680158D01*
X7267881Y-747691D01*
X7264783Y-742757D01*
X7261655Y-738000D01*
X7258498Y-733419D01*
X7255311Y-729014D01*
X7252094Y-724786D01*
X7248848Y-720735D01*
X7245572Y-716860D01*
X7242267Y-713162D01*
X7237253Y-707945D01*
X7232173Y-703125D01*
X7227026Y-698703D01*
X7221813Y-694677D01*
X7216533Y-691049D01*
X7214759Y-689928D01*
X7209315Y-686785D01*
X7203655Y-683952D01*
X7197777Y-681427D01*
X7191683Y-679212D01*
X7185373Y-677306D01*
X7178845Y-675708D01*
X7172100Y-674420D01*
X7165139Y-673442D01*
X7157961Y-672772D01*
X7153055Y-672497D01*
X7148053Y-672360D01*
X7145516Y-672342D01*
X7138915Y-672449D01*
X7132485Y-672768D01*
X7126226Y-673300D01*
X7120137Y-674045D01*
X7114220Y-675002D01*
X7108473Y-676172D01*
X7102897Y-677555D01*
X7097492Y-679151D01*
X7092257Y-680959D01*
X7087193Y-682980D01*
X7082300Y-685214D01*
X7077578Y-687661D01*
X7073027Y-690321D01*
X7068646Y-693193D01*
X7064436Y-696278D01*
X7060397Y-699576D01*
X7056552Y-703035D01*
X7052955Y-706636D01*
X7049607Y-710378D01*
X7046506Y-714261D01*
X7043653Y-718285D01*
X7041049Y-722450D01*
X7038692Y-726757D01*
X7036583Y-731205D01*
X7034723Y-735794D01*
X7033111Y-740524D01*
X7031746Y-745396D01*
X7030630Y-750409D01*
X7029762Y-755563D01*
X7029142Y-760858D01*
X7028770Y-766294D01*
X7028646Y-771871D01*
X7028646Y-1047500D01*
X7087142Y-1047500D01*
X7087142Y-797883D01*
X7087321Y-791931D01*
X7087859Y-786211D01*
X7088755Y-780723D01*
X7090010Y-775466D01*
X7091623Y-770442D01*
X7093595Y-765649D01*
X7095925Y-761088D01*
X7098614Y-756759D01*
X7101661Y-752662D01*
X7105066Y-748796D01*
X7107536Y-746348D01*
X7111490Y-742900D01*
X7115703Y-739791D01*
X7120177Y-737021D01*
X7124910Y-734590D01*
X7129903Y-732498D01*
X7135155Y-730746D01*
X7140667Y-729333D01*
X7146439Y-728259D01*
X7152471Y-727524D01*
X7158763Y-727128D01*
X7163101Y-727053D01*
X7168665Y-727183D01*
X7174092Y-727574D01*
X7179382Y-728225D01*
X7184534Y-729137D01*
X7189548Y-730309D01*
X7194425Y-731741D01*
X7199165Y-733434D01*
X7203768Y-735388D01*
X7208233Y-737602D01*
X7212560Y-740076D01*
X7216751Y-742811D01*
X7220804Y-745806D01*
X7224719Y-749062D01*
X7228497Y-752578D01*
X7232138Y-756355D01*
X7235641Y-760392D01*
X7238954Y-764644D01*
X7242053Y-769066D01*
X7244938Y-773658D01*
X7247609Y-778420D01*
X7250067Y-783352D01*
X7252311Y-788453D01*
X7254341Y-793725D01*
X7256158Y-799166D01*
X7257761Y-804776D01*
X7259150Y-810557D01*
X7260325Y-816508D01*
X7261287Y-822628D01*
X7262035Y-828918D01*
X7262569Y-835378D01*
X7262890Y-842008D01*
X7262997Y-848808D01*
X7262997Y-1047500D01*
X7321981Y-1047500D01*
X7321981Y-680158D01*
G37*
G36*
X6771458Y-1047500D02*
G01*
X6718701Y-1047500D01*
X6718701Y-1000116D01*
X6713380Y-1007747D01*
X6707794Y-1014885D01*
X6701946Y-1021532D01*
X6695834Y-1027685D01*
X6689459Y-1033347D01*
X6682821Y-1038516D01*
X6675919Y-1043193D01*
X6668754Y-1047377D01*
X6661325Y-1051070D01*
X6653634Y-1054270D01*
X6645679Y-1056977D01*
X6637460Y-1059193D01*
X6628978Y-1060916D01*
X6620233Y-1062146D01*
X6611225Y-1062885D01*
X6601953Y-1063131D01*
X6592925Y-1062918D01*
X6584127Y-1062278D01*
X6575561Y-1061212D01*
X6567225Y-1059719D01*
X6559120Y-1057800D01*
X6551246Y-1055455D01*
X6543603Y-1052683D01*
X6536191Y-1049484D01*
X6529010Y-1045859D01*
X6522059Y-1041807D01*
X6515340Y-1037330D01*
X6508851Y-1032425D01*
X6502593Y-1027094D01*
X6496566Y-1021337D01*
X6490770Y-1015153D01*
X6485205Y-1008543D01*
X6482523Y-1005096D01*
X6477414Y-997993D01*
X6472645Y-990610D01*
X6468218Y-982948D01*
X6464130Y-975006D01*
X6460384Y-966785D01*
X6456978Y-958284D01*
X6453912Y-949504D01*
X6451187Y-940444D01*
X6448803Y-931105D01*
X6447739Y-926330D01*
X6446760Y-921486D01*
X6445865Y-916571D01*
X6445057Y-911587D01*
X6444333Y-906533D01*
X6443694Y-901409D01*
X6443141Y-896215D01*
X6442672Y-890952D01*
X6442289Y-885618D01*
X6441991Y-880214D01*
X6441778Y-874741D01*
X6441664Y-869813D01*
X6502791Y-869813D01*
X6502908Y-877431D01*
X6503258Y-884868D01*
X6503843Y-892124D01*
X6504661Y-899198D01*
X6505713Y-906091D01*
X6506998Y-912803D01*
X6508518Y-919334D01*
X6510271Y-925683D01*
X6512258Y-931851D01*
X6514478Y-937838D01*
X6516933Y-943644D01*
X6519621Y-949268D01*
X6522542Y-954711D01*
X6525698Y-959973D01*
X6529087Y-965053D01*
X6532711Y-969952D01*
X6536520Y-974611D01*
X6540469Y-978968D01*
X6544557Y-983026D01*
X6548785Y-986782D01*
X6553152Y-990238D01*
X6557658Y-993394D01*
X6562303Y-996249D01*
X6567088Y-998804D01*
X6572012Y-1001058D01*
X6577075Y-1003011D01*
X6582277Y-1004664D01*
X6587619Y-1006016D01*
X6593100Y-1007068D01*
X6598721Y-1007820D01*
X6604481Y-1008270D01*
X6610380Y-1008421D01*
X6616109Y-1008270D01*
X6621697Y-1007820D01*
X6627142Y-1007068D01*
X6632446Y-1006016D01*
X6637607Y-1004664D01*
X6642626Y-1003011D01*
X6647502Y-1001058D01*
X6652237Y-998804D01*
X6656829Y-996249D01*
X6661280Y-993394D01*
X6665588Y-990238D01*
X6669754Y-986782D01*
X6673777Y-983026D01*
X6677659Y-978968D01*
X6681399Y-974611D01*
X6684996Y-969952D01*
X6688397Y-965045D01*
X6691579Y-959940D01*
X6694541Y-954638D01*
X6697284Y-949138D01*
X6699808Y-943441D01*
X6702112Y-937546D01*
X6704197Y-931454D01*
X6706062Y-925164D01*
X6707708Y-918677D01*
X6709134Y-911992D01*
X6710341Y-905110D01*
X6711328Y-898031D01*
X6712096Y-890753D01*
X6712645Y-883279D01*
X6712974Y-875606D01*
X6713084Y-867737D01*
X6712974Y-859867D01*
X6712645Y-852195D01*
X6712096Y-844720D01*
X6711328Y-837443D01*
X6710341Y-830363D01*
X6709134Y-823481D01*
X6707708Y-816796D01*
X6706062Y-810309D01*
X6704197Y-804019D01*
X6702112Y-797927D01*
X6699808Y-792032D01*
X6697284Y-786335D01*
X6694541Y-780835D01*
X6691579Y-775533D01*
X6688397Y-770428D01*
X6684996Y-765521D01*
X6681399Y-760863D01*
X6677659Y-756505D01*
X6673777Y-752448D01*
X6669754Y-748691D01*
X6665588Y-745235D01*
X6661280Y-742080D01*
X6656829Y-739224D01*
X6652237Y-736670D01*
X6647502Y-734416D01*
X6642626Y-732462D01*
X6637607Y-730810D01*
X6632446Y-729457D01*
X6627142Y-728405D01*
X6621697Y-727654D01*
X6616109Y-727203D01*
X6610380Y-727053D01*
X6604306Y-727205D01*
X6598389Y-727660D01*
X6592628Y-728418D01*
X6587024Y-729480D01*
X6581576Y-730845D01*
X6576285Y-732514D01*
X6571150Y-734486D01*
X6566172Y-736762D01*
X6561350Y-739340D01*
X6556684Y-742223D01*
X6552176Y-745408D01*
X6547823Y-748897D01*
X6543627Y-752690D01*
X6539587Y-756786D01*
X6535704Y-761185D01*
X6531978Y-765887D01*
X6528443Y-770844D01*
X6525137Y-776006D01*
X6522059Y-781374D01*
X6519208Y-786946D01*
X6516586Y-792723D01*
X6514192Y-798706D01*
X6512026Y-804893D01*
X6510088Y-811286D01*
X6508377Y-817884D01*
X6506895Y-824687D01*
X6505641Y-831695D01*
X6504615Y-838908D01*
X6503817Y-846327D01*
X6503247Y-853950D01*
X6502905Y-861779D01*
X6502791Y-869813D01*
X6441664Y-869813D01*
X6441650Y-869198D01*
X6441608Y-863585D01*
X6441649Y-858102D01*
X6441773Y-852692D01*
X6441979Y-847354D01*
X6442268Y-842087D01*
X6442640Y-836893D01*
X6443093Y-831771D01*
X6443630Y-826721D01*
X6444249Y-821743D01*
X6444950Y-816837D01*
X6445734Y-812003D01*
X6447550Y-802551D01*
X6449696Y-793387D01*
X6452171Y-784511D01*
X6454977Y-775923D01*
X6458113Y-767624D01*
X6461580Y-759613D01*
X6465376Y-751889D01*
X6469502Y-744454D01*
X6473959Y-737307D01*
X6478745Y-730448D01*
X6483862Y-723878D01*
X6489250Y-717637D01*
X6494880Y-711799D01*
X6500752Y-706364D01*
X6506867Y-701331D01*
X6513224Y-696701D01*
X6519823Y-692473D01*
X6526665Y-688649D01*
X6533749Y-685226D01*
X6541075Y-682207D01*
X6548644Y-679590D01*
X6556455Y-677375D01*
X6564508Y-675563D01*
X6572804Y-674154D01*
X6581342Y-673148D01*
X6590122Y-672544D01*
X6599145Y-672342D01*
X6608248Y-672578D01*
X6617087Y-673283D01*
X6625662Y-674459D01*
X6633972Y-676105D01*
X6642018Y-678222D01*
X6649800Y-680809D01*
X6657318Y-683866D01*
X6664571Y-687394D01*
X6671560Y-691392D01*
X6678285Y-695860D01*
X6684745Y-700799D01*
X6690942Y-706208D01*
X6696874Y-712088D01*
X6702541Y-718438D01*
X6707945Y-725258D01*
X6713084Y-732548D01*
X6713084Y-531659D01*
X6771458Y-531659D01*
X6771458Y-1047500D01*
G37*
G36*
X6244879Y-672547D02*
G01*
X6254155Y-673159D01*
X6263174Y-674180D01*
X6271935Y-675609D01*
X6280439Y-677447D01*
X6288685Y-679693D01*
X6296674Y-682347D01*
X6304405Y-685409D01*
X6311878Y-688880D01*
X6319093Y-692760D01*
X6326051Y-697047D01*
X6332752Y-701743D01*
X6339195Y-706848D01*
X6345380Y-712360D01*
X6351308Y-718281D01*
X6356978Y-724610D01*
X6362346Y-731280D01*
X6367368Y-738254D01*
X6372043Y-745530D01*
X6376372Y-753111D01*
X6380355Y-760994D01*
X6383991Y-769181D01*
X6387282Y-777671D01*
X6390225Y-786465D01*
X6392823Y-795562D01*
X6395074Y-804963D01*
X6396070Y-809777D01*
X6396979Y-814666D01*
X6397801Y-819632D01*
X6398537Y-824674D01*
X6399187Y-829791D01*
X6399749Y-834984D01*
X6400226Y-840253D01*
X6400615Y-845598D01*
X6400918Y-851019D01*
X6401135Y-856516D01*
X6401265Y-862088D01*
X6401308Y-867737D01*
X6401265Y-873385D01*
X6401136Y-878958D01*
X6400921Y-884455D01*
X6400621Y-889877D01*
X6400235Y-895223D01*
X6399762Y-900493D01*
X6399204Y-905688D01*
X6398560Y-910807D01*
X6397830Y-915851D01*
X6397015Y-920819D01*
X6396113Y-925711D01*
X6395125Y-930528D01*
X6392893Y-939935D01*
X6390317Y-949039D01*
X6387397Y-957841D01*
X6384135Y-966340D01*
X6380528Y-974537D01*
X6376578Y-982432D01*
X6372285Y-990024D01*
X6367648Y-997313D01*
X6362668Y-1004300D01*
X6357344Y-1010985D01*
X6354562Y-1014193D01*
X6348795Y-1020304D01*
X6342756Y-1026008D01*
X6336445Y-1031304D01*
X6329861Y-1036192D01*
X6323006Y-1040674D01*
X6315880Y-1044748D01*
X6308481Y-1048414D01*
X6300810Y-1051673D01*
X6292867Y-1054525D01*
X6284653Y-1056969D01*
X6276166Y-1059006D01*
X6267408Y-1060636D01*
X6258377Y-1061858D01*
X6249075Y-1062673D01*
X6239501Y-1063080D01*
X6234612Y-1063131D01*
X6225062Y-1062930D01*
X6215769Y-1062328D01*
X6206733Y-1061324D01*
X6197953Y-1059918D01*
X6189430Y-1058110D01*
X6181163Y-1055901D01*
X6173153Y-1053290D01*
X6165400Y-1050278D01*
X6157903Y-1046864D01*
X6150663Y-1043048D01*
X6143680Y-1038830D01*
X6136953Y-1034211D01*
X6130483Y-1029190D01*
X6124270Y-1023768D01*
X6118313Y-1017944D01*
X6112613Y-1011718D01*
X6109863Y-1008460D01*
X6104625Y-1001720D01*
X6099736Y-994683D01*
X6095197Y-987348D01*
X6091007Y-979715D01*
X6087166Y-971785D01*
X6083674Y-963557D01*
X6080531Y-955032D01*
X6077737Y-946208D01*
X6075293Y-937087D01*
X6073198Y-927669D01*
X6072281Y-922848D01*
X6071452Y-917953D01*
X6070710Y-912983D01*
X6070055Y-907939D01*
X6069488Y-902820D01*
X6069008Y-897627D01*
X6068615Y-892359D01*
X6068309Y-887018D01*
X6068091Y-881601D01*
X6067960Y-876111D01*
X6067916Y-870546D01*
X6067921Y-869813D01*
X6129099Y-869813D01*
X6129211Y-877635D01*
X6129546Y-885255D01*
X6130104Y-892675D01*
X6130885Y-899893D01*
X6131890Y-906910D01*
X6133118Y-913725D01*
X6134569Y-920339D01*
X6136243Y-926752D01*
X6138141Y-932963D01*
X6140262Y-938974D01*
X6142606Y-944783D01*
X6145173Y-950390D01*
X6147964Y-955796D01*
X6150978Y-961001D01*
X6154215Y-966005D01*
X6157676Y-970807D01*
X6161311Y-975362D01*
X6165102Y-979623D01*
X6169050Y-983590D01*
X6173155Y-987263D01*
X6177415Y-990642D01*
X6181833Y-993728D01*
X6186407Y-996520D01*
X6191137Y-999017D01*
X6196024Y-1001221D01*
X6201067Y-1003131D01*
X6206267Y-1004747D01*
X6211623Y-1006070D01*
X6217135Y-1007098D01*
X6222804Y-1007833D01*
X6228630Y-1008274D01*
X6234612Y-1008421D01*
X6240682Y-1008274D01*
X6246588Y-1007833D01*
X6252329Y-1007098D01*
X6257907Y-1006070D01*
X6263320Y-1004747D01*
X6268569Y-1003131D01*
X6273655Y-1001221D01*
X6278576Y-999017D01*
X6283333Y-996520D01*
X6287926Y-993728D01*
X6292355Y-990642D01*
X6296619Y-987263D01*
X6300720Y-983590D01*
X6304656Y-979623D01*
X6308429Y-975362D01*
X6312037Y-970807D01*
X6315438Y-965997D01*
X6318620Y-960969D01*
X6321583Y-955723D01*
X6324326Y-950260D01*
X6326849Y-944580D01*
X6329153Y-938682D01*
X6331238Y-932566D01*
X6333103Y-926233D01*
X6334749Y-919682D01*
X6336175Y-912914D01*
X6337382Y-905928D01*
X6338370Y-898725D01*
X6339138Y-891304D01*
X6339686Y-883666D01*
X6340015Y-875810D01*
X6340125Y-867737D01*
X6340015Y-859663D01*
X6339686Y-851808D01*
X6339138Y-844169D01*
X6338370Y-836748D01*
X6337382Y-829545D01*
X6336175Y-822559D01*
X6334749Y-815791D01*
X6333103Y-809241D01*
X6331238Y-802907D01*
X6329153Y-796792D01*
X6326849Y-790894D01*
X6324326Y-785213D01*
X6321583Y-779750D01*
X6318620Y-774505D01*
X6315438Y-769477D01*
X6312037Y-764666D01*
X6308429Y-760112D01*
X6304656Y-755851D01*
X6300720Y-751884D01*
X6296619Y-748210D01*
X6292355Y-744831D01*
X6287926Y-741746D01*
X6283333Y-738954D01*
X6278576Y-736456D01*
X6273655Y-734252D01*
X6268569Y-732342D01*
X6263320Y-730726D01*
X6257907Y-729404D01*
X6252329Y-728375D01*
X6246588Y-727641D01*
X6240682Y-727200D01*
X6234612Y-727053D01*
X6228455Y-727201D01*
X6222472Y-727646D01*
X6216663Y-728388D01*
X6211027Y-729427D01*
X6205565Y-730762D01*
X6200277Y-732394D01*
X6195162Y-734322D01*
X6190221Y-736548D01*
X6185453Y-739070D01*
X6180860Y-741889D01*
X6176439Y-745004D01*
X6172193Y-748417D01*
X6168120Y-752125D01*
X6164221Y-756131D01*
X6160495Y-760434D01*
X6156943Y-765033D01*
X6153571Y-769878D01*
X6150417Y-774951D01*
X6147480Y-780251D01*
X6144761Y-785778D01*
X6142260Y-791532D01*
X6139976Y-797513D01*
X6137909Y-803721D01*
X6136060Y-810157D01*
X6134429Y-816819D01*
X6133015Y-823708D01*
X6131818Y-830825D01*
X6130839Y-838168D01*
X6130078Y-845739D01*
X6129534Y-853536D01*
X6129208Y-861561D01*
X6129099Y-869813D01*
X6067921Y-869813D01*
X6067959Y-864680D01*
X6068088Y-858897D01*
X6068303Y-853198D01*
X6068603Y-847583D01*
X6068990Y-842051D01*
X6069462Y-836602D01*
X6070020Y-831237D01*
X6070664Y-825956D01*
X6071394Y-820758D01*
X6072210Y-815643D01*
X6073111Y-810612D01*
X6074099Y-805665D01*
X6075172Y-800801D01*
X6076331Y-796020D01*
X6078907Y-786709D01*
X6081827Y-777732D01*
X6085090Y-769089D01*
X6088696Y-760780D01*
X6092646Y-752805D01*
X6096939Y-745164D01*
X6101576Y-737857D01*
X6106556Y-730883D01*
X6111880Y-724244D01*
X6114663Y-721051D01*
X6120436Y-714969D01*
X6126486Y-709292D01*
X6132815Y-704021D01*
X6139421Y-699155D01*
X6146304Y-694695D01*
X6153466Y-690640D01*
X6160905Y-686990D01*
X6168621Y-683747D01*
X6176615Y-680908D01*
X6184887Y-678475D01*
X6193437Y-676448D01*
X6202264Y-674826D01*
X6211368Y-673610D01*
X6220751Y-672799D01*
X6230411Y-672393D01*
X6235345Y-672342D01*
X6244879Y-672547D01*
G37*
G36*
X5875981Y-672457D02*
G01*
X5884542Y-672800D01*
X5892830Y-673373D01*
X5900847Y-674174D01*
X5908591Y-675205D01*
X5916064Y-676464D01*
X5923265Y-677952D01*
X5930194Y-679670D01*
X5936851Y-681616D01*
X5943236Y-683791D01*
X5949349Y-686196D01*
X5955191Y-688829D01*
X5960760Y-691691D01*
X5966058Y-694782D01*
X5971083Y-698102D01*
X5975837Y-701652D01*
X5980319Y-705430D01*
X5984528Y-709437D01*
X5988466Y-713673D01*
X5992132Y-718138D01*
X5995527Y-722832D01*
X5998649Y-727755D01*
X6001499Y-732907D01*
X6004077Y-738288D01*
X6006384Y-743898D01*
X6008418Y-749737D01*
X6010181Y-755805D01*
X6011672Y-762102D01*
X6012891Y-768628D01*
X6013838Y-775382D01*
X6014513Y-782366D01*
X6014916Y-789579D01*
X5955809Y-789579D01*
X5955298Y-785616D01*
X5954273Y-779921D01*
X5952939Y-774528D01*
X5951296Y-769434D01*
X5949344Y-764641D01*
X5947083Y-760149D01*
X5944513Y-755957D01*
X5940605Y-750836D01*
X5936147Y-746249D01*
X5931140Y-742196D01*
X5927006Y-739490D01*
X5922527Y-737050D01*
X5917701Y-734876D01*
X5912530Y-732968D01*
X5907014Y-731327D01*
X5901151Y-729951D01*
X5894944Y-728842D01*
X5888390Y-727999D01*
X5881491Y-727423D01*
X5874247Y-727112D01*
X5869225Y-727053D01*
X5866785Y-727066D01*
X5859673Y-727263D01*
X5852874Y-727696D01*
X5846389Y-728365D01*
X5840217Y-729270D01*
X5834359Y-730411D01*
X5828814Y-731789D01*
X5823583Y-733402D01*
X5818665Y-735252D01*
X5814060Y-737338D01*
X5808408Y-740486D01*
X5803371Y-744033D01*
X5799005Y-747959D01*
X5795311Y-752261D01*
X5792288Y-756942D01*
X5789937Y-762001D01*
X5788258Y-767437D01*
X5787251Y-773251D01*
X5786915Y-779443D01*
X5786915Y-794342D01*
X5787033Y-797540D01*
X5787755Y-802532D01*
X5789486Y-807963D01*
X5792162Y-812784D01*
X5795783Y-816996D01*
X5800348Y-820598D01*
X5804008Y-822693D01*
X5809517Y-825108D01*
X5814671Y-826877D01*
X5820489Y-828501D01*
X5825288Y-829623D01*
X5830461Y-830665D01*
X5836007Y-831624D01*
X5841927Y-832502D01*
X5848220Y-833299D01*
X5851320Y-833792D01*
X5857159Y-834715D01*
X5862517Y-835555D01*
X5867394Y-836311D01*
X5872814Y-837137D01*
X5878327Y-837956D01*
X5883391Y-838672D01*
X5887454Y-839257D01*
X5892315Y-840006D01*
X5897975Y-840917D01*
X5903302Y-841802D01*
X5909183Y-842799D01*
X5914288Y-843679D01*
X5916879Y-844117D01*
X5922923Y-845176D01*
X5928347Y-846180D01*
X5934037Y-847315D01*
X5938834Y-848373D01*
X5943841Y-849663D01*
X5948520Y-851014D01*
X5953378Y-852509D01*
X5958109Y-854023D01*
X5963364Y-855752D01*
X5968143Y-857356D01*
X5971940Y-858707D01*
X5977107Y-860762D01*
X5981638Y-862852D01*
X5986121Y-865333D01*
X5990614Y-868592D01*
X5991036Y-868954D01*
X5995121Y-872501D01*
X5999174Y-876092D01*
X6003046Y-879572D01*
X6007222Y-883368D01*
X6009573Y-885622D01*
X6013246Y-889685D01*
X6016358Y-893900D01*
X6018909Y-898267D01*
X6020900Y-902786D01*
X6022298Y-906794D01*
X6023875Y-911764D01*
X6025393Y-917049D01*
X6026648Y-921830D01*
X6027861Y-926844D01*
X6028605Y-930307D01*
X6029535Y-935666D01*
X6030242Y-941223D01*
X6030726Y-946978D01*
X6030958Y-951924D01*
X6031036Y-957008D01*
X6030908Y-963006D01*
X6030524Y-968849D01*
X6029885Y-974539D01*
X6028990Y-980073D01*
X6027840Y-985453D01*
X6026433Y-990679D01*
X6024771Y-995750D01*
X6022854Y-1000666D01*
X6020680Y-1005428D01*
X6018251Y-1010035D01*
X6015566Y-1014488D01*
X6012626Y-1018786D01*
X6009430Y-1022929D01*
X6005978Y-1026918D01*
X6002270Y-1030753D01*
X5998307Y-1034433D01*
X5994127Y-1037908D01*
X5989768Y-1041159D01*
X5985231Y-1044186D01*
X5980516Y-1046988D01*
X5975622Y-1049567D01*
X5970549Y-1051921D01*
X5965299Y-1054051D01*
X5959869Y-1055956D01*
X5954262Y-1057638D01*
X5948476Y-1059095D01*
X5942511Y-1060328D01*
X5936369Y-1061337D01*
X5930047Y-1062122D01*
X5923548Y-1062683D01*
X5916870Y-1063019D01*
X5910013Y-1063131D01*
X5901782Y-1062929D01*
X5893605Y-1062322D01*
X5885483Y-1061311D01*
X5877415Y-1059895D01*
X5869401Y-1058074D01*
X5861441Y-1055850D01*
X5853536Y-1053220D01*
X5845686Y-1050186D01*
X5837890Y-1046748D01*
X5830148Y-1042905D01*
X5822460Y-1038657D01*
X5814827Y-1034005D01*
X5807249Y-1028948D01*
X5799724Y-1023487D01*
X5792254Y-1017622D01*
X5784839Y-1011352D01*
X5784079Y-1016262D01*
X5782769Y-1022416D01*
X5781120Y-1028120D01*
X5779131Y-1033373D01*
X5776802Y-1038176D01*
X5774133Y-1042528D01*
X5771125Y-1046430D01*
X5766887Y-1050675D01*
X5765973Y-1051441D01*
X5761002Y-1054908D01*
X5756545Y-1057243D01*
X5751660Y-1059190D01*
X5746348Y-1060747D01*
X5740608Y-1061915D01*
X5734441Y-1062693D01*
X5729535Y-1063022D01*
X5724389Y-1063131D01*
X5722415Y-1063108D01*
X5717171Y-1062845D01*
X5711486Y-1062290D01*
X5706620Y-1061635D01*
X5701472Y-1060794D01*
X5696041Y-1059765D01*
X5690328Y-1058550D01*
X5684333Y-1057147D01*
X5684333Y-1014893D01*
X5686673Y-1015350D01*
X5691772Y-1016015D01*
X5696911Y-1016236D01*
X5700742Y-1016125D01*
X5706023Y-1015539D01*
X5712201Y-1013976D01*
X5717390Y-1011520D01*
X5721591Y-1008171D01*
X5724803Y-1003930D01*
X5727027Y-998795D01*
X5728263Y-992767D01*
X5728541Y-987660D01*
X5728541Y-868469D01*
X5786915Y-868469D01*
X5786915Y-934049D01*
X5787188Y-939489D01*
X5788005Y-944865D01*
X5789369Y-950177D01*
X5791277Y-955424D01*
X5793731Y-960607D01*
X5796730Y-965725D01*
X5800274Y-970779D01*
X5804363Y-975768D01*
X5808998Y-980694D01*
X5814178Y-985554D01*
X5817934Y-988759D01*
X5821865Y-991835D01*
X5825935Y-994713D01*
X5830143Y-997392D01*
X5834489Y-999872D01*
X5838974Y-1002154D01*
X5843596Y-1004238D01*
X5848358Y-1006123D01*
X5853257Y-1007810D01*
X5858295Y-1009298D01*
X5863472Y-1010588D01*
X5868786Y-1011680D01*
X5874239Y-1012573D01*
X5879831Y-1013267D01*
X5885560Y-1013763D01*
X5891428Y-1014061D01*
X5897435Y-1014160D01*
X5901680Y-1014100D01*
X5907821Y-1013782D01*
X5913692Y-1013191D01*
X5919293Y-1012328D01*
X5924623Y-1011192D01*
X5929683Y-1009783D01*
X5934472Y-1008102D01*
X5940437Y-1005436D01*
X5945921Y-1002286D01*
X5950924Y-998651D01*
X5953216Y-996648D01*
X5957357Y-992347D01*
X5960906Y-987653D01*
X5963864Y-982566D01*
X5966230Y-977086D01*
X5968004Y-971212D01*
X5969187Y-964946D01*
X5969686Y-959988D01*
X5969853Y-954809D01*
X5969770Y-951316D01*
X5969337Y-946260D01*
X5968532Y-941422D01*
X5966882Y-935312D01*
X5964571Y-929591D01*
X5961600Y-924260D01*
X5957969Y-919318D01*
X5953677Y-914765D01*
X5948726Y-910601D01*
X5946066Y-908663D01*
X5942004Y-905929D01*
X5936456Y-902608D01*
X5930754Y-899657D01*
X5924900Y-897077D01*
X5918893Y-894866D01*
X5912733Y-893026D01*
X5906421Y-891555D01*
X5901587Y-890696D01*
X5898298Y-890171D01*
X5893226Y-889365D01*
X5887986Y-888536D01*
X5882578Y-887682D01*
X5877003Y-886805D01*
X5871261Y-885905D01*
X5865351Y-884981D01*
X5859274Y-884033D01*
X5853029Y-883062D01*
X5846617Y-882067D01*
X5840038Y-881048D01*
X5837834Y-880703D01*
X5831434Y-879649D01*
X5825349Y-878568D01*
X5819580Y-877458D01*
X5814126Y-876321D01*
X5808988Y-875156D01*
X5802629Y-873559D01*
X5796830Y-871912D01*
X5791592Y-870215D01*
X5786915Y-868469D01*
X5728541Y-868469D01*
X5728541Y-773093D01*
X5728678Y-767018D01*
X5729090Y-761129D01*
X5729777Y-755424D01*
X5730739Y-749905D01*
X5731976Y-744571D01*
X5733487Y-739421D01*
X5735273Y-734457D01*
X5737334Y-729678D01*
X5739669Y-725085D01*
X5742280Y-720676D01*
X5745165Y-716452D01*
X5748325Y-712414D01*
X5751759Y-708560D01*
X5755469Y-704892D01*
X5759453Y-701408D01*
X5763712Y-698110D01*
X5768238Y-694990D01*
X5773022Y-692071D01*
X5778065Y-689353D01*
X5783366Y-686837D01*
X5788926Y-684522D01*
X5794744Y-682408D01*
X5800821Y-680496D01*
X5807157Y-678784D01*
X5813751Y-677275D01*
X5820603Y-675966D01*
X5827714Y-674859D01*
X5835084Y-673953D01*
X5842713Y-673248D01*
X5850599Y-672745D01*
X5858745Y-672443D01*
X5867149Y-672342D01*
X5875981Y-672457D01*
G37*
G36*
X5456577Y-727053D02*
G01*
X5463849Y-727333D01*
X5470891Y-727807D01*
X5477703Y-728474D01*
X5484283Y-729335D01*
X5490632Y-730390D01*
X5496751Y-731638D01*
X5502638Y-733080D01*
X5508295Y-734716D01*
X5513721Y-736545D01*
X5518916Y-738569D01*
X5523880Y-740785D01*
X5528613Y-743196D01*
X5533115Y-745800D01*
X5537387Y-748598D01*
X5541427Y-751589D01*
X5545237Y-754774D01*
X5548815Y-758240D01*
X5552163Y-762071D01*
X5555280Y-766269D01*
X5558166Y-770833D01*
X5560821Y-775764D01*
X5563246Y-781061D01*
X5565439Y-786724D01*
X5567402Y-792754D01*
X5569133Y-799150D01*
X5570634Y-805913D01*
X5571904Y-813042D01*
X5572943Y-820537D01*
X5573751Y-828398D01*
X5574328Y-836626D01*
X5574675Y-845221D01*
X5574790Y-854181D01*
X5574790Y-1047500D01*
X5633775Y-1047500D01*
X5633775Y-680158D01*
X5579675Y-680158D01*
X5579675Y-742684D01*
X5576522Y-738051D01*
X5573382Y-733586D01*
X5570255Y-729289D01*
X5567142Y-725160D01*
X5564042Y-721199D01*
X5560956Y-717405D01*
X5556351Y-712030D01*
X5551777Y-707033D01*
X5547232Y-702413D01*
X5542718Y-698171D01*
X5538234Y-694307D01*
X5533779Y-690821D01*
X5530826Y-688707D01*
X5526366Y-685782D01*
X5521825Y-683145D01*
X5517201Y-680796D01*
X5512497Y-678735D01*
X5507710Y-676961D01*
X5502842Y-675475D01*
X5497893Y-674276D01*
X5492862Y-673365D01*
X5487749Y-672742D01*
X5482555Y-672406D01*
X5479047Y-672342D01*
X5474159Y-672487D01*
X5468873Y-672859D01*
X5463522Y-673373D01*
X5458396Y-673952D01*
X5456577Y-674174D01*
X5456577Y-727053D01*
G37*
G36*
X5156768Y-729129D02*
G01*
X5161576Y-722252D01*
X5166685Y-715820D01*
X5172097Y-709830D01*
X5177811Y-704285D01*
X5183828Y-699183D01*
X5190148Y-694525D01*
X5196769Y-690310D01*
X5203694Y-686539D01*
X5210920Y-683212D01*
X5218449Y-680328D01*
X5226281Y-677888D01*
X5234415Y-675892D01*
X5242851Y-674339D01*
X5251590Y-673230D01*
X5260631Y-672564D01*
X5269975Y-672342D01*
X5278839Y-672548D01*
X5287480Y-673163D01*
X5295898Y-674189D01*
X5304093Y-675625D01*
X5312064Y-677471D01*
X5319812Y-679727D01*
X5327337Y-682394D01*
X5334638Y-685471D01*
X5341717Y-688958D01*
X5348572Y-692855D01*
X5355203Y-697163D01*
X5361612Y-701881D01*
X5367797Y-707009D01*
X5373759Y-712547D01*
X5379498Y-718496D01*
X5385013Y-724855D01*
X5387673Y-728170D01*
X5392739Y-735003D01*
X5397468Y-742106D01*
X5401858Y-749477D01*
X5405911Y-757117D01*
X5409626Y-765026D01*
X5413004Y-773205D01*
X5416043Y-781652D01*
X5418745Y-790368D01*
X5421110Y-799354D01*
X5423136Y-808608D01*
X5424825Y-818132D01*
X5425542Y-822995D01*
X5426176Y-827924D01*
X5426725Y-832922D01*
X5427189Y-837986D01*
X5427569Y-843118D01*
X5427864Y-848317D01*
X5428075Y-853583D01*
X5428202Y-858917D01*
X5428244Y-864317D01*
X5428202Y-870057D01*
X5428077Y-875720D01*
X5427868Y-881306D01*
X5427575Y-886816D01*
X5427198Y-892250D01*
X5426737Y-897606D01*
X5426193Y-902887D01*
X5425565Y-908090D01*
X5424854Y-913217D01*
X5424058Y-918268D01*
X5423179Y-923242D01*
X5422217Y-928139D01*
X5420040Y-937704D01*
X5417528Y-946963D01*
X5414682Y-955916D01*
X5411500Y-964562D01*
X5407984Y-972902D01*
X5404133Y-980936D01*
X5399947Y-988663D01*
X5395426Y-996084D01*
X5390570Y-1003199D01*
X5385380Y-1010008D01*
X5379883Y-1016441D01*
X5374141Y-1022459D01*
X5368152Y-1028062D01*
X5361917Y-1033249D01*
X5355436Y-1038022D01*
X5348709Y-1042380D01*
X5341736Y-1046323D01*
X5334516Y-1049850D01*
X5327051Y-1052963D01*
X5319339Y-1055661D01*
X5311381Y-1057943D01*
X5303177Y-1059811D01*
X5294727Y-1061263D01*
X5286030Y-1062301D01*
X5277088Y-1062924D01*
X5267899Y-1063131D01*
X5263192Y-1063072D01*
X5256281Y-1062764D01*
X5249550Y-1062192D01*
X5243000Y-1061356D01*
X5236630Y-1060256D01*
X5230441Y-1058892D01*
X5224431Y-1057263D01*
X5218602Y-1055371D01*
X5212954Y-1053215D01*
X5207486Y-1050795D01*
X5202198Y-1048110D01*
X5198732Y-1046157D01*
X5193592Y-1042945D01*
X5188520Y-1039394D01*
X5183517Y-1035503D01*
X5178582Y-1031274D01*
X5173717Y-1026705D01*
X5168920Y-1021797D01*
X5164191Y-1016550D01*
X5159531Y-1010963D01*
X5156463Y-1007051D01*
X5153425Y-1002987D01*
X5150418Y-998773D01*
X5150418Y-1047500D01*
X5098394Y-1047500D01*
X5098394Y-869080D01*
X5156768Y-869080D01*
X5156879Y-876874D01*
X5157209Y-884473D01*
X5157760Y-891876D01*
X5158532Y-899084D01*
X5159523Y-906096D01*
X5160735Y-912912D01*
X5162168Y-919533D01*
X5163821Y-925958D01*
X5165694Y-932188D01*
X5167788Y-938222D01*
X5170102Y-944060D01*
X5172637Y-949703D01*
X5175391Y-955150D01*
X5178367Y-960402D01*
X5181562Y-965458D01*
X5184978Y-970319D01*
X5188561Y-974933D01*
X5192287Y-979249D01*
X5196155Y-983267D01*
X5200167Y-986988D01*
X5204322Y-990412D01*
X5208620Y-993537D01*
X5213062Y-996365D01*
X5217646Y-998895D01*
X5222373Y-1001128D01*
X5227244Y-1003063D01*
X5232258Y-1004700D01*
X5237414Y-1006039D01*
X5242714Y-1007081D01*
X5248157Y-1007825D01*
X5253743Y-1008272D01*
X5259473Y-1008421D01*
X5265459Y-1008270D01*
X5271297Y-1007820D01*
X5276988Y-1007068D01*
X5282531Y-1006016D01*
X5287925Y-1004664D01*
X5293172Y-1003011D01*
X5298271Y-1001058D01*
X5303223Y-998804D01*
X5308026Y-996249D01*
X5312681Y-993394D01*
X5317189Y-990238D01*
X5321548Y-986782D01*
X5325760Y-983026D01*
X5329824Y-978968D01*
X5333740Y-974611D01*
X5337508Y-969952D01*
X5341087Y-965045D01*
X5344435Y-959940D01*
X5347552Y-954638D01*
X5350438Y-949138D01*
X5353093Y-943441D01*
X5355517Y-937546D01*
X5357711Y-931454D01*
X5359673Y-925164D01*
X5361405Y-918677D01*
X5362906Y-911992D01*
X5364175Y-905110D01*
X5365214Y-898031D01*
X5366023Y-890753D01*
X5366600Y-883279D01*
X5366946Y-875606D01*
X5367062Y-867737D01*
X5366946Y-859954D01*
X5366600Y-852361D01*
X5366023Y-844956D01*
X5365214Y-837741D01*
X5364175Y-830714D01*
X5362906Y-823876D01*
X5361405Y-817227D01*
X5359673Y-810767D01*
X5357711Y-804496D01*
X5355517Y-798414D01*
X5353093Y-792520D01*
X5350438Y-786816D01*
X5347552Y-781301D01*
X5344435Y-775974D01*
X5341087Y-770836D01*
X5337508Y-765887D01*
X5333743Y-761185D01*
X5329835Y-756786D01*
X5325786Y-752690D01*
X5321594Y-748897D01*
X5317260Y-745408D01*
X5312784Y-742223D01*
X5308166Y-739340D01*
X5303406Y-736762D01*
X5298503Y-734486D01*
X5293459Y-732514D01*
X5288272Y-730845D01*
X5282943Y-729480D01*
X5277472Y-728418D01*
X5271858Y-727660D01*
X5266103Y-727205D01*
X5260205Y-727053D01*
X5254387Y-727203D01*
X5248718Y-727654D01*
X5243198Y-728405D01*
X5237827Y-729457D01*
X5232604Y-730810D01*
X5227530Y-732462D01*
X5222605Y-734416D01*
X5217829Y-736670D01*
X5213202Y-739224D01*
X5208723Y-742080D01*
X5204394Y-745235D01*
X5200213Y-748691D01*
X5196181Y-752448D01*
X5192298Y-756505D01*
X5188564Y-760863D01*
X5184978Y-765521D01*
X5181562Y-770434D01*
X5178367Y-775554D01*
X5175391Y-780883D01*
X5172637Y-786419D01*
X5170102Y-792164D01*
X5167788Y-798116D01*
X5165694Y-804277D01*
X5163821Y-810645D01*
X5162168Y-817221D01*
X5160735Y-824006D01*
X5159523Y-830998D01*
X5158532Y-838199D01*
X5157760Y-845607D01*
X5157209Y-853223D01*
X5156879Y-861048D01*
X5156768Y-869080D01*
X5098394Y-869080D01*
X5098394Y-531659D01*
X5156768Y-531659D01*
X5156768Y-729129D01*
G37*
D11*
%TO.C,REF\u002A\u002A*%
X17349999Y-4550000D03*
X16609999Y-4550000D03*
X15869999Y-4550000D03*
X15129999Y-4550000D03*
X14389999Y-4550000D03*
X13649999Y-4550000D03*
%TD*%
%TO.C,REF\u002A\u002A*%
X16609996Y4549997D03*
X13649996Y4549997D03*
X15869996Y4549997D03*
X15129996Y4549997D03*
X17349996Y4549997D03*
X14389996Y4549997D03*
%TD*%
D12*
%TO.C,H1*%
X33000000Y0D03*
D13*
X33000000Y0D03*
%TD*%
D14*
%TO.C,J1*%
X26990000Y-450000D03*
X21210000Y-450000D03*
D15*
X28420000Y-980000D03*
D16*
X28420000Y3200000D03*
D15*
X19780000Y-980000D03*
D16*
X19780000Y3200000D03*
%TD*%
M02*
