%TF.GenerationSoftware,KiCad,Pcbnew,7.0.6-7.0.6~ubuntu23.04.1*%
%TF.CreationDate,2023-08-05T23:29:43-04:00*%
%TF.ProjectId,udb-s,7564622d-732e-46b6-9963-61645f706362,rev?*%
%TF.SameCoordinates,Original*%
%TF.FileFunction,Legend,Top*%
%TF.FilePolarity,Positive*%
%FSLAX46Y46*%
G04 Gerber Fmt 4.6, Leading zero omitted, Abs format (unit mm)*
G04 Created by KiCad (PCBNEW 7.0.6-7.0.6~ubuntu23.04.1) date 2023-08-05 23:29:43*
%MOMM*%
%LPD*%
G01*
G04 APERTURE LIST*
G04 Aperture macros list*
%AMRoundRect*
0 Rectangle with rounded corners*
0 $1 Rounding radius*
0 $2 $3 $4 $5 $6 $7 $8 $9 X,Y pos of 4 corners*
0 Add a 4 corners polygon primitive as box body*
4,1,4,$2,$3,$4,$5,$6,$7,$8,$9,$2,$3,0*
0 Add four circle primitives for the rounded corners*
1,1,$1+$1,$2,$3*
1,1,$1+$1,$4,$5*
1,1,$1+$1,$6,$7*
1,1,$1+$1,$8,$9*
0 Add four rect primitives between the rounded corners*
20,1,$1+$1,$2,$3,$4,$5,0*
20,1,$1+$1,$4,$5,$6,$7,0*
20,1,$1+$1,$6,$7,$8,$9,0*
20,1,$1+$1,$8,$9,$2,$3,0*%
G04 Aperture macros list end*
%ADD10C,0.120000*%
%ADD11C,0.500000*%
%ADD12RoundRect,0.218750X-0.256250X0.218750X-0.256250X-0.218750X0.256250X-0.218750X0.256250X0.218750X0*%
%ADD13RoundRect,0.150000X-0.512500X-0.150000X0.512500X-0.150000X0.512500X0.150000X-0.512500X0.150000X0*%
%ADD14RoundRect,0.135000X0.135000X0.185000X-0.135000X0.185000X-0.135000X-0.185000X0.135000X-0.185000X0*%
%ADD15C,3.600000*%
%ADD16C,6.000000*%
%ADD17RoundRect,0.150000X-0.150000X-0.625000X0.150000X-0.625000X0.150000X0.625000X-0.150000X0.625000X0*%
%ADD18RoundRect,0.250000X-0.350000X-0.650000X0.350000X-0.650000X0.350000X0.650000X-0.350000X0.650000X0*%
%ADD19C,0.650000*%
%ADD20R,0.600000X1.450000*%
%ADD21R,0.300000X1.450000*%
%ADD22O,1.000000X2.100000*%
%ADD23O,1.000000X1.600000*%
%ADD24RoundRect,0.147500X0.147500X0.172500X-0.147500X0.172500X-0.147500X-0.172500X0.147500X-0.172500X0*%
G04 APERTURE END LIST*
D10*
%TO.C,FB1*%
X18660000Y-2137221D02*
X18660000Y-2462779D01*
X17640000Y-2137221D02*
X17640000Y-2462779D01*
%TO.C,U2*%
X14779999Y1727793D02*
X12979999Y1727793D01*
X14779999Y1727793D02*
X15579999Y1727793D01*
X14779999Y-1392207D02*
X13979999Y-1392207D01*
X14779999Y-1392207D02*
X15579999Y-1392207D01*
%TO.C,R2*%
X14933640Y-2380000D02*
X14626358Y-2380000D01*
X14933640Y-1620000D02*
X14626358Y-1620000D01*
%TO.C,J2*%
X3890000Y567793D02*
X4940000Y567793D01*
X3890000Y-1932207D02*
X3890000Y567793D01*
X4940000Y567793D02*
X4940000Y1557793D01*
X5060000Y-3902207D02*
X8940000Y-3902207D01*
X10110000Y567793D02*
X9060000Y567793D01*
X10110000Y-1932207D02*
X10110000Y567793D01*
%TO.C,J1*%
X28800000Y250000D02*
X28800000Y2250000D01*
X19400000Y250000D02*
X19400000Y2250000D01*
%TO.C,R1*%
X14933640Y-3380000D02*
X14626358Y-3380000D01*
X14933640Y-2620000D02*
X14626358Y-2620000D01*
%TD*%
%LPC*%
D11*
%TO.C,REF\u002A\u002A*%
X17349999Y-4550000D03*
X16609999Y-4550000D03*
X15869999Y-4550000D03*
X15129999Y-4550000D03*
X14389999Y-4550000D03*
X13649999Y-4550000D03*
%TD*%
%TO.C,REF\u002A\u002A*%
X16609996Y4549997D03*
X13649996Y4549997D03*
X15869996Y4549997D03*
X15129996Y4549997D03*
X17349996Y4549997D03*
X14389996Y4549997D03*
%TD*%
D12*
%TO.C,FB1*%
X18150000Y-1512500D03*
X18150000Y-3087500D03*
%TD*%
D13*
%TO.C,U2*%
X13642499Y1117793D03*
X13642499Y167793D03*
X13642499Y-782207D03*
X15917499Y-782207D03*
X15917499Y167793D03*
X15917499Y1117793D03*
%TD*%
D14*
%TO.C,R2*%
X15289999Y-2000000D03*
X14269999Y-2000000D03*
%TD*%
D15*
%TO.C,H1*%
X33000000Y0D03*
D16*
X33000000Y0D03*
%TD*%
D17*
%TO.C,J2*%
X5500000Y782793D03*
X6500000Y782793D03*
X7500000Y782793D03*
X8500000Y782793D03*
D18*
X4200000Y-3092207D03*
X9800000Y-3092207D03*
%TD*%
D19*
%TO.C,J1*%
X26990000Y-450000D03*
X21210000Y-450000D03*
D20*
X27350000Y-1895000D03*
X26550000Y-1895000D03*
D21*
X25350000Y-1895000D03*
X24350000Y-1895000D03*
X23850000Y-1895000D03*
X22850000Y-1895000D03*
D20*
X21650000Y-1895000D03*
X20850000Y-1895000D03*
X20850000Y-1895000D03*
X21650000Y-1895000D03*
D21*
X22350000Y-1895000D03*
X23350000Y-1895000D03*
X24850000Y-1895000D03*
X25850000Y-1895000D03*
D20*
X26550000Y-1895000D03*
X27350000Y-1895000D03*
D22*
X28420000Y-980000D03*
D23*
X28420000Y3200000D03*
D22*
X19780000Y-980000D03*
D23*
X19780000Y3200000D03*
%TD*%
D14*
%TO.C,R1*%
X15289999Y-3000000D03*
X14269999Y-3000000D03*
%TD*%
D24*
%TO.C,F2*%
X15264999Y2500000D03*
X14294999Y2500000D03*
%TD*%
%LPD*%
M02*
