%TF.GenerationSoftware,KiCad,Pcbnew,7.0.6-7.0.6~ubuntu23.04.1*%
%TF.CreationDate,2023-07-28T19:39:51-04:00*%
%TF.ProjectId,udb-s,7564622d-732e-46b6-9963-61645f706362,rev?*%
%TF.SameCoordinates,Original*%
%TF.FileFunction,Copper,L1,Top*%
%TF.FilePolarity,Positive*%
%FSLAX46Y46*%
G04 Gerber Fmt 4.6, Leading zero omitted, Abs format (unit mm)*
G04 Created by KiCad (PCBNEW 7.0.6-7.0.6~ubuntu23.04.1) date 2023-07-28 19:39:51*
%MOMM*%
%LPD*%
G01*
G04 APERTURE LIST*
G04 Aperture macros list*
%AMRoundRect*
0 Rectangle with rounded corners*
0 $1 Rounding radius*
0 $2 $3 $4 $5 $6 $7 $8 $9 X,Y pos of 4 corners*
0 Add a 4 corners polygon primitive as box body*
4,1,4,$2,$3,$4,$5,$6,$7,$8,$9,$2,$3,0*
0 Add four circle primitives for the rounded corners*
1,1,$1+$1,$2,$3*
1,1,$1+$1,$4,$5*
1,1,$1+$1,$6,$7*
1,1,$1+$1,$8,$9*
0 Add four rect primitives between the rounded corners*
20,1,$1+$1,$2,$3,$4,$5,0*
20,1,$1+$1,$4,$5,$6,$7,0*
20,1,$1+$1,$6,$7,$8,$9,0*
20,1,$1+$1,$8,$9,$2,$3,0*%
G04 Aperture macros list end*
%TA.AperFunction,SMDPad,CuDef*%
%ADD10R,0.600000X1.450000*%
%TD*%
%TA.AperFunction,SMDPad,CuDef*%
%ADD11R,0.300000X1.450000*%
%TD*%
%TA.AperFunction,ComponentPad*%
%ADD12O,1.000000X1.600000*%
%TD*%
%TA.AperFunction,ComponentPad*%
%ADD13O,1.000000X2.100000*%
%TD*%
%TA.AperFunction,SMDPad,CuDef*%
%ADD14RoundRect,0.218750X-0.256250X0.218750X-0.256250X-0.218750X0.256250X-0.218750X0.256250X0.218750X0*%
%TD*%
%TA.AperFunction,SMDPad,CuDef*%
%ADD15RoundRect,0.147500X0.147500X0.172500X-0.147500X0.172500X-0.147500X-0.172500X0.147500X-0.172500X0*%
%TD*%
%TA.AperFunction,SMDPad,CuDef*%
%ADD16RoundRect,0.150000X-0.512500X-0.150000X0.512500X-0.150000X0.512500X0.150000X-0.512500X0.150000X0*%
%TD*%
%TA.AperFunction,SMDPad,CuDef*%
%ADD17RoundRect,0.250000X-0.350000X-0.650000X0.350000X-0.650000X0.350000X0.650000X-0.350000X0.650000X0*%
%TD*%
%TA.AperFunction,SMDPad,CuDef*%
%ADD18RoundRect,0.150000X-0.150000X-0.625000X0.150000X-0.625000X0.150000X0.625000X-0.150000X0.625000X0*%
%TD*%
%TA.AperFunction,SMDPad,CuDef*%
%ADD19RoundRect,0.135000X0.135000X0.185000X-0.135000X0.185000X-0.135000X-0.185000X0.135000X-0.185000X0*%
%TD*%
%TA.AperFunction,ConnectorPad*%
%ADD20C,6.000000*%
%TD*%
%TA.AperFunction,ComponentPad*%
%ADD21C,3.600000*%
%TD*%
%TA.AperFunction,ComponentPad*%
%ADD22C,6.000000*%
%TD*%
%TA.AperFunction,ViaPad*%
%ADD23C,0.600000*%
%TD*%
%TA.AperFunction,Conductor*%
%ADD24C,0.250000*%
%TD*%
%TA.AperFunction,Conductor*%
%ADD25C,0.200000*%
%TD*%
%TA.AperFunction,Conductor*%
%ADD26C,0.500000*%
%TD*%
G04 APERTURE END LIST*
D10*
%TO.P,J1,A1,GND*%
%TO.N,GND*%
X27350000Y-1895000D03*
%TO.P,J1,A4,VBUS*%
%TO.N,VBUS*%
X26550000Y-1895000D03*
D11*
%TO.P,J1,A5,CC1*%
%TO.N,Net-(J1-CC1)*%
X25350000Y-1895000D03*
%TO.P,J1,A6,D+*%
%TO.N,D+*%
X24350000Y-1895000D03*
%TO.P,J1,A7,D-*%
%TO.N,D-*%
X23850000Y-1895000D03*
%TO.P,J1,A8,SBU1*%
%TO.N,unconnected-(J1-SBU1-PadA8)*%
X22850000Y-1895000D03*
D10*
%TO.P,J1,A9,VBUS*%
%TO.N,VBUS*%
X21650000Y-1895000D03*
%TO.P,J1,A12,GND*%
%TO.N,GND*%
X20850000Y-1895000D03*
%TO.P,J1,B1,GND*%
X20850000Y-1895000D03*
%TO.P,J1,B4,VBUS*%
%TO.N,VBUS*%
X21650000Y-1895000D03*
D11*
%TO.P,J1,B5,CC2*%
%TO.N,Net-(J1-CC2)*%
X22350000Y-1895000D03*
%TO.P,J1,B6,D+*%
%TO.N,D+*%
X23350000Y-1895000D03*
%TO.P,J1,B7,D-*%
%TO.N,D-*%
X24850000Y-1895000D03*
%TO.P,J1,B8,SBU2*%
%TO.N,unconnected-(J1-SBU2-PadB8)*%
X25850000Y-1895000D03*
D10*
%TO.P,J1,B9,VBUS*%
%TO.N,VBUS*%
X26550000Y-1895000D03*
%TO.P,J1,B12,GND*%
%TO.N,GND*%
X27350000Y-1895000D03*
D12*
%TO.P,J1,S1,SHIELD*%
%TO.N,GNDPWR*%
X28420000Y3200000D03*
D13*
X28420000Y-980000D03*
X19780000Y-980000D03*
D12*
X19780000Y3200000D03*
%TD*%
D14*
%TO.P,FB1,2*%
%TO.N,GND*%
X18150000Y-3087500D03*
%TO.P,FB1,1*%
%TO.N,GNDPWR*%
X18150000Y-1512500D03*
%TD*%
D15*
%TO.P,F2,1*%
%TO.N,VBUS*%
X15264999Y2500000D03*
%TO.P,F2,2*%
%TO.N,5V*%
X14294999Y2500000D03*
%TD*%
D16*
%TO.P,U2,1,I/O1*%
%TO.N,D-*%
X13642499Y1117793D03*
%TO.P,U2,2,GND*%
%TO.N,GND*%
X13642499Y167793D03*
%TO.P,U2,3,I/O2*%
%TO.N,D+*%
X13642499Y-782207D03*
%TO.P,U2,4,I/O2*%
X15917499Y-782207D03*
%TO.P,U2,5,VBUS*%
%TO.N,5V*%
X15917499Y167793D03*
%TO.P,U2,6,I/O1*%
%TO.N,D-*%
X15917499Y1117793D03*
%TD*%
D17*
%TO.P,J2,MP,MountPin*%
%TO.N,GND*%
X4200000Y-3092207D03*
X9800000Y-3092207D03*
D18*
%TO.P,J2,4,Pin_4*%
X8500000Y782793D03*
%TO.P,J2,3,Pin_3*%
%TO.N,D+*%
X7500000Y782793D03*
%TO.P,J2,2,Pin_2*%
%TO.N,D-*%
X6500000Y782793D03*
%TO.P,J2,1,Pin_1*%
%TO.N,5V*%
X5500000Y782793D03*
%TD*%
D19*
%TO.P,R2,1*%
%TO.N,Net-(J1-CC2)*%
X15289999Y-2000000D03*
%TO.P,R2,2*%
%TO.N,GND*%
X14269999Y-2000000D03*
%TD*%
D20*
%TO.P,H1,1,1*%
%TO.N,GNDPWR*%
X33000000Y0D03*
D21*
X33000000Y0D03*
%TD*%
D22*
%TO.P,H2,1*%
%TO.N,N/C*%
X0Y0D03*
%TD*%
D19*
%TO.P,R1,1*%
%TO.N,Net-(J1-CC1)*%
X15289999Y-3000000D03*
%TO.P,R1,2*%
%TO.N,GND*%
X14269999Y-3000000D03*
%TD*%
D23*
%TO.N,GND*%
X19775000Y-3575000D03*
%TO.N,5V*%
X13460000Y2490000D03*
%TO.N,VBUS*%
X16430000Y2500000D03*
%TO.N,GND*%
X13440000Y-2000000D03*
X13440000Y-3000000D03*
%TO.N,Net-(J1-CC1)*%
X16220000Y-3000000D03*
%TO.N,Net-(J1-CC2)*%
X16210000Y-2000000D03*
%TO.N,Net-(J1-CC1)*%
X24490000Y1330000D03*
%TO.N,Net-(J1-CC2)*%
X22350000Y-630000D03*
%TO.N,VBUS*%
X26100000Y-3290000D03*
X21890000Y-3300000D03*
%TO.N,GND*%
X27300000Y-2970000D03*
X20880000Y-3290000D03*
X8489999Y1908293D03*
%TO.N,5V*%
X5499999Y2417793D03*
X14804499Y167793D03*
%TO.N,GND*%
X12369999Y387793D03*
%TD*%
D24*
%TO.N,D+*%
X23710899Y228693D02*
X23532296Y407296D01*
X23532296Y407296D02*
X22886799Y1052793D01*
X23582793Y-192207D02*
X23582793Y356799D01*
X23582793Y356799D02*
X23532296Y407296D01*
X23350000Y-425000D02*
X23558693Y-216307D01*
X23558693Y-216307D02*
X23744099Y-216307D01*
X23350000Y-1895000D02*
X23350000Y-425000D01*
X23350000Y-425000D02*
X23582793Y-192207D01*
X23582793Y-192207D02*
X23719999Y-192207D01*
D25*
%TO.N,Net-(J1-CC2)*%
X22350000Y-1895000D02*
X22350000Y-630000D01*
D26*
%TO.N,GND*%
X19287500Y-3087500D02*
X19775000Y-3575000D01*
X18150000Y-3087500D02*
X19287500Y-3087500D01*
%TO.N,GNDPWR*%
X18075000Y-1425000D02*
X18725000Y-1425000D01*
X18725000Y-1425000D02*
X19170000Y-980000D01*
X19170000Y-980000D02*
X19780000Y-980000D01*
%TO.N,5V*%
X13470000Y2500000D02*
X13460000Y2490000D01*
X14294999Y2500000D02*
X13470000Y2500000D01*
%TO.N,VBUS*%
X16430000Y2500000D02*
X15264999Y2500000D01*
D25*
%TO.N,Net-(J1-CC1)*%
X25350000Y470000D02*
X25350000Y-1895000D01*
X24490000Y1330000D02*
X25350000Y470000D01*
D26*
%TO.N,GND*%
X20880000Y-3290000D02*
X20880000Y-2834758D01*
X20880000Y-2834758D02*
X20875000Y-2829758D01*
X20875000Y-2829758D02*
X20875000Y-1895000D01*
D25*
X14269999Y-2000000D02*
X13440000Y-2000000D01*
X14269999Y-3000000D02*
X13440000Y-3000000D01*
%TO.N,Net-(J1-CC1)*%
X15289999Y-3000000D02*
X16220000Y-3000000D01*
%TO.N,Net-(J1-CC2)*%
X15289999Y-2000000D02*
X16210000Y-2000000D01*
D26*
%TO.N,VBUS*%
X26110000Y-3300000D02*
X26550000Y-2860000D01*
X26550000Y-2860000D02*
X26550000Y-1895000D01*
X21650000Y-1895000D02*
X21650000Y-3060000D01*
X21650000Y-3060000D02*
X21890000Y-3300000D01*
%TO.N,GND*%
X27300000Y-2950000D02*
X27325000Y-2925000D01*
X27325000Y-2925000D02*
X27325000Y-1895000D01*
X8489999Y1908293D02*
X8489999Y792794D01*
X8489999Y792794D02*
X8500000Y782793D01*
%TO.N,5V*%
X5500000Y2417792D02*
X5499999Y2417793D01*
X5500000Y782793D02*
X5500000Y2417792D01*
D24*
%TO.N,D-*%
X24850000Y-1895000D02*
X24850000Y-274008D01*
X24850000Y-274008D02*
X23073199Y1502793D01*
X17636250Y392793D02*
X16911250Y1117793D01*
X23073199Y1502793D02*
X18906799Y1502793D01*
X18906799Y1502793D02*
X17796799Y392793D01*
X17796799Y392793D02*
X17636250Y392793D01*
X16911250Y1117793D02*
X15917499Y1117793D01*
%TO.N,D+*%
X24350000Y-1895000D02*
X24350000Y-410408D01*
X24350000Y-410408D02*
X24155899Y-216307D01*
%TO.N,D-*%
X23850000Y-1895000D02*
X23850000Y-2742208D01*
X23850000Y-2742208D02*
X24052792Y-2945000D01*
X24052792Y-2945000D02*
X24657206Y-2945000D01*
X24657206Y-2945000D02*
X24850000Y-2752206D01*
X24850000Y-2752206D02*
X24850000Y-1895000D01*
%TO.N,D+*%
X23925899Y13693D02*
X23710899Y228693D01*
X23719999Y-192207D02*
X23719999Y219593D01*
X23719999Y219593D02*
X23710899Y228693D01*
X23719999Y-192207D02*
X23925899Y13693D01*
X24155899Y-216307D02*
X23925899Y13693D01*
X23719999Y-192207D02*
X23744099Y-216307D01*
X23744099Y-216307D02*
X24155899Y-216307D01*
X13642499Y-782207D02*
X15917499Y-782207D01*
%TO.N,D-*%
X13642499Y1117793D02*
X15917499Y1117793D01*
X13642499Y1117793D02*
X11519999Y1117793D01*
X11519999Y1117793D02*
X11194999Y1442793D01*
X11194999Y1442793D02*
X11194999Y2000445D01*
X11194999Y2000445D02*
X10212651Y2982793D01*
X10212651Y2982793D02*
X7626799Y2982793D01*
X7626799Y2982793D02*
X6500000Y1855994D01*
X6500000Y1855994D02*
X6500000Y782793D01*
%TO.N,D+*%
X13642499Y-782207D02*
X12549999Y-782207D01*
X7499999Y2219593D02*
X7500000Y782793D01*
X12549999Y-782207D02*
X12209999Y-442207D01*
X12209999Y-442207D02*
X12209999Y-440407D01*
X12209999Y-440407D02*
X10744999Y1024593D01*
X10744999Y1024593D02*
X10744999Y1814045D01*
X10744999Y1814045D02*
X10026251Y2532793D01*
X10026251Y2532793D02*
X7813199Y2532793D01*
X7813199Y2532793D02*
X7499999Y2219593D01*
D25*
%TO.N,5V*%
X15917499Y167793D02*
X14804499Y167793D01*
%TO.N,GND*%
X12589999Y167793D02*
X12369999Y387793D01*
X13642499Y167793D02*
X12589999Y167793D01*
D24*
%TO.N,D+*%
X19093199Y1052793D02*
X17983199Y-57207D01*
X17983199Y-57207D02*
X17636250Y-57207D01*
X17636250Y-57207D02*
X16911250Y-782207D01*
X16911250Y-782207D02*
X15917499Y-782207D01*
X22886799Y1052793D02*
X19093199Y1052793D01*
%TD*%
%TA.AperFunction,Conductor*%
%TO.N,GND*%
G36*
X12842808Y763297D02*
G01*
X12855119Y748295D01*
X12865835Y732258D01*
X12877302Y715096D01*
X12993241Y637629D01*
X13095476Y617293D01*
X14189521Y617294D01*
X14291757Y637629D01*
X14291758Y637631D01*
X14300767Y641361D01*
X14302939Y636116D01*
X14357920Y647237D01*
X14421057Y605344D01*
X14436080Y531077D01*
X14421236Y495076D01*
X14333040Y363081D01*
X14333039Y363079D01*
X14299518Y194556D01*
X14294194Y167793D01*
X14323387Y21033D01*
X14333039Y-27492D01*
X14333040Y-27494D01*
X14421236Y-159489D01*
X14436018Y-233804D01*
X14393921Y-296806D01*
X14319606Y-311588D01*
X14301475Y-304070D01*
X14300769Y-305776D01*
X14291758Y-302044D01*
X14291757Y-302043D01*
X14189522Y-281707D01*
X14189521Y-281707D01*
X13095479Y-281707D01*
X13095472Y-281708D01*
X12993241Y-302042D01*
X12993240Y-302043D01*
X12877302Y-379509D01*
X12855119Y-412709D01*
X12792118Y-454805D01*
X12772804Y-456707D01*
X12725834Y-456707D01*
X12655830Y-427711D01*
X12508144Y-280025D01*
X12501636Y-271717D01*
X12448173Y-218253D01*
X12446123Y-216075D01*
X12400437Y-164507D01*
X12390545Y-157678D01*
X12391636Y-156096D01*
X12375728Y-145809D01*
X11606630Y623289D01*
X11577634Y693293D01*
X11606630Y763297D01*
X11676634Y792293D01*
X12772804Y792293D01*
X12842808Y763297D01*
G37*
%TD.AperFunction*%
%TA.AperFunction,Conductor*%
G36*
X19148988Y3971005D02*
G01*
X19177984Y3901001D01*
X19158912Y3845447D01*
X19159315Y3845228D01*
X19158007Y3842813D01*
X19157109Y3840194D01*
X19155411Y3838013D01*
X19155410Y3838012D01*
X19155410Y3838011D01*
X19097725Y3669980D01*
X19079500Y3616893D01*
X19079500Y2841955D01*
X19105643Y2685285D01*
X19108294Y2669403D01*
X19145383Y2600868D01*
X19219561Y2463797D01*
X19219562Y2463796D01*
X19219563Y2463795D01*
X19391565Y2305456D01*
X19605660Y2211546D01*
X19838647Y2192240D01*
X20065278Y2249631D01*
X20260996Y2377499D01*
X20404590Y2561989D01*
X20480500Y2783107D01*
X20480500Y3558045D01*
X20451706Y3730597D01*
X20393576Y3838013D01*
X20384988Y3853883D01*
X20377172Y3929250D01*
X20424938Y3988069D01*
X20472056Y4000001D01*
X27718984Y4000001D01*
X27788988Y3971005D01*
X27817984Y3901001D01*
X27798912Y3845447D01*
X27799315Y3845228D01*
X27798007Y3842813D01*
X27797109Y3840194D01*
X27795411Y3838013D01*
X27795410Y3838012D01*
X27795410Y3838011D01*
X27737725Y3669980D01*
X27719500Y3616893D01*
X27719500Y2841955D01*
X27745643Y2685285D01*
X27748294Y2669403D01*
X27785383Y2600868D01*
X27859561Y2463797D01*
X27859562Y2463796D01*
X27859563Y2463795D01*
X28031565Y2305456D01*
X28245660Y2211546D01*
X28478647Y2192240D01*
X28705278Y2249631D01*
X28900996Y2377499D01*
X29044590Y2561989D01*
X29120500Y2783107D01*
X29120500Y3558045D01*
X29091706Y3730597D01*
X29033576Y3838013D01*
X29024988Y3853883D01*
X29017172Y3929250D01*
X29064938Y3988069D01*
X29112056Y4000001D01*
X31892143Y4000001D01*
X31892147Y4000000D01*
X31911837Y4000000D01*
X31998311Y4000000D01*
X32001672Y3999886D01*
X32541296Y3962975D01*
X32547974Y3962057D01*
X33075870Y3852359D01*
X33082377Y3850535D01*
X33590410Y3669980D01*
X33596606Y3667290D01*
X34075332Y3419235D01*
X34081107Y3415722D01*
X34521584Y3104799D01*
X34526826Y3100534D01*
X34690828Y2947367D01*
X34722197Y2878394D01*
X34695608Y2807441D01*
X34626635Y2776072D01*
X34571527Y2790603D01*
X34457493Y2860484D01*
X34457487Y2860487D01*
X33992068Y3053269D01*
X33992069Y3053269D01*
X33502215Y3170873D01*
X33042900Y3207021D01*
X33000000Y3210397D01*
X32999999Y3210397D01*
X32497784Y3170873D01*
X32007931Y3053269D01*
X31542512Y2860487D01*
X31542500Y2860481D01*
X31112983Y2597272D01*
X31112970Y2597262D01*
X30729916Y2270102D01*
X30729898Y2270084D01*
X30402738Y1887030D01*
X30402728Y1887017D01*
X30139519Y1457500D01*
X30139513Y1457488D01*
X29946731Y992069D01*
X29829127Y502216D01*
X29789603Y0D01*
X29829127Y-502215D01*
X29946731Y-992068D01*
X30139513Y-1457487D01*
X30139519Y-1457499D01*
X30402728Y-1887016D01*
X30402738Y-1887029D01*
X30702291Y-2237760D01*
X30729907Y-2270093D01*
X30729913Y-2270098D01*
X30729916Y-2270101D01*
X31081052Y-2570000D01*
X31112976Y-2597266D01*
X31112978Y-2597267D01*
X31112983Y-2597271D01*
X31542500Y-2860480D01*
X31542512Y-2860486D01*
X31712978Y-2931095D01*
X31995707Y-3048205D01*
X32007931Y-3053268D01*
X32007933Y-3053269D01*
X32497783Y-3170872D01*
X33000000Y-3210397D01*
X33502217Y-3170872D01*
X33992067Y-3053269D01*
X34457490Y-2860485D01*
X34571529Y-2790601D01*
X34646365Y-2778748D01*
X34707666Y-2823285D01*
X34719520Y-2898123D01*
X34690828Y-2947366D01*
X34526826Y-3100533D01*
X34521579Y-3104802D01*
X34081107Y-3415721D01*
X34075328Y-3419236D01*
X33596614Y-3667285D01*
X33590410Y-3669979D01*
X33082377Y-3850534D01*
X33075864Y-3852359D01*
X32547987Y-3962054D01*
X32541286Y-3962975D01*
X32375574Y-3974310D01*
X32001672Y-3999885D01*
X31998311Y-4000000D01*
X21941502Y-4000000D01*
X21895173Y-3980810D01*
X21893499Y-3983316D01*
X21838498Y-4000000D01*
X1001688Y-4000000D01*
X998326Y-3999885D01*
X589771Y-3971940D01*
X458713Y-3962976D01*
X452013Y-3962055D01*
X313560Y-3933284D01*
X-75865Y-3852360D01*
X-82379Y-3850535D01*
X-590408Y-3669981D01*
X-596612Y-3667287D01*
X-1075331Y-3419234D01*
X-1081110Y-3415719D01*
X-1361153Y-3218044D01*
X14819499Y-3218044D01*
X14838965Y-3315906D01*
X14913117Y-3426882D01*
X15024093Y-3501034D01*
X15121955Y-3520500D01*
X15121956Y-3520500D01*
X15458042Y-3520500D01*
X15458043Y-3520500D01*
X15555905Y-3501034D01*
X15666881Y-3426882D01*
X15703330Y-3372331D01*
X15766332Y-3330235D01*
X15840648Y-3345018D01*
X15855650Y-3357329D01*
X15859157Y-3360836D01*
X15859160Y-3360840D01*
X16024715Y-3471460D01*
X16220000Y-3510305D01*
X16415285Y-3471460D01*
X16580840Y-3360840D01*
X16691460Y-3195285D01*
X16730305Y-3000000D01*
X16691460Y-2804715D01*
X16580840Y-2639160D01*
X16490765Y-2578974D01*
X16448669Y-2515973D01*
X16463451Y-2441658D01*
X16490764Y-2414344D01*
X16570840Y-2360840D01*
X16681460Y-2195285D01*
X16720305Y-2000000D01*
X16681460Y-1804715D01*
X16570840Y-1639160D01*
X16405285Y-1528540D01*
X16210000Y-1489695D01*
X16014714Y-1528540D01*
X16014711Y-1528542D01*
X15841053Y-1644577D01*
X15839215Y-1641827D01*
X15781629Y-1665672D01*
X15711628Y-1636668D01*
X15699325Y-1621673D01*
X15666884Y-1573122D01*
X15666882Y-1573120D01*
X15666881Y-1573118D01*
X15555905Y-1498966D01*
X15555901Y-1498965D01*
X15454548Y-1478803D01*
X15416127Y-1453130D01*
X15409656Y-1462816D01*
X15354655Y-1479500D01*
X15121954Y-1479500D01*
X15097654Y-1484333D01*
X15024093Y-1498966D01*
X15024091Y-1498966D01*
X15024091Y-1498967D01*
X15024089Y-1498968D01*
X14913119Y-1573116D01*
X14913115Y-1573120D01*
X14838967Y-1684090D01*
X14838966Y-1684092D01*
X14838965Y-1684094D01*
X14819499Y-1781956D01*
X14819499Y-2218044D01*
X14838965Y-2315906D01*
X14838966Y-2315907D01*
X14838967Y-2315909D01*
X14913118Y-2426884D01*
X14916234Y-2430000D01*
X14917919Y-2434068D01*
X14918534Y-2434989D01*
X14918350Y-2435111D01*
X14945227Y-2500005D01*
X14918351Y-2564888D01*
X14918534Y-2565011D01*
X14917919Y-2565930D01*
X14916234Y-2570000D01*
X14913118Y-2573115D01*
X14838967Y-2684090D01*
X14838966Y-2684092D01*
X14838965Y-2684094D01*
X14819499Y-2781956D01*
X14819499Y-3218044D01*
X-1361153Y-3218044D01*
X-1478178Y-3135439D01*
X-1521583Y-3104800D01*
X-1526827Y-3100534D01*
X-1690832Y-2947364D01*
X-1722201Y-2878391D01*
X-1695612Y-2807438D01*
X-1626639Y-2776069D01*
X-1571533Y-2790599D01*
X-1518195Y-2823285D01*
X-1457494Y-2860483D01*
X-1457488Y-2860486D01*
X-1287022Y-2931095D01*
X-1004293Y-3048205D01*
X-992069Y-3053268D01*
X-992067Y-3053269D01*
X-502217Y-3170872D01*
X0Y-3210397D01*
X502217Y-3170872D01*
X992067Y-3053269D01*
X1457490Y-2860485D01*
X1457494Y-2860482D01*
X1457499Y-2860480D01*
X1887016Y-2597271D01*
X1887016Y-2597270D01*
X1887024Y-2597266D01*
X2270093Y-2270093D01*
X2597266Y-1887024D01*
X2614879Y-1858282D01*
X2860480Y-1457499D01*
X2860482Y-1457494D01*
X2860485Y-1457490D01*
X3053269Y-992067D01*
X3170872Y-502217D01*
X3210397Y0D01*
X3170872Y502217D01*
X3053269Y992067D01*
X2868618Y1437856D01*
X2860486Y1457488D01*
X2860480Y1457500D01*
X2597271Y1887017D01*
X2597261Y1887030D01*
X2270101Y2270084D01*
X2270098Y2270087D01*
X2270093Y2270093D01*
X2270086Y2270099D01*
X2270083Y2270102D01*
X2097160Y2417793D01*
X4989694Y2417793D01*
X5028539Y2222508D01*
X5032814Y2216110D01*
X5049500Y2161108D01*
X5049500Y1618979D01*
X5032816Y1563979D01*
X5019838Y1544557D01*
X5019836Y1544553D01*
X5019836Y1544551D01*
X5015050Y1520490D01*
X4999500Y1442317D01*
X4999500Y123274D01*
X4999501Y123267D01*
X5019835Y21036D01*
X5019836Y21035D01*
X5097301Y-94902D01*
X5097304Y-94905D01*
X5201474Y-164508D01*
X5213242Y-172371D01*
X5315477Y-192707D01*
X5684522Y-192706D01*
X5786758Y-172371D01*
X5902697Y-94904D01*
X5917682Y-72475D01*
X5980681Y-30378D01*
X6054997Y-45157D01*
X6082314Y-72473D01*
X6097300Y-94901D01*
X6097304Y-94905D01*
X6201474Y-164508D01*
X6213242Y-172371D01*
X6315477Y-192707D01*
X6684522Y-192706D01*
X6786758Y-172371D01*
X6902697Y-94904D01*
X6917683Y-72474D01*
X6980684Y-30378D01*
X7055000Y-45158D01*
X7082317Y-72475D01*
X7097302Y-94903D01*
X7097304Y-94905D01*
X7201474Y-164508D01*
X7213242Y-172371D01*
X7315477Y-192707D01*
X7684522Y-192706D01*
X7786758Y-172371D01*
X7902697Y-94904D01*
X7980164Y21035D01*
X8000500Y123270D01*
X8000499Y1442315D01*
X7980164Y1544551D01*
X7902697Y1660490D01*
X7902698Y1660490D01*
X7869497Y1682674D01*
X7827401Y1745676D01*
X7825499Y1764989D01*
X7825499Y1901163D01*
X7825499Y2043763D01*
X7854493Y2113761D01*
X7919030Y2178298D01*
X7989033Y2207293D01*
X9850416Y2207293D01*
X9920420Y2178297D01*
X10390503Y1708214D01*
X10419499Y1638210D01*
X10419499Y1063173D01*
X10417877Y1045327D01*
X10410368Y1004355D01*
X10410368Y1004350D01*
X10430867Y938564D01*
X10431670Y935684D01*
X10448157Y868798D01*
X10452868Y859822D01*
X10458104Y851161D01*
X10506823Y802441D01*
X10508873Y800264D01*
X10554562Y748692D01*
X10564454Y741864D01*
X10563360Y740280D01*
X10579270Y729995D01*
X11911855Y-602590D01*
X11918367Y-610902D01*
X11971823Y-664359D01*
X11973871Y-666534D01*
X12014680Y-712598D01*
X12019562Y-718108D01*
X12029454Y-724936D01*
X12028360Y-726520D01*
X12044270Y-736805D01*
X12292561Y-985096D01*
X12304029Y-998857D01*
X12327692Y-1033139D01*
X12388692Y-1065154D01*
X12391273Y-1066609D01*
X12450264Y-1102270D01*
X12450265Y-1102270D01*
X12459922Y-1105279D01*
X12469770Y-1107707D01*
X12538660Y-1107707D01*
X12541625Y-1107796D01*
X12610429Y-1111958D01*
X12610433Y-1111956D01*
X12622252Y-1109791D01*
X12622598Y-1111682D01*
X12641126Y-1107707D01*
X12772804Y-1107707D01*
X12842808Y-1136703D01*
X12855119Y-1151705D01*
X12877302Y-1184904D01*
X12993241Y-1262371D01*
X13095476Y-1282707D01*
X14189521Y-1282706D01*
X14291757Y-1262371D01*
X14407696Y-1184904D01*
X14429878Y-1151705D01*
X14492880Y-1109609D01*
X14512194Y-1107707D01*
X15047804Y-1107707D01*
X15117808Y-1136703D01*
X15130119Y-1151705D01*
X15152302Y-1184904D01*
X15268241Y-1262371D01*
X15370476Y-1282707D01*
X15373970Y-1283402D01*
X15412391Y-1309075D01*
X15418863Y-1299390D01*
X15473860Y-1282706D01*
X16464521Y-1282706D01*
X16566757Y-1262371D01*
X16682696Y-1184904D01*
X16704878Y-1151705D01*
X16767880Y-1109609D01*
X16787194Y-1107707D01*
X16872671Y-1107707D01*
X16890516Y-1109328D01*
X16931491Y-1116838D01*
X16997320Y-1096324D01*
X17000104Y-1095548D01*
X17067045Y-1079049D01*
X17067045Y-1079048D01*
X17067047Y-1079048D01*
X17076015Y-1074340D01*
X17084683Y-1069101D01*
X17120645Y-1033138D01*
X17133418Y-1020364D01*
X17135539Y-1018366D01*
X17187149Y-972646D01*
X17187149Y-972644D01*
X17187151Y-972643D01*
X17193979Y-962751D01*
X17195566Y-963846D01*
X17205850Y-947933D01*
X17742082Y-411703D01*
X17812085Y-382707D01*
X17944620Y-382707D01*
X17962465Y-384328D01*
X18003440Y-391838D01*
X18069269Y-371324D01*
X18072053Y-370548D01*
X18138994Y-354049D01*
X18138994Y-354048D01*
X18138996Y-354048D01*
X18147964Y-349340D01*
X18156632Y-344101D01*
X18165821Y-334912D01*
X18205367Y-295364D01*
X18207488Y-293366D01*
X18259098Y-247646D01*
X18259098Y-247644D01*
X18259100Y-247643D01*
X18265928Y-237751D01*
X18267515Y-238846D01*
X18277799Y-222933D01*
X19199031Y698297D01*
X19269034Y727293D01*
X22710964Y727293D01*
X22780968Y698297D01*
X23228297Y250968D01*
X23257293Y180964D01*
X23257293Y-16372D01*
X23228297Y-86376D01*
X23228296Y-86376D01*
X23147112Y-167559D01*
X23133349Y-179029D01*
X23099068Y-202692D01*
X23067045Y-263703D01*
X23065577Y-266306D01*
X23029936Y-325265D01*
X23026929Y-334912D01*
X23024500Y-344770D01*
X23024500Y-413661D01*
X23024410Y-416623D01*
X23023947Y-424298D01*
X23022549Y-447391D01*
X22989377Y-515515D01*
X22917749Y-540229D01*
X22849625Y-507057D01*
X22826633Y-460725D01*
X22821460Y-434715D01*
X22710840Y-269160D01*
X22545285Y-158540D01*
X22350000Y-119695D01*
X22154714Y-158540D01*
X22154712Y-158541D01*
X21992591Y-266867D01*
X21918276Y-281649D01*
X21855274Y-239552D01*
X21844562Y-218415D01*
X21804025Y-107040D01*
X21650902Y75446D01*
X21650901Y75447D01*
X21444597Y194556D01*
X21269105Y225500D01*
X21269101Y225500D01*
X21150899Y225500D01*
X21150894Y225500D01*
X20975402Y194556D01*
X20769096Y75445D01*
X20615977Y-107035D01*
X20615976Y-107037D01*
X20615975Y-107038D01*
X20615975Y-107039D01*
X20605125Y-136848D01*
X20553935Y-192713D01*
X20478236Y-196018D01*
X20425028Y-150106D01*
X20340438Y6204D01*
X20265220Y75447D01*
X20168435Y164544D01*
X19954340Y258454D01*
X19721353Y277760D01*
X19494723Y220370D01*
X19494722Y220369D01*
X19444337Y187452D01*
X19299004Y92502D01*
X19155411Y-91987D01*
X19155410Y-91988D01*
X19155410Y-91989D01*
X19094588Y-269158D01*
X19079500Y-313107D01*
X19079500Y-458504D01*
X19050504Y-528508D01*
X19001084Y-555340D01*
X18982671Y-559253D01*
X18982669Y-559254D01*
X18963729Y-573015D01*
X18941022Y-585344D01*
X18919160Y-593736D01*
X18882026Y-630870D01*
X18870215Y-640958D01*
X18827733Y-671823D01*
X18816028Y-692097D01*
X18800297Y-712598D01*
X18644149Y-868746D01*
X18574145Y-897742D01*
X18554831Y-895840D01*
X18447547Y-874500D01*
X18447544Y-874500D01*
X17852456Y-874500D01*
X17852455Y-874500D01*
X17822089Y-880540D01*
X17730167Y-898825D01*
X17730165Y-898825D01*
X17730165Y-898826D01*
X17730164Y-898826D01*
X17591488Y-991486D01*
X17591486Y-991488D01*
X17498826Y-1130164D01*
X17498826Y-1130165D01*
X17498825Y-1130167D01*
X17474500Y-1252456D01*
X17474500Y-1772544D01*
X17498825Y-1894833D01*
X17498826Y-1894834D01*
X17498826Y-1894835D01*
X17545155Y-1964172D01*
X17591487Y-2033513D01*
X17730167Y-2126175D01*
X17852456Y-2150500D01*
X17852457Y-2150500D01*
X18447543Y-2150500D01*
X18447544Y-2150500D01*
X18569833Y-2126175D01*
X18708513Y-2033513D01*
X18798552Y-1898758D01*
X18845351Y-1861351D01*
X18846049Y-1861083D01*
X18860960Y-1856663D01*
X18912328Y-1845746D01*
X18931270Y-1831982D01*
X18953975Y-1819655D01*
X18975841Y-1811262D01*
X18985694Y-1801408D01*
X19055694Y-1772412D01*
X19125699Y-1801406D01*
X19142765Y-1824294D01*
X19219561Y-1966203D01*
X19219562Y-1966204D01*
X19219563Y-1966205D01*
X19391565Y-2124544D01*
X19605660Y-2218454D01*
X19838647Y-2237760D01*
X20065278Y-2180369D01*
X20260996Y-2052501D01*
X20404590Y-1868011D01*
X20480500Y-1646893D01*
X20480500Y-903507D01*
X20509496Y-833503D01*
X20579500Y-804507D01*
X20649504Y-833503D01*
X20655324Y-839854D01*
X20769098Y-975446D01*
X20975401Y-1094555D01*
X21067691Y-1110828D01*
X21131596Y-1151540D01*
X21149500Y-1208324D01*
X21149500Y-2639746D01*
X21149501Y-2639758D01*
X21158321Y-2684094D01*
X21161133Y-2698231D01*
X21182815Y-2730681D01*
X21199500Y-2785681D01*
X21199500Y-3046914D01*
X21199432Y-3049505D01*
X21195105Y-3132044D01*
X21195106Y-3132050D01*
X21213924Y-3181074D01*
X21218335Y-3195965D01*
X21229253Y-3247326D01*
X21229253Y-3247327D01*
X21229254Y-3247328D01*
X21243016Y-3266271D01*
X21255345Y-3288977D01*
X21263737Y-3310839D01*
X21263740Y-3310843D01*
X21300871Y-3347975D01*
X21310959Y-3359786D01*
X21341823Y-3402266D01*
X21341825Y-3402267D01*
X21362094Y-3413969D01*
X21382599Y-3429702D01*
X21389945Y-3437048D01*
X21417038Y-3487736D01*
X21418540Y-3495285D01*
X21529160Y-3660840D01*
X21694715Y-3771460D01*
X21857812Y-3803902D01*
X21886422Y-3823018D01*
X21922186Y-3803902D01*
X22085285Y-3771460D01*
X22250840Y-3660840D01*
X22361460Y-3495285D01*
X22400305Y-3300000D01*
X22361460Y-3104715D01*
X22274453Y-2974500D01*
X22259672Y-2900186D01*
X22301769Y-2837184D01*
X22356770Y-2820500D01*
X22519747Y-2820500D01*
X22519748Y-2820500D01*
X22548987Y-2814684D01*
X22580685Y-2808379D01*
X22619315Y-2808379D01*
X22680241Y-2820498D01*
X22680246Y-2820498D01*
X22680252Y-2820500D01*
X22680253Y-2820500D01*
X23019747Y-2820500D01*
X23019748Y-2820500D01*
X23078231Y-2808867D01*
X23078231Y-2808866D01*
X23080684Y-2808379D01*
X23119314Y-2808378D01*
X23121767Y-2808866D01*
X23121769Y-2808867D01*
X23180252Y-2820500D01*
X23180253Y-2820500D01*
X23456494Y-2820500D01*
X23526498Y-2849496D01*
X23552617Y-2895809D01*
X23553157Y-2898002D01*
X23557869Y-2906979D01*
X23563105Y-2915640D01*
X23611824Y-2964360D01*
X23613872Y-2966535D01*
X23641897Y-2998169D01*
X23659563Y-3018109D01*
X23669455Y-3024937D01*
X23668361Y-3026521D01*
X23684271Y-3036806D01*
X23795354Y-3147889D01*
X23806822Y-3161650D01*
X23830485Y-3195932D01*
X23891485Y-3227947D01*
X23894066Y-3229402D01*
X23953057Y-3265063D01*
X23953058Y-3265063D01*
X23962715Y-3268072D01*
X23972563Y-3270500D01*
X24041453Y-3270500D01*
X24044418Y-3270589D01*
X24113221Y-3274751D01*
X24113225Y-3274749D01*
X24125044Y-3272584D01*
X24125390Y-3274475D01*
X24143918Y-3270500D01*
X24618627Y-3270500D01*
X24636472Y-3272121D01*
X24677447Y-3279631D01*
X24743276Y-3259117D01*
X24746060Y-3258341D01*
X24813001Y-3241842D01*
X24813001Y-3241841D01*
X24813003Y-3241841D01*
X24821971Y-3237133D01*
X24830639Y-3231894D01*
X24834586Y-3227947D01*
X24879374Y-3183157D01*
X24881495Y-3181159D01*
X24933105Y-3135439D01*
X24933105Y-3135437D01*
X24933107Y-3135436D01*
X24939935Y-3125544D01*
X24941522Y-3126639D01*
X24951803Y-3110728D01*
X25052893Y-3009638D01*
X25066646Y-2998177D01*
X25100932Y-2974513D01*
X25132951Y-2913505D01*
X25134421Y-2910899D01*
X25136791Y-2906979D01*
X25160184Y-2868281D01*
X25221215Y-2823376D01*
X25244906Y-2820500D01*
X25519747Y-2820500D01*
X25519748Y-2820500D01*
X25548987Y-2814684D01*
X25580685Y-2808379D01*
X25619313Y-2808378D01*
X25621767Y-2808866D01*
X25621769Y-2808867D01*
X25651018Y-2814685D01*
X25714019Y-2856780D01*
X25728802Y-2931095D01*
X25714020Y-2966783D01*
X25628541Y-3094712D01*
X25628540Y-3094714D01*
X25599274Y-3241842D01*
X25589695Y-3290000D01*
X25628540Y-3485285D01*
X25739160Y-3650840D01*
X25904715Y-3761460D01*
X26100000Y-3800305D01*
X26295285Y-3761460D01*
X26460840Y-3650840D01*
X26571460Y-3485285D01*
X26571460Y-3485283D01*
X26576877Y-3477177D01*
X26577182Y-3477381D01*
X26592198Y-3454903D01*
X26859306Y-3187796D01*
X26861165Y-3186030D01*
X26922604Y-3130713D01*
X26936040Y-3100534D01*
X26943963Y-3082739D01*
X26951377Y-3069084D01*
X26979971Y-3025054D01*
X26979970Y-3025054D01*
X26979973Y-3025051D01*
X26983635Y-3001929D01*
X26990975Y-2977149D01*
X26995591Y-2966783D01*
X27000500Y-2955757D01*
X27000500Y-2903240D01*
X27001719Y-2887753D01*
X27004803Y-2868282D01*
X27009933Y-2835895D01*
X27003873Y-2813279D01*
X27000500Y-2787656D01*
X27000500Y-2785681D01*
X27017184Y-2730681D01*
X27038867Y-2698231D01*
X27050500Y-2639748D01*
X27050500Y-1208324D01*
X27079496Y-1138320D01*
X27132308Y-1110828D01*
X27224599Y-1094555D01*
X27430902Y-975446D01*
X27544662Y-839871D01*
X27611871Y-804885D01*
X27684136Y-827669D01*
X27719123Y-894879D01*
X27719500Y-903508D01*
X27719500Y-1588045D01*
X27738098Y-1699500D01*
X27748294Y-1760597D01*
X27780252Y-1819651D01*
X27859561Y-1966203D01*
X27859562Y-1966204D01*
X27859563Y-1966205D01*
X28031565Y-2124544D01*
X28245660Y-2218454D01*
X28478647Y-2237760D01*
X28705278Y-2180369D01*
X28900996Y-2052501D01*
X29044590Y-1868011D01*
X29120500Y-1646893D01*
X29120500Y-371955D01*
X29091706Y-199403D01*
X28992849Y-16730D01*
X28980438Y6204D01*
X28905220Y75447D01*
X28808435Y164544D01*
X28594340Y258454D01*
X28361353Y277760D01*
X28134723Y220370D01*
X28134722Y220369D01*
X28084337Y187452D01*
X27939004Y92502D01*
X27795409Y-91989D01*
X27781054Y-133804D01*
X27730898Y-190598D01*
X27655272Y-195292D01*
X27598478Y-145136D01*
X27594394Y-135529D01*
X27584025Y-107040D01*
X27430902Y75446D01*
X27430901Y75447D01*
X27224597Y194556D01*
X27049105Y225500D01*
X27049101Y225500D01*
X26930899Y225500D01*
X26930894Y225500D01*
X26755402Y194556D01*
X26549096Y75445D01*
X26395977Y-107035D01*
X26395976Y-107037D01*
X26395975Y-107038D01*
X26395975Y-107039D01*
X26314500Y-330891D01*
X26314500Y-569109D01*
X26395975Y-792960D01*
X26395976Y-792961D01*
X26395977Y-792963D01*
X26407642Y-806865D01*
X26430426Y-879129D01*
X26395438Y-946339D01*
X26331803Y-969500D01*
X26230252Y-969500D01*
X26230251Y-969500D01*
X26230241Y-969501D01*
X26171769Y-981132D01*
X26162881Y-984814D01*
X26087119Y-984814D01*
X26078230Y-981132D01*
X26019758Y-969501D01*
X26019748Y-969500D01*
X25749500Y-969500D01*
X25679496Y-940504D01*
X25650500Y-870500D01*
X25650500Y550519D01*
X25638970Y570489D01*
X25636537Y574703D01*
X25626647Y598581D01*
X25619421Y625550D01*
X25505550Y739422D01*
X25023564Y1221407D01*
X24994568Y1291411D01*
X24996471Y1310727D01*
X24999716Y1327041D01*
X25000305Y1330000D01*
X24961460Y1525285D01*
X24850840Y1690840D01*
X24685285Y1801460D01*
X24490000Y1840305D01*
X24294714Y1801460D01*
X24294711Y1801458D01*
X24129162Y1690842D01*
X24129158Y1690838D01*
X24018542Y1525289D01*
X24018540Y1525286D01*
X23979695Y1330000D01*
X23983905Y1308833D01*
X23969122Y1234518D01*
X23906120Y1192422D01*
X23831805Y1207205D01*
X23816803Y1219516D01*
X23330638Y1705681D01*
X23319167Y1719447D01*
X23295507Y1753724D01*
X23295504Y1753727D01*
X23234509Y1785740D01*
X23231905Y1787209D01*
X23172936Y1822856D01*
X23163282Y1825864D01*
X23153429Y1828293D01*
X23153428Y1828293D01*
X23153426Y1828293D01*
X23084538Y1828293D01*
X23081572Y1828383D01*
X23012770Y1832544D01*
X23000947Y1830377D01*
X23000600Y1832269D01*
X22982073Y1828293D01*
X18945373Y1828293D01*
X18927528Y1829915D01*
X18913182Y1832544D01*
X18886560Y1837423D01*
X18886555Y1837423D01*
X18820776Y1816926D01*
X18817897Y1816124D01*
X18770635Y1804475D01*
X18751004Y1799635D01*
X18751003Y1799635D01*
X18751001Y1799634D01*
X18742044Y1794934D01*
X18733365Y1789687D01*
X18684652Y1740974D01*
X18682475Y1738926D01*
X18630901Y1693234D01*
X18624072Y1683340D01*
X18622494Y1684430D01*
X18612202Y1668525D01*
X17786528Y842850D01*
X17716524Y813854D01*
X17646520Y842850D01*
X17168689Y1320681D01*
X17157218Y1334447D01*
X17133558Y1368724D01*
X17133555Y1368727D01*
X17072560Y1400740D01*
X17069956Y1402209D01*
X17010987Y1437856D01*
X17001333Y1440864D01*
X16991480Y1443293D01*
X16991479Y1443293D01*
X16991477Y1443293D01*
X16922589Y1443293D01*
X16919623Y1443383D01*
X16850821Y1447544D01*
X16838998Y1445377D01*
X16838651Y1447269D01*
X16820124Y1443293D01*
X16787194Y1443293D01*
X16717190Y1472289D01*
X16704879Y1487291D01*
X16682695Y1520491D01*
X16566759Y1597956D01*
X16566758Y1597957D01*
X16566757Y1597957D01*
X16464522Y1618293D01*
X16464521Y1618293D01*
X15370479Y1618293D01*
X15370472Y1618292D01*
X15268241Y1597958D01*
X15268240Y1597957D01*
X15152302Y1520491D01*
X15130119Y1487291D01*
X15067118Y1445195D01*
X15047804Y1443293D01*
X14512194Y1443293D01*
X14442190Y1472289D01*
X14429879Y1487291D01*
X14407695Y1520491D01*
X14291759Y1597956D01*
X14291758Y1597957D01*
X14291757Y1597957D01*
X14189522Y1618293D01*
X14189521Y1618293D01*
X13095479Y1618293D01*
X13095472Y1618292D01*
X12993241Y1597958D01*
X12993240Y1597957D01*
X12877302Y1520491D01*
X12855119Y1487291D01*
X12792118Y1445195D01*
X12772804Y1443293D01*
X11695832Y1443293D01*
X11625830Y1472289D01*
X11549492Y1548627D01*
X11520499Y1618625D01*
X11520499Y1961867D01*
X11522121Y1979713D01*
X11523950Y1989695D01*
X11529630Y2020686D01*
X11509121Y2086499D01*
X11508332Y2089332D01*
X11491841Y2156240D01*
X11491838Y2156243D01*
X11487134Y2165208D01*
X11481892Y2173879D01*
X11433172Y2222600D01*
X11431122Y2224777D01*
X11385437Y2276346D01*
X11375545Y2283174D01*
X11376636Y2284756D01*
X11360728Y2295043D01*
X11165771Y2490000D01*
X12949695Y2490000D01*
X12988540Y2294715D01*
X13099160Y2129160D01*
X13264715Y2018540D01*
X13460000Y1979695D01*
X13655285Y2018540D01*
X13670337Y2028598D01*
X13676651Y2032816D01*
X13731652Y2049500D01*
X13907141Y2049500D01*
X13962142Y2032816D01*
X14011716Y1999691D01*
X14113223Y1979500D01*
X14113224Y1979500D01*
X14476774Y1979500D01*
X14476775Y1979500D01*
X14578282Y1999691D01*
X14693393Y2076606D01*
X14697684Y2083029D01*
X14760685Y2125124D01*
X14835001Y2110341D01*
X14862313Y2083029D01*
X14866605Y2076606D01*
X14981716Y1999691D01*
X15083223Y1979500D01*
X15083224Y1979500D01*
X15446774Y1979500D01*
X15446775Y1979500D01*
X15548282Y1999691D01*
X15597855Y2032816D01*
X15652857Y2049500D01*
X16173314Y2049500D01*
X16228314Y2032816D01*
X16234709Y2028543D01*
X16234712Y2028542D01*
X16234715Y2028540D01*
X16430000Y1989695D01*
X16625285Y2028540D01*
X16790840Y2139160D01*
X16901460Y2304715D01*
X16940305Y2500000D01*
X16901460Y2695285D01*
X16790840Y2860840D01*
X16625285Y2971460D01*
X16430000Y3010305D01*
X16234714Y2971460D01*
X16234709Y2971458D01*
X16228314Y2967184D01*
X16173314Y2950500D01*
X15652857Y2950500D01*
X15597855Y2967185D01*
X15548284Y3000308D01*
X15548283Y3000309D01*
X15548282Y3000309D01*
X15446775Y3020500D01*
X15083223Y3020500D01*
X15083222Y3020500D01*
X15058017Y3015487D01*
X14981716Y3000309D01*
X14981714Y3000309D01*
X14981714Y3000308D01*
X14981712Y3000307D01*
X14866607Y2923396D01*
X14866603Y2923392D01*
X14862313Y2916971D01*
X14799310Y2874877D01*
X14724995Y2889661D01*
X14697685Y2916971D01*
X14693394Y2923392D01*
X14693393Y2923394D01*
X14578282Y3000309D01*
X14476775Y3020500D01*
X14113223Y3020500D01*
X14113222Y3020500D01*
X14088017Y3015487D01*
X14011716Y3000309D01*
X14011714Y3000309D01*
X14011714Y3000308D01*
X14011712Y3000308D01*
X13962143Y2967185D01*
X13907141Y2950500D01*
X13701438Y2950500D01*
X13663557Y2958034D01*
X13655288Y2961459D01*
X13655285Y2961460D01*
X13460000Y3000305D01*
X13264714Y2961460D01*
X13264711Y2961458D01*
X13099162Y2850842D01*
X13099158Y2850838D01*
X12988542Y2685289D01*
X12988540Y2685286D01*
X12969868Y2591417D01*
X12949695Y2490000D01*
X11165771Y2490000D01*
X10470090Y3185681D01*
X10458619Y3199447D01*
X10434959Y3233724D01*
X10434956Y3233727D01*
X10373961Y3265740D01*
X10371357Y3267209D01*
X10312388Y3302856D01*
X10302734Y3305864D01*
X10292881Y3308293D01*
X10292880Y3308293D01*
X10292878Y3308293D01*
X10223990Y3308293D01*
X10221024Y3308383D01*
X10152222Y3312544D01*
X10140399Y3310377D01*
X10140052Y3312269D01*
X10121525Y3308293D01*
X7665373Y3308293D01*
X7647528Y3309915D01*
X7606560Y3317423D01*
X7606556Y3317423D01*
X7540793Y3296931D01*
X7537913Y3296128D01*
X7471003Y3279635D01*
X7462057Y3274941D01*
X7453364Y3269685D01*
X7404661Y3220982D01*
X7402484Y3218934D01*
X7350901Y3173234D01*
X7344072Y3163341D01*
X7342494Y3164431D01*
X7332203Y3148526D01*
X6297113Y2113436D01*
X6283351Y2101967D01*
X6249067Y2078301D01*
X6249065Y2078299D01*
X6217046Y2017292D01*
X6215577Y2014688D01*
X6179936Y1955729D01*
X6176929Y1946082D01*
X6174500Y1936223D01*
X6174500Y1867334D01*
X6174410Y1864369D01*
X6172781Y1837423D01*
X6170249Y1795566D01*
X6172416Y1783742D01*
X6166434Y1782646D01*
X6168013Y1729826D01*
X6130460Y1682646D01*
X6104502Y1665301D01*
X6030187Y1650518D01*
X5967185Y1692614D01*
X5950500Y1747616D01*
X5950500Y2161111D01*
X5967185Y2216113D01*
X5971459Y2222508D01*
X6010304Y2417793D01*
X5971459Y2613078D01*
X5860839Y2778633D01*
X5695284Y2889253D01*
X5499999Y2928098D01*
X5304713Y2889253D01*
X5304710Y2889251D01*
X5139161Y2778635D01*
X5139157Y2778631D01*
X5028541Y2613082D01*
X5028539Y2613079D01*
X5024230Y2591417D01*
X4989694Y2417793D01*
X2097160Y2417793D01*
X1887029Y2597262D01*
X1887016Y2597272D01*
X1457499Y2860481D01*
X1457487Y2860487D01*
X992068Y3053269D01*
X992069Y3053269D01*
X502215Y3170873D01*
X42900Y3207021D01*
X0Y3210397D01*
X-1Y3210397D01*
X-502216Y3170873D01*
X-992069Y3053269D01*
X-1457488Y2860487D01*
X-1457500Y2860481D01*
X-1571532Y2790601D01*
X-1646370Y2778747D01*
X-1707670Y2823285D01*
X-1719524Y2898123D01*
X-1690832Y2947365D01*
X-1669610Y2967185D01*
X-1526823Y3100539D01*
X-1521593Y3104795D01*
X-1081107Y3415722D01*
X-1075331Y3419235D01*
X-807439Y3558046D01*
X-596611Y3667289D01*
X-590408Y3669982D01*
X-419846Y3730600D01*
X-82374Y3850538D01*
X-75875Y3852359D01*
X452027Y3962059D01*
X458701Y3962976D01*
X998326Y3999887D01*
X1001688Y4000001D01*
X19078984Y4000001D01*
X19148988Y3971005D01*
G37*
%TD.AperFunction*%
%TD*%
M02*
