%TF.GenerationSoftware,KiCad,Pcbnew,7.0.6-7.0.6~ubuntu23.04.1*%
%TF.CreationDate,2023-08-05T23:29:43-04:00*%
%TF.ProjectId,udb-s,7564622d-732e-46b6-9963-61645f706362,rev?*%
%TF.SameCoordinates,Original*%
%TF.FileFunction,Copper,L3,Inr*%
%TF.FilePolarity,Positive*%
%FSLAX46Y46*%
G04 Gerber Fmt 4.6, Leading zero omitted, Abs format (unit mm)*
G04 Created by KiCad (PCBNEW 7.0.6-7.0.6~ubuntu23.04.1) date 2023-08-05 23:29:43*
%MOMM*%
%LPD*%
G01*
G04 APERTURE LIST*
%TA.AperFunction,ComponentPad*%
%ADD10C,3.600000*%
%TD*%
%TA.AperFunction,ComponentPad*%
%ADD11C,6.000000*%
%TD*%
%TA.AperFunction,ComponentPad*%
%ADD12O,1.000000X2.100000*%
%TD*%
%TA.AperFunction,ComponentPad*%
%ADD13O,1.000000X1.600000*%
%TD*%
%TA.AperFunction,ViaPad*%
%ADD14C,0.600000*%
%TD*%
%TA.AperFunction,Conductor*%
%ADD15C,0.500000*%
%TD*%
G04 APERTURE END LIST*
D10*
%TO.N,GNDPWR*%
%TO.C,H1*%
X33000000Y0D03*
%TD*%
D11*
%TO.N,N/C*%
%TO.C,H2*%
X0Y0D03*
%TD*%
D12*
%TO.N,GNDPWR*%
%TO.C,J1*%
X28420000Y-980000D03*
D13*
X28420000Y3200000D03*
D12*
X19780000Y-980000D03*
D13*
X19780000Y3200000D03*
%TD*%
D14*
%TO.N,GND*%
X19775000Y-3575000D03*
X13440000Y-2000000D03*
X12369999Y387793D03*
X20880000Y-3290000D03*
X27300000Y-2970000D03*
X8489999Y1908293D03*
X13440000Y-3000000D03*
%TO.N,VBUS*%
X16430000Y2500000D03*
X21890000Y-3300000D03*
X26100000Y-3290000D03*
%TO.N,Net-(J1-CC1)*%
X16220000Y-3000000D03*
X24490000Y1330000D03*
%TO.N,Net-(J1-CC2)*%
X16210000Y-2000000D03*
X22350000Y-630000D03*
%TO.N,5V*%
X5499999Y2417793D03*
X14804499Y167793D03*
X13460000Y2490000D03*
%TD*%
D15*
%TO.N,VBUS*%
X26090000Y-3300000D02*
X26100000Y-3290000D01*
%TD*%
%TA.AperFunction,Conductor*%
%TO.N,GND*%
G36*
X17880474Y4133025D02*
G01*
X18062462Y4057642D01*
X18352258Y3999997D01*
X18352259Y3999997D01*
X18629163Y3999997D01*
X18629165Y3999998D01*
X19078982Y3999998D01*
X19148986Y3971002D01*
X19177982Y3900998D01*
X19158910Y3845447D01*
X19159315Y3845228D01*
X19158004Y3842807D01*
X19157106Y3840191D01*
X19155412Y3838013D01*
X19155410Y3838011D01*
X19079500Y3616893D01*
X19079500Y2841955D01*
X19105643Y2685285D01*
X19108294Y2669403D01*
X19145383Y2600868D01*
X19219561Y2463797D01*
X19219562Y2463796D01*
X19219563Y2463795D01*
X19391565Y2305456D01*
X19605660Y2211546D01*
X19838647Y2192240D01*
X20065278Y2249631D01*
X20260996Y2377499D01*
X20404590Y2561989D01*
X20480500Y2783107D01*
X20480500Y3558045D01*
X20451706Y3730597D01*
X20393576Y3838013D01*
X20384989Y3853881D01*
X20377173Y3929248D01*
X20424939Y3988067D01*
X20472053Y3999999D01*
X27718983Y4000000D01*
X27788987Y3971004D01*
X27817983Y3901000D01*
X27798911Y3845447D01*
X27799315Y3845228D01*
X27798007Y3842813D01*
X27797109Y3840194D01*
X27795411Y3838013D01*
X27795410Y3838012D01*
X27795410Y3838011D01*
X27737725Y3669980D01*
X27719500Y3616893D01*
X27719500Y2841955D01*
X27745643Y2685285D01*
X27748294Y2669403D01*
X27785383Y2600868D01*
X27859561Y2463797D01*
X27859562Y2463796D01*
X27859563Y2463795D01*
X28031565Y2305456D01*
X28245660Y2211546D01*
X28478647Y2192240D01*
X28705278Y2249631D01*
X28900996Y2377499D01*
X29044590Y2561989D01*
X29120500Y2783107D01*
X29120500Y3558045D01*
X29091706Y3730597D01*
X29024987Y3853882D01*
X29017172Y3929249D01*
X29064937Y3988068D01*
X29112056Y4000000D01*
X31998311Y4000000D01*
X32001672Y3999886D01*
X32541296Y3962975D01*
X32547974Y3962057D01*
X33075870Y3852359D01*
X33082377Y3850535D01*
X33590410Y3669980D01*
X33596606Y3667290D01*
X34075332Y3419235D01*
X34081107Y3415722D01*
X34521584Y3104799D01*
X34526826Y3100534D01*
X34920868Y2732524D01*
X34925485Y2727581D01*
X34972817Y2669402D01*
X35265743Y2309347D01*
X35269638Y2303829D01*
X35549780Y1843154D01*
X35552892Y1837149D01*
X35767692Y1342628D01*
X35769957Y1336254D01*
X35915421Y817088D01*
X35916797Y810466D01*
X35990213Y276328D01*
X35990675Y269580D01*
X35990675Y-269579D01*
X35990213Y-276327D01*
X35916797Y-810465D01*
X35915421Y-817087D01*
X35769957Y-1336253D01*
X35767692Y-1342627D01*
X35552892Y-1837148D01*
X35549780Y-1843153D01*
X35269638Y-2303828D01*
X35265738Y-2309354D01*
X34925485Y-2727580D01*
X34920868Y-2732523D01*
X34526826Y-3100533D01*
X34521579Y-3104802D01*
X34081107Y-3415721D01*
X34075328Y-3419236D01*
X33596614Y-3667285D01*
X33590410Y-3669979D01*
X33082377Y-3850534D01*
X33075864Y-3852359D01*
X32547987Y-3962054D01*
X32541286Y-3962975D01*
X32375574Y-3974310D01*
X32001672Y-3999885D01*
X31998311Y-4000000D01*
X31911836Y-4000000D01*
X21941494Y-4000001D01*
X21895176Y-3980816D01*
X21893506Y-3983317D01*
X21838505Y-4000001D01*
X18541003Y-4000001D01*
X18540998Y-3999999D01*
X18499994Y-3999999D01*
X18352257Y-3999999D01*
X18352254Y-3999999D01*
X18062461Y-4057644D01*
X18062459Y-4057644D01*
X17872210Y-4136448D01*
X17796439Y-4136448D01*
X17767629Y-4118146D01*
X17671597Y-4030601D01*
X17671595Y-4030600D01*
X17462253Y-3949500D01*
X17462252Y-3949500D01*
X17294353Y-3949500D01*
X17129317Y-3980350D01*
X17041994Y-4034417D01*
X16967211Y-4046615D01*
X16937766Y-4034420D01*
X16931598Y-4030601D01*
X16722253Y-3949500D01*
X16722252Y-3949500D01*
X16554353Y-3949500D01*
X16389317Y-3980350D01*
X16301994Y-4034417D01*
X16227211Y-4046615D01*
X16197766Y-4034420D01*
X16191598Y-4030601D01*
X15982253Y-3949500D01*
X15982252Y-3949500D01*
X15814353Y-3949500D01*
X15649317Y-3980350D01*
X15561994Y-4034417D01*
X15487211Y-4046615D01*
X15457766Y-4034420D01*
X15451598Y-4030601D01*
X15242253Y-3949500D01*
X15242252Y-3949500D01*
X15074353Y-3949500D01*
X14909317Y-3980350D01*
X14821994Y-4034417D01*
X14747211Y-4046615D01*
X14717766Y-4034420D01*
X14711598Y-4030601D01*
X14502253Y-3949500D01*
X14502252Y-3949500D01*
X14334353Y-3949500D01*
X14169317Y-3980350D01*
X14081994Y-4034417D01*
X14007211Y-4046615D01*
X13977766Y-4034420D01*
X13971598Y-4030601D01*
X13762253Y-3949500D01*
X13762252Y-3949500D01*
X13594353Y-3949500D01*
X13429316Y-3980350D01*
X13238438Y-4098536D01*
X13238436Y-4098539D01*
X13236408Y-4101225D01*
X13233825Y-4102742D01*
X13231656Y-4104720D01*
X13231238Y-4104262D01*
X13171080Y-4139612D01*
X13119520Y-4133025D01*
X12937530Y-4057642D01*
X12647737Y-4000000D01*
X12647735Y-4000000D01*
X12499999Y-4000000D01*
X12411835Y-4000000D01*
X12411834Y-4000000D01*
X1001688Y-4000000D01*
X998326Y-3999885D01*
X589771Y-3971940D01*
X458713Y-3962976D01*
X452013Y-3962055D01*
X313560Y-3933284D01*
X-75865Y-3852360D01*
X-82379Y-3850535D01*
X-590408Y-3669981D01*
X-596612Y-3667287D01*
X-1075331Y-3419234D01*
X-1081110Y-3415719D01*
X-1521580Y-3104803D01*
X-1526827Y-3100534D01*
X-1690832Y-2947364D01*
X-1722201Y-2878391D01*
X-1695612Y-2807438D01*
X-1626639Y-2776069D01*
X-1571533Y-2790599D01*
X-1510189Y-2828190D01*
X-1457494Y-2860483D01*
X-1457488Y-2860486D01*
X-1291689Y-2929162D01*
X-1120673Y-2999999D01*
X-992069Y-3053268D01*
X-992067Y-3053269D01*
X-502217Y-3170872D01*
X0Y-3210397D01*
X502217Y-3170872D01*
X992067Y-3053269D01*
X1457490Y-2860485D01*
X1457494Y-2860482D01*
X1457499Y-2860480D01*
X1887016Y-2597271D01*
X1887016Y-2597270D01*
X1887024Y-2597266D01*
X2270093Y-2270093D01*
X2500775Y-2000000D01*
X15699695Y-2000000D01*
X15738540Y-2195285D01*
X15849160Y-2360840D01*
X15939233Y-2421025D01*
X15981330Y-2484026D01*
X15966548Y-2558341D01*
X15939234Y-2585655D01*
X15859163Y-2639157D01*
X15859158Y-2639162D01*
X15748542Y-2804711D01*
X15748540Y-2804714D01*
X15720165Y-2947364D01*
X15709695Y-3000000D01*
X15748540Y-3195285D01*
X15859160Y-3360840D01*
X16024715Y-3471460D01*
X16220000Y-3510305D01*
X16415285Y-3471460D01*
X16580840Y-3360840D01*
X16621492Y-3300000D01*
X21379695Y-3300000D01*
X21418540Y-3495285D01*
X21529160Y-3660840D01*
X21679749Y-3761460D01*
X21694711Y-3771457D01*
X21694713Y-3771459D01*
X21694715Y-3771460D01*
X21857820Y-3803904D01*
X21886422Y-3823015D01*
X21922177Y-3803904D01*
X22085285Y-3771460D01*
X22250840Y-3660840D01*
X22361460Y-3495285D01*
X22400305Y-3300000D01*
X22398316Y-3290000D01*
X25589695Y-3290000D01*
X25628540Y-3485285D01*
X25739160Y-3650840D01*
X25904715Y-3761460D01*
X26100000Y-3800305D01*
X26295285Y-3761460D01*
X26460840Y-3650840D01*
X26571460Y-3485285D01*
X26610305Y-3290000D01*
X26571460Y-3094715D01*
X26460840Y-2929160D01*
X26295285Y-2818540D01*
X26100000Y-2779695D01*
X25904714Y-2818540D01*
X25904711Y-2818542D01*
X25739162Y-2929158D01*
X25739158Y-2929162D01*
X25628542Y-3094711D01*
X25628540Y-3094714D01*
X25605529Y-3210396D01*
X25589695Y-3290000D01*
X22398316Y-3290000D01*
X22361460Y-3104715D01*
X22250840Y-2939160D01*
X22085285Y-2828540D01*
X21890000Y-2789695D01*
X21694714Y-2828540D01*
X21694711Y-2828542D01*
X21529162Y-2939158D01*
X21529158Y-2939162D01*
X21418542Y-3104711D01*
X21418540Y-3104714D01*
X21397518Y-3210397D01*
X21379695Y-3300000D01*
X16621492Y-3300000D01*
X16691460Y-3195285D01*
X16730305Y-3000000D01*
X16691460Y-2804715D01*
X16580840Y-2639160D01*
X16490765Y-2578974D01*
X16448669Y-2515973D01*
X16463451Y-2441658D01*
X16490764Y-2414344D01*
X16570840Y-2360840D01*
X16681460Y-2195285D01*
X16720305Y-2000000D01*
X16681460Y-1804715D01*
X16570840Y-1639160D01*
X16494341Y-1588045D01*
X19079500Y-1588045D01*
X19088029Y-1639160D01*
X19108294Y-1760597D01*
X19145383Y-1829132D01*
X19219561Y-1966203D01*
X19219562Y-1966204D01*
X19219563Y-1966205D01*
X19391565Y-2124544D01*
X19605660Y-2218454D01*
X19838647Y-2237760D01*
X20065278Y-2180369D01*
X20260996Y-2052501D01*
X20404590Y-1868011D01*
X20480500Y-1646893D01*
X20480500Y-903507D01*
X20509496Y-833503D01*
X20579500Y-804507D01*
X20649504Y-833503D01*
X20655324Y-839854D01*
X20769098Y-975446D01*
X20975401Y-1094555D01*
X21150899Y-1125500D01*
X21150900Y-1125500D01*
X21269100Y-1125500D01*
X21269101Y-1125500D01*
X21444599Y-1094555D01*
X21650902Y-975446D01*
X21748652Y-858951D01*
X21815860Y-823965D01*
X21888124Y-846749D01*
X21906804Y-867586D01*
X21978873Y-975445D01*
X21989160Y-990840D01*
X22154715Y-1101460D01*
X22350000Y-1140305D01*
X22545285Y-1101460D01*
X22710840Y-990840D01*
X22821460Y-825285D01*
X22860305Y-630000D01*
X22848193Y-569109D01*
X26314500Y-569109D01*
X26395975Y-792960D01*
X26549098Y-975446D01*
X26755401Y-1094555D01*
X26930899Y-1125500D01*
X26930900Y-1125500D01*
X27049100Y-1125500D01*
X27049101Y-1125500D01*
X27224599Y-1094555D01*
X27430902Y-975446D01*
X27544662Y-839871D01*
X27611871Y-804885D01*
X27684136Y-827669D01*
X27719123Y-894879D01*
X27719500Y-903508D01*
X27719500Y-1588045D01*
X27728029Y-1639160D01*
X27748294Y-1760597D01*
X27785383Y-1829132D01*
X27859561Y-1966203D01*
X27859562Y-1966204D01*
X27859563Y-1966205D01*
X28031565Y-2124544D01*
X28245660Y-2218454D01*
X28478647Y-2237760D01*
X28705278Y-2180369D01*
X28900996Y-2052501D01*
X29044590Y-1868011D01*
X29120500Y-1646893D01*
X29120500Y-371955D01*
X29091706Y-199403D01*
X29017526Y-62331D01*
X28983797Y-3D01*
X30989820Y-3D01*
X31028443Y-392162D01*
X31028444Y-392167D01*
X31142836Y-769263D01*
X31142838Y-769268D01*
X31328588Y-1116784D01*
X31328594Y-1116793D01*
X31328596Y-1116796D01*
X31432844Y-1243823D01*
X31578583Y-1421407D01*
X31578592Y-1421416D01*
X31709124Y-1528540D01*
X31883204Y-1671404D01*
X31883208Y-1671406D01*
X31883215Y-1671411D01*
X32204524Y-1843153D01*
X32230737Y-1857164D01*
X32493440Y-1936854D01*
X32607832Y-1971555D01*
X32607837Y-1971556D01*
X32999997Y-2010180D01*
X33000000Y-2010180D01*
X33000003Y-2010180D01*
X33392162Y-1971556D01*
X33392167Y-1971555D01*
X33392166Y-1971554D01*
X33769263Y-1857164D01*
X33949926Y-1760598D01*
X34116784Y-1671411D01*
X34116787Y-1671408D01*
X34116796Y-1671404D01*
X34421412Y-1421412D01*
X34671404Y-1116796D01*
X34671408Y-1116787D01*
X34671411Y-1116784D01*
X34827218Y-825288D01*
X34857164Y-769263D01*
X34971555Y-392167D01*
X34971556Y-392162D01*
X35010180Y-3D01*
X35010180Y4D01*
X34971556Y392163D01*
X34971555Y392168D01*
X34930158Y528635D01*
X34857164Y769263D01*
X34809443Y858543D01*
X34671411Y1116785D01*
X34671406Y1116792D01*
X34671404Y1116796D01*
X34496432Y1330000D01*
X34421416Y1421408D01*
X34421407Y1421417D01*
X34243823Y1567156D01*
X34116796Y1671404D01*
X34116793Y1671406D01*
X34116784Y1671412D01*
X33769268Y1857162D01*
X33769263Y1857164D01*
X33392167Y1971556D01*
X33392162Y1971557D01*
X33000003Y2010180D01*
X32999997Y2010180D01*
X32607837Y1971557D01*
X32607832Y1971556D01*
X32230736Y1857164D01*
X32230731Y1857162D01*
X31883215Y1671412D01*
X31883205Y1671405D01*
X31578592Y1421417D01*
X31578583Y1421408D01*
X31328595Y1116795D01*
X31328588Y1116785D01*
X31142838Y769269D01*
X31142836Y769264D01*
X31028444Y392168D01*
X31028443Y392163D01*
X30989820Y4D01*
X30989820Y-3D01*
X28983797Y-3D01*
X28980438Y6204D01*
X28905220Y75447D01*
X28808435Y164544D01*
X28594340Y258454D01*
X28361353Y277760D01*
X28134723Y220370D01*
X28134722Y220369D01*
X28084337Y187452D01*
X27939004Y92502D01*
X27795409Y-91989D01*
X27781054Y-133804D01*
X27730898Y-190598D01*
X27655272Y-195292D01*
X27598478Y-145136D01*
X27594394Y-135529D01*
X27584025Y-107040D01*
X27430902Y75446D01*
X27430901Y75447D01*
X27224597Y194556D01*
X27049105Y225500D01*
X27049101Y225500D01*
X26930899Y225500D01*
X26930894Y225500D01*
X26755402Y194556D01*
X26549096Y75445D01*
X26395977Y-107035D01*
X26395976Y-107037D01*
X26395975Y-107038D01*
X26395975Y-107039D01*
X26314500Y-330891D01*
X26314500Y-569109D01*
X22848193Y-569109D01*
X22821460Y-434715D01*
X22710840Y-269160D01*
X22545285Y-158540D01*
X22350000Y-119695D01*
X22154714Y-158540D01*
X22154712Y-158541D01*
X21992591Y-266867D01*
X21918276Y-281649D01*
X21855274Y-239552D01*
X21844562Y-218415D01*
X21804025Y-107040D01*
X21650902Y75446D01*
X21650901Y75447D01*
X21444597Y194556D01*
X21269105Y225500D01*
X21269101Y225500D01*
X21150899Y225500D01*
X21150894Y225500D01*
X20975402Y194556D01*
X20769096Y75445D01*
X20615977Y-107035D01*
X20615976Y-107037D01*
X20615975Y-107038D01*
X20615975Y-107039D01*
X20605125Y-136848D01*
X20553935Y-192713D01*
X20478236Y-196018D01*
X20425028Y-150106D01*
X20340438Y6204D01*
X20265220Y75447D01*
X20168435Y164544D01*
X19954340Y258454D01*
X19721353Y277760D01*
X19494723Y220370D01*
X19494722Y220369D01*
X19444337Y187452D01*
X19299004Y92502D01*
X19155411Y-91987D01*
X19155410Y-91988D01*
X19155410Y-91989D01*
X19095374Y-266867D01*
X19079500Y-313107D01*
X19079500Y-1588045D01*
X16494341Y-1588045D01*
X16405285Y-1528540D01*
X16210000Y-1489695D01*
X16014714Y-1528540D01*
X16014711Y-1528542D01*
X15849162Y-1639158D01*
X15849158Y-1639162D01*
X15738542Y-1804711D01*
X15738540Y-1804714D01*
X15706418Y-1966203D01*
X15699695Y-2000000D01*
X2500775Y-2000000D01*
X2597266Y-1887024D01*
X2674741Y-1760597D01*
X2860480Y-1457499D01*
X2860482Y-1457494D01*
X2860485Y-1457490D01*
X3053269Y-992067D01*
X3170872Y-502217D01*
X3210397Y0D01*
X3197192Y167793D01*
X14294194Y167793D01*
X14333039Y-27492D01*
X14443659Y-193047D01*
X14609214Y-303667D01*
X14804499Y-342512D01*
X14999784Y-303667D01*
X15165339Y-193047D01*
X15275959Y-27492D01*
X15314804Y167793D01*
X15275959Y363078D01*
X15165339Y528633D01*
X14999784Y639253D01*
X14804499Y678098D01*
X14609213Y639253D01*
X14609210Y639251D01*
X14443661Y528635D01*
X14443657Y528631D01*
X14333041Y363082D01*
X14333039Y363079D01*
X14333038Y363078D01*
X14333039Y363078D01*
X14294194Y167793D01*
X3197192Y167793D01*
X3170872Y502217D01*
X3053269Y992067D01*
X2913293Y1330000D01*
X23979695Y1330000D01*
X24018540Y1134715D01*
X24129160Y969160D01*
X24294715Y858540D01*
X24490000Y819695D01*
X24685285Y858540D01*
X24850840Y969160D01*
X24961460Y1134715D01*
X25000305Y1330000D01*
X24961460Y1525285D01*
X24850840Y1690840D01*
X24685285Y1801460D01*
X24490000Y1840305D01*
X24294714Y1801460D01*
X24294711Y1801458D01*
X24129162Y1690842D01*
X24129158Y1690838D01*
X24018542Y1525289D01*
X24018540Y1525286D01*
X24005054Y1457488D01*
X23979695Y1330000D01*
X2913293Y1330000D01*
X2860486Y1457488D01*
X2860480Y1457500D01*
X2597271Y1887017D01*
X2597261Y1887030D01*
X2270101Y2270084D01*
X2270098Y2270087D01*
X2270093Y2270093D01*
X2270086Y2270099D01*
X2270083Y2270102D01*
X2097160Y2417793D01*
X4989694Y2417793D01*
X5028539Y2222508D01*
X5139159Y2056953D01*
X5304714Y1946333D01*
X5499999Y1907488D01*
X5695284Y1946333D01*
X5860839Y2056953D01*
X5971459Y2222508D01*
X6010304Y2417793D01*
X5995941Y2490000D01*
X12949695Y2490000D01*
X12988540Y2294715D01*
X13099160Y2129160D01*
X13264715Y2018540D01*
X13460000Y1979695D01*
X13655285Y2018540D01*
X13820840Y2129160D01*
X13931460Y2294715D01*
X13970305Y2490000D01*
X13968316Y2500000D01*
X15919695Y2500000D01*
X15958540Y2304715D01*
X16069160Y2139160D01*
X16234715Y2028540D01*
X16430000Y1989695D01*
X16625285Y2028540D01*
X16790840Y2139160D01*
X16901460Y2304715D01*
X16940305Y2500000D01*
X16901460Y2695285D01*
X16790840Y2860840D01*
X16625285Y2971460D01*
X16430000Y3010305D01*
X16234714Y2971460D01*
X16234711Y2971458D01*
X16069162Y2860842D01*
X16069158Y2860838D01*
X15958542Y2695289D01*
X15958540Y2695286D01*
X15932025Y2561988D01*
X15919695Y2500000D01*
X13968316Y2500000D01*
X13931460Y2685285D01*
X13820840Y2850840D01*
X13655285Y2961460D01*
X13460000Y3000305D01*
X13264714Y2961460D01*
X13264711Y2961458D01*
X13099162Y2850842D01*
X13099158Y2850838D01*
X12988542Y2685289D01*
X12988540Y2685286D01*
X12969868Y2591417D01*
X12949695Y2490000D01*
X5995941Y2490000D01*
X5971459Y2613078D01*
X5860839Y2778633D01*
X5695284Y2889253D01*
X5499999Y2928098D01*
X5304713Y2889253D01*
X5304710Y2889251D01*
X5139161Y2778635D01*
X5139157Y2778631D01*
X5028541Y2613082D01*
X5028539Y2613079D01*
X5024230Y2591417D01*
X4989694Y2417793D01*
X2097160Y2417793D01*
X1887029Y2597262D01*
X1887016Y2597272D01*
X1457499Y2860481D01*
X1457487Y2860487D01*
X992068Y3053269D01*
X992069Y3053269D01*
X502215Y3170873D01*
X42900Y3207021D01*
X0Y3210397D01*
X-1Y3210397D01*
X-502216Y3170873D01*
X-992069Y3053269D01*
X-1457488Y2860487D01*
X-1457500Y2860481D01*
X-1571532Y2790601D01*
X-1646370Y2778747D01*
X-1707670Y2823285D01*
X-1719524Y2898123D01*
X-1690832Y2947365D01*
X-1675740Y2961460D01*
X-1526823Y3100539D01*
X-1521593Y3104795D01*
X-1081107Y3415722D01*
X-1075331Y3419235D01*
X-807439Y3558046D01*
X-596611Y3667289D01*
X-590408Y3669982D01*
X-419846Y3730600D01*
X-82374Y3850538D01*
X-75875Y3852359D01*
X452027Y3962059D01*
X458701Y3962976D01*
X998326Y3999887D01*
X1001688Y4000001D01*
X12392141Y4000001D01*
X12392145Y4000000D01*
X12411835Y4000000D01*
X12541004Y4000000D01*
X12541004Y4000001D01*
X12549247Y4000000D01*
X12549252Y4000001D01*
X12551631Y4000001D01*
X12551708Y4000004D01*
X12647734Y4000004D01*
X12647735Y4000004D01*
X12937531Y4057647D01*
X13127779Y4136451D01*
X13203548Y4136451D01*
X13232358Y4118150D01*
X13328398Y4030598D01*
X13537743Y3949497D01*
X13537744Y3949497D01*
X13705642Y3949497D01*
X13870676Y3980347D01*
X13870677Y3980348D01*
X13870679Y3980348D01*
X13958000Y4034416D01*
X14032781Y4046615D01*
X14062234Y4034415D01*
X14068398Y4030598D01*
X14277743Y3949497D01*
X14277744Y3949497D01*
X14445642Y3949497D01*
X14610676Y3980347D01*
X14610677Y3980348D01*
X14610679Y3980348D01*
X14698000Y4034416D01*
X14772781Y4046615D01*
X14802234Y4034415D01*
X14808398Y4030598D01*
X15017743Y3949497D01*
X15017744Y3949497D01*
X15185642Y3949497D01*
X15350676Y3980347D01*
X15350677Y3980348D01*
X15350679Y3980348D01*
X15438000Y4034416D01*
X15512781Y4046615D01*
X15542234Y4034415D01*
X15548398Y4030598D01*
X15757743Y3949497D01*
X15757744Y3949497D01*
X15925642Y3949497D01*
X16090676Y3980347D01*
X16090677Y3980348D01*
X16090679Y3980348D01*
X16178000Y4034416D01*
X16252781Y4046615D01*
X16282234Y4034415D01*
X16288398Y4030598D01*
X16497743Y3949497D01*
X16497744Y3949497D01*
X16665642Y3949497D01*
X16830676Y3980347D01*
X16830677Y3980348D01*
X16830679Y3980348D01*
X16918000Y4034416D01*
X16992781Y4046615D01*
X17022234Y4034415D01*
X17028398Y4030598D01*
X17237743Y3949497D01*
X17237744Y3949497D01*
X17405642Y3949497D01*
X17570679Y3980348D01*
X17761558Y4098535D01*
X17763582Y4101216D01*
X17766163Y4102733D01*
X17768340Y4104717D01*
X17768758Y4104259D01*
X17828904Y4139610D01*
X17880474Y4133025D01*
G37*
%TD.AperFunction*%
%TD*%
M02*
