%TF.GenerationSoftware,KiCad,Pcbnew,7.0.6-7.0.6~ubuntu23.04.1*%
%TF.CreationDate,2023-08-05T23:29:43-04:00*%
%TF.ProjectId,udb-s,7564622d-732e-46b6-9963-61645f706362,rev?*%
%TF.SameCoordinates,Original*%
%TF.FileFunction,Copper,L4,Bot*%
%TF.FilePolarity,Positive*%
%FSLAX46Y46*%
G04 Gerber Fmt 4.6, Leading zero omitted, Abs format (unit mm)*
G04 Created by KiCad (PCBNEW 7.0.6-7.0.6~ubuntu23.04.1) date 2023-08-05 23:29:43*
%MOMM*%
%LPD*%
G01*
G04 APERTURE LIST*
%TA.AperFunction,ComponentPad*%
%ADD10C,3.600000*%
%TD*%
%TA.AperFunction,ConnectorPad*%
%ADD11C,6.000000*%
%TD*%
%TA.AperFunction,ComponentPad*%
%ADD12C,6.000000*%
%TD*%
%TA.AperFunction,ComponentPad*%
%ADD13O,1.000000X2.100000*%
%TD*%
%TA.AperFunction,ComponentPad*%
%ADD14O,1.000000X1.600000*%
%TD*%
%TA.AperFunction,ViaPad*%
%ADD15C,0.600000*%
%TD*%
%TA.AperFunction,Conductor*%
%ADD16C,0.500000*%
%TD*%
%TA.AperFunction,Conductor*%
%ADD17C,0.160000*%
%TD*%
%TA.AperFunction,Conductor*%
%ADD18C,1.000000*%
%TD*%
G04 APERTURE END LIST*
D10*
%TO.P,H1,1,1*%
%TO.N,GNDPWR*%
X33000000Y0D03*
D11*
X33000000Y0D03*
%TD*%
D12*
%TO.P,H2,1*%
%TO.N,N/C*%
X0Y0D03*
%TD*%
D13*
%TO.P,J1,S1,SHIELD*%
%TO.N,GNDPWR*%
X28420000Y-980000D03*
D14*
X28420000Y3200000D03*
D13*
X19780000Y-980000D03*
D14*
X19780000Y3200000D03*
%TD*%
D15*
%TO.N,GND*%
X19775000Y-3575000D03*
X13440000Y-2000000D03*
X12369999Y387793D03*
X20880000Y-3290000D03*
X27300000Y-2970000D03*
X8489999Y1908293D03*
X13440000Y-3000000D03*
%TO.N,VBUS*%
X16430000Y2500000D03*
X21890000Y-3300000D03*
X26100000Y-3290000D03*
%TO.N,Net-(J1-CC1)*%
X16220000Y-3000000D03*
X24490000Y1330000D03*
%TO.N,Net-(J1-CC2)*%
X16210000Y-2000000D03*
X22350000Y-630000D03*
%TO.N,5V*%
X5499999Y2417793D03*
X14804499Y167793D03*
X13460000Y2490000D03*
%TD*%
D16*
%TO.N,VBUS*%
X25550000Y1680000D02*
X24980000Y2250000D01*
X25550000Y920000D02*
X25550000Y1680000D01*
X23000000Y2350000D02*
X22430000Y2350000D01*
X17870000Y1820000D02*
X17190000Y2500000D01*
X24980000Y2250000D02*
X24880000Y2350000D01*
X17190000Y2500000D02*
X16430000Y2500000D01*
X22430000Y2350000D02*
X21480000Y1400000D01*
X21480000Y1400000D02*
X18290000Y1400000D01*
X18290000Y1400000D02*
X17870000Y1820000D01*
X25440000Y-3300000D02*
X25510000Y-3300000D01*
X26100000Y-2710000D02*
X26100000Y-1310000D01*
X26100000Y-3290000D02*
X26100000Y-2710000D01*
X25730000Y-940000D02*
X25550000Y-760000D01*
X25440000Y-3300000D02*
X26090000Y-3300000D01*
X25510000Y-3300000D02*
X26100000Y-2710000D01*
X21890000Y-3300000D02*
X25440000Y-3300000D01*
X25550000Y-760000D02*
X25550000Y920000D01*
X24880000Y2350000D02*
X23000000Y2350000D01*
X26100000Y-1310000D02*
X25730000Y-940000D01*
D17*
%TO.N,Net-(J1-CC1)*%
X16885000Y-2335000D02*
X16220000Y-3000000D01*
X24490000Y1330000D02*
X24490000Y-370000D01*
X20445000Y-2875000D02*
X18635884Y-2875000D01*
X22660000Y-2200000D02*
X21120000Y-2200000D01*
X18095884Y-2335000D02*
X16885000Y-2335000D01*
X18635884Y-2875000D02*
X18095884Y-2335000D01*
X24490000Y-370000D02*
X22660000Y-2200000D01*
X21120000Y-2200000D02*
X20445000Y-2875000D01*
%TO.N,Net-(J1-CC2)*%
X22120000Y-630000D02*
X22350000Y-630000D01*
X18245000Y-1975000D02*
X18700000Y-2430000D01*
X16235000Y-1975000D02*
X18245000Y-1975000D01*
X16210000Y-2000000D02*
X16235000Y-1975000D01*
X18700000Y-2430000D02*
X20320000Y-2430000D01*
X20320000Y-2430000D02*
X22120000Y-630000D01*
D16*
%TO.N,5V*%
X6152206Y3070000D02*
X5499999Y2417793D01*
X13460000Y2490000D02*
X12880000Y3070000D01*
X12880000Y3070000D02*
X6152206Y3070000D01*
X13460000Y2490000D02*
X13460000Y1512292D01*
X13460000Y1512292D02*
X14804499Y167793D01*
D18*
%TO.N,GNDPWR*%
X32020000Y-980000D02*
X33000000Y0D01*
X28420000Y-980000D02*
X32020000Y-980000D01*
%TD*%
%TA.AperFunction,Conductor*%
%TO.N,GND*%
G36*
X17880474Y4133025D02*
G01*
X18062462Y4057642D01*
X18352258Y3999997D01*
X18352259Y3999997D01*
X18629163Y3999997D01*
X18629165Y3999998D01*
X19078982Y3999998D01*
X19148986Y3971002D01*
X19177982Y3900998D01*
X19158910Y3845447D01*
X19159315Y3845228D01*
X19158004Y3842807D01*
X19157106Y3840191D01*
X19155412Y3838013D01*
X19155410Y3838011D01*
X19079500Y3616893D01*
X19079500Y2841955D01*
X19105643Y2685285D01*
X19108294Y2669403D01*
X19144754Y2602031D01*
X19219561Y2463797D01*
X19219562Y2463796D01*
X19219563Y2463795D01*
X19391565Y2305456D01*
X19605660Y2211546D01*
X19838647Y2192240D01*
X20065278Y2249631D01*
X20260996Y2377499D01*
X20404590Y2561989D01*
X20480500Y2783107D01*
X20480500Y3558045D01*
X20451706Y3730597D01*
X20393576Y3838013D01*
X20384989Y3853881D01*
X20377173Y3929248D01*
X20424939Y3988067D01*
X20472053Y3999999D01*
X27718983Y4000000D01*
X27788987Y3971004D01*
X27817983Y3901000D01*
X27798911Y3845447D01*
X27799315Y3845228D01*
X27798007Y3842813D01*
X27797109Y3840194D01*
X27795411Y3838013D01*
X27795410Y3838012D01*
X27795410Y3838011D01*
X27737725Y3669980D01*
X27719500Y3616893D01*
X27719500Y2841955D01*
X27745643Y2685285D01*
X27748294Y2669403D01*
X27784754Y2602031D01*
X27859561Y2463797D01*
X27859562Y2463796D01*
X27859563Y2463795D01*
X28031565Y2305456D01*
X28245660Y2211546D01*
X28478647Y2192240D01*
X28705278Y2249631D01*
X28900996Y2377499D01*
X29044590Y2561989D01*
X29120500Y2783107D01*
X29120500Y3558045D01*
X29091706Y3730597D01*
X29024987Y3853882D01*
X29017172Y3929249D01*
X29064937Y3988068D01*
X29112056Y4000000D01*
X31998311Y4000000D01*
X32001672Y3999886D01*
X32541296Y3962975D01*
X32547974Y3962057D01*
X33075870Y3852359D01*
X33082377Y3850535D01*
X33590410Y3669980D01*
X33596606Y3667290D01*
X34075332Y3419235D01*
X34081107Y3415722D01*
X34521584Y3104799D01*
X34526826Y3100534D01*
X34690828Y2947367D01*
X34722197Y2878394D01*
X34695608Y2807441D01*
X34626635Y2776072D01*
X34571527Y2790603D01*
X34457493Y2860484D01*
X34457487Y2860487D01*
X33992068Y3053269D01*
X33992069Y3053269D01*
X33502215Y3170873D01*
X33042900Y3207021D01*
X33000000Y3210397D01*
X32999999Y3210397D01*
X32497784Y3170873D01*
X32007931Y3053269D01*
X31542512Y2860487D01*
X31542500Y2860481D01*
X31112983Y2597272D01*
X31112970Y2597262D01*
X30729916Y2270102D01*
X30729898Y2270084D01*
X30402738Y1887030D01*
X30402728Y1887017D01*
X30139519Y1457500D01*
X30139513Y1457488D01*
X29946731Y992069D01*
X29829127Y502216D01*
X29789603Y0D01*
X29803197Y-172733D01*
X29779782Y-244796D01*
X29712269Y-279195D01*
X29704502Y-279500D01*
X29188921Y-279500D01*
X29118917Y-250504D01*
X29096272Y-206513D01*
X29094371Y-207166D01*
X29091707Y-199410D01*
X29091706Y-199403D01*
X29017526Y-62331D01*
X28980438Y6204D01*
X28905220Y75447D01*
X28808435Y164544D01*
X28594340Y258454D01*
X28361353Y277760D01*
X28134723Y220370D01*
X28134722Y220369D01*
X28084337Y187452D01*
X27939004Y92502D01*
X27795409Y-91989D01*
X27781054Y-133804D01*
X27730898Y-190598D01*
X27655272Y-195292D01*
X27598478Y-145136D01*
X27594394Y-135529D01*
X27584025Y-107040D01*
X27430902Y75446D01*
X27430901Y75447D01*
X27224597Y194556D01*
X27049105Y225500D01*
X27049101Y225500D01*
X26930899Y225500D01*
X26930894Y225500D01*
X26755402Y194556D01*
X26549096Y75445D01*
X26395977Y-107035D01*
X26395976Y-107037D01*
X26395975Y-107038D01*
X26395975Y-107039D01*
X26314500Y-330891D01*
X26314500Y-569109D01*
X26341629Y-643647D01*
X26343908Y-649907D01*
X26340602Y-725607D01*
X26284738Y-776797D01*
X26209038Y-773491D01*
X26180874Y-753771D01*
X26029496Y-602393D01*
X26000500Y-532389D01*
X26000500Y1666916D01*
X26000568Y1669507D01*
X26004894Y1752046D01*
X26004893Y1752050D01*
X25986075Y1801072D01*
X25981662Y1815968D01*
X25970746Y1867328D01*
X25970744Y1867331D01*
X25970744Y1867332D01*
X25956984Y1886272D01*
X25944654Y1908981D01*
X25936263Y1930839D01*
X25936262Y1930840D01*
X25936262Y1930841D01*
X25899121Y1967982D01*
X25889044Y1979780D01*
X25858177Y2022266D01*
X25837900Y2033973D01*
X25817400Y2049703D01*
X25207795Y2659309D01*
X25206011Y2661189D01*
X25198612Y2669406D01*
X25150713Y2722604D01*
X25150709Y2722606D01*
X25102734Y2743966D01*
X25089082Y2751379D01*
X25045050Y2779974D01*
X25045049Y2779975D01*
X25021924Y2783638D01*
X24997152Y2790976D01*
X24975759Y2800500D01*
X24975757Y2800500D01*
X24923242Y2800500D01*
X24907755Y2801719D01*
X24855895Y2809933D01*
X24833279Y2803873D01*
X24807656Y2800500D01*
X22443085Y2800500D01*
X22440500Y2800568D01*
X22425825Y2801337D01*
X22357949Y2804895D01*
X22308918Y2786074D01*
X22294027Y2781663D01*
X22242671Y2770746D01*
X22242669Y2770746D01*
X22223729Y2756985D01*
X22201022Y2744656D01*
X22179160Y2736264D01*
X22142026Y2699130D01*
X22130215Y2689042D01*
X22087733Y2658177D01*
X22076028Y2637903D01*
X22060297Y2617403D01*
X21322393Y1879497D01*
X21252389Y1850500D01*
X18517611Y1850500D01*
X18447607Y1879496D01*
X17517795Y2809309D01*
X17516011Y2811189D01*
X17460714Y2872603D01*
X17460713Y2872604D01*
X17460709Y2872606D01*
X17412734Y2893966D01*
X17399082Y2901379D01*
X17355050Y2929974D01*
X17355049Y2929975D01*
X17331924Y2933638D01*
X17307152Y2940976D01*
X17285759Y2950500D01*
X17285757Y2950500D01*
X17233242Y2950500D01*
X17217755Y2951719D01*
X17165895Y2959933D01*
X17143279Y2953873D01*
X17117656Y2950500D01*
X16686686Y2950500D01*
X16631686Y2967184D01*
X16625290Y2971458D01*
X16625285Y2971460D01*
X16430000Y3010305D01*
X16234714Y2971460D01*
X16234711Y2971458D01*
X16069162Y2860842D01*
X16069158Y2860838D01*
X15958542Y2695289D01*
X15958540Y2695286D01*
X15932025Y2561988D01*
X15919695Y2500000D01*
X15958540Y2304715D01*
X16069160Y2139160D01*
X16234715Y2028540D01*
X16430000Y1989695D01*
X16625285Y2028540D01*
X16625288Y2028543D01*
X16625290Y2028543D01*
X16631686Y2032816D01*
X16686686Y2049500D01*
X16962389Y2049500D01*
X17032393Y2020504D01*
X17962203Y1090693D01*
X17963968Y1088834D01*
X18019287Y1027396D01*
X18067268Y1006034D01*
X18080905Y998630D01*
X18124949Y970027D01*
X18148071Y966365D01*
X18172841Y959029D01*
X18194243Y949500D01*
X18246758Y949500D01*
X18262244Y948282D01*
X18314105Y940067D01*
X18336720Y946127D01*
X18362344Y949500D01*
X21466915Y949500D01*
X21469499Y949433D01*
X21513804Y947111D01*
X21552045Y945106D01*
X21552045Y945107D01*
X21552048Y945106D01*
X21601086Y963932D01*
X21615960Y968337D01*
X21667328Y979254D01*
X21686270Y993018D01*
X21708975Y1005345D01*
X21730841Y1013738D01*
X21767979Y1050878D01*
X21779776Y1060954D01*
X21822266Y1091823D01*
X21833971Y1112099D01*
X21849704Y1132602D01*
X22587608Y1870504D01*
X22657611Y1899500D01*
X22904243Y1899500D01*
X24115083Y1899500D01*
X24185087Y1870504D01*
X24214083Y1800500D01*
X24185087Y1730496D01*
X24170087Y1718187D01*
X24146205Y1702230D01*
X24129161Y1690841D01*
X24129158Y1690838D01*
X24018542Y1525289D01*
X24018540Y1525286D01*
X24005054Y1457488D01*
X23979695Y1330000D01*
X24018540Y1134715D01*
X24129159Y969161D01*
X24129161Y969159D01*
X24129161Y969158D01*
X24165500Y944878D01*
X24207597Y881877D01*
X24209500Y862562D01*
X24209500Y-212805D01*
X24180504Y-282809D01*
X22572810Y-1890504D01*
X22502806Y-1919500D01*
X21466194Y-1919500D01*
X21396190Y-1890504D01*
X21367194Y-1820500D01*
X21396190Y-1750496D01*
X21689199Y-1457487D01*
X22031631Y-1115054D01*
X22101634Y-1086059D01*
X22145077Y-1099237D01*
X22145703Y-1097727D01*
X22154712Y-1101458D01*
X22154715Y-1101460D01*
X22350000Y-1140305D01*
X22545285Y-1101460D01*
X22710840Y-990840D01*
X22821460Y-825285D01*
X22860305Y-630000D01*
X22821460Y-434715D01*
X22710840Y-269160D01*
X22545285Y-158540D01*
X22350000Y-119695D01*
X22154714Y-158540D01*
X22154712Y-158541D01*
X21992591Y-266867D01*
X21918276Y-281649D01*
X21855274Y-239552D01*
X21844562Y-218415D01*
X21804025Y-107040D01*
X21650902Y75446D01*
X21650901Y75447D01*
X21444597Y194556D01*
X21269105Y225500D01*
X21269101Y225500D01*
X21150899Y225500D01*
X21150894Y225500D01*
X20975402Y194556D01*
X20769096Y75445D01*
X20615977Y-107035D01*
X20615976Y-107037D01*
X20615975Y-107038D01*
X20615975Y-107039D01*
X20605125Y-136848D01*
X20553935Y-192713D01*
X20478236Y-196018D01*
X20425028Y-150106D01*
X20340438Y6204D01*
X20265220Y75447D01*
X20168435Y164544D01*
X19954340Y258454D01*
X19721353Y277760D01*
X19494723Y220370D01*
X19494722Y220369D01*
X19444337Y187452D01*
X19299004Y92502D01*
X19155411Y-91987D01*
X19155410Y-91988D01*
X19155410Y-91989D01*
X19102951Y-244796D01*
X19079500Y-313107D01*
X19079500Y-1588045D01*
X19106616Y-1750545D01*
X19108294Y-1760597D01*
X19140712Y-1820500D01*
X19219561Y-1966203D01*
X19219563Y-1966206D01*
X19232010Y-1977664D01*
X19263874Y-2046409D01*
X19237795Y-2117551D01*
X19169050Y-2149415D01*
X19164959Y-2149500D01*
X18857194Y-2149500D01*
X18787191Y-2120504D01*
X18713096Y-2046409D01*
X18417231Y-1750545D01*
X18417230Y-1750545D01*
X18390197Y-1723511D01*
X18390198Y-1723511D01*
X18382420Y-1721427D01*
X18365852Y-1716987D01*
X18341979Y-1707098D01*
X18320160Y-1694500D01*
X18281930Y-1694500D01*
X18281928Y-1694500D01*
X16660733Y-1694500D01*
X16590729Y-1665504D01*
X16578417Y-1650500D01*
X16570842Y-1639163D01*
X16570841Y-1639162D01*
X16570840Y-1639160D01*
X16405285Y-1528540D01*
X16210000Y-1489695D01*
X16014714Y-1528540D01*
X16014711Y-1528542D01*
X15849162Y-1639158D01*
X15849158Y-1639162D01*
X15738542Y-1804711D01*
X15738540Y-1804714D01*
X15721475Y-1890504D01*
X15699695Y-2000000D01*
X15738540Y-2195285D01*
X15849160Y-2360840D01*
X15939233Y-2421025D01*
X15981330Y-2484026D01*
X15966548Y-2558341D01*
X15939234Y-2585655D01*
X15859163Y-2639157D01*
X15859158Y-2639162D01*
X15748542Y-2804711D01*
X15748540Y-2804714D01*
X15720165Y-2947364D01*
X15709695Y-3000000D01*
X15748540Y-3195285D01*
X15859160Y-3360840D01*
X16024715Y-3471460D01*
X16220000Y-3510305D01*
X16415285Y-3471460D01*
X16580840Y-3360840D01*
X16691460Y-3195285D01*
X16730305Y-3000000D01*
X16721777Y-2957129D01*
X16736559Y-2882815D01*
X16748866Y-2867818D01*
X16972189Y-2644496D01*
X17042193Y-2615500D01*
X17938691Y-2615500D01*
X18008693Y-2644495D01*
X18008695Y-2644497D01*
X18469286Y-3105090D01*
X18469298Y-3105100D01*
X18490687Y-3126489D01*
X18497189Y-3128231D01*
X18515028Y-3133012D01*
X18538902Y-3142901D01*
X18560723Y-3155499D01*
X18560724Y-3155499D01*
X18590969Y-3155499D01*
X18590981Y-3155500D01*
X18598956Y-3155500D01*
X20484912Y-3155500D01*
X20484928Y-3155499D01*
X20520159Y-3155499D01*
X20520160Y-3155499D01*
X20541979Y-3142901D01*
X20565851Y-3133012D01*
X20590197Y-3126489D01*
X20696489Y-3020198D01*
X20696489Y-3020196D01*
X20710411Y-3006275D01*
X20710412Y-3006272D01*
X21207190Y-2509496D01*
X21277194Y-2480500D01*
X22699912Y-2480500D01*
X22699928Y-2480499D01*
X22735159Y-2480499D01*
X22735160Y-2480499D01*
X22756979Y-2467901D01*
X22780851Y-2458012D01*
X22805197Y-2451489D01*
X22911489Y-2345198D01*
X22911489Y-2345196D01*
X22925410Y-2331276D01*
X22925411Y-2331273D01*
X24714456Y-542231D01*
X24714456Y-542229D01*
X24722606Y-534080D01*
X24722608Y-534077D01*
X24741489Y-515197D01*
X24748012Y-490852D01*
X24757898Y-466985D01*
X24770499Y-445160D01*
X24770499Y-418459D01*
X24770500Y-418450D01*
X24770500Y862562D01*
X24799496Y932566D01*
X24814500Y944878D01*
X24850838Y969158D01*
X24850838Y969160D01*
X24850840Y969160D01*
X24894339Y1034261D01*
X24918185Y1069948D01*
X24981186Y1112045D01*
X25055501Y1097262D01*
X25097598Y1034261D01*
X25099500Y1014947D01*
X25099500Y-746914D01*
X25099432Y-749505D01*
X25095105Y-832044D01*
X25095106Y-832050D01*
X25113924Y-881074D01*
X25118335Y-895965D01*
X25129253Y-947326D01*
X25129253Y-947327D01*
X25129254Y-947328D01*
X25143016Y-966271D01*
X25155344Y-988976D01*
X25158181Y-996366D01*
X25163737Y-1010839D01*
X25163740Y-1010843D01*
X25200871Y-1047975D01*
X25210960Y-1059787D01*
X25241822Y-1102265D01*
X25241824Y-1102267D01*
X25262093Y-1113969D01*
X25282598Y-1129702D01*
X25444927Y-1292031D01*
X25444929Y-1292032D01*
X25620504Y-1467607D01*
X25649500Y-1537611D01*
X25649500Y-2482389D01*
X25620504Y-2552393D01*
X25352393Y-2820504D01*
X25282389Y-2849500D01*
X22146686Y-2849500D01*
X22091686Y-2832816D01*
X22085290Y-2828542D01*
X22085285Y-2828540D01*
X21890000Y-2789695D01*
X21694714Y-2828540D01*
X21694711Y-2828542D01*
X21529162Y-2939158D01*
X21529158Y-2939162D01*
X21418542Y-3104711D01*
X21418540Y-3104714D01*
X21397518Y-3210397D01*
X21379695Y-3300000D01*
X21418540Y-3495285D01*
X21529160Y-3660840D01*
X21694711Y-3771457D01*
X21694713Y-3771459D01*
X21694715Y-3771460D01*
X21857820Y-3803904D01*
X21886422Y-3823015D01*
X21922177Y-3803904D01*
X22085285Y-3771460D01*
X22085289Y-3771457D01*
X22085290Y-3771457D01*
X22091686Y-3767184D01*
X22146686Y-3750500D01*
X25344243Y-3750500D01*
X25496915Y-3750500D01*
X25499499Y-3750567D01*
X25582048Y-3754894D01*
X25582048Y-3754893D01*
X25582050Y-3754894D01*
X25592327Y-3753267D01*
X25592457Y-3754093D01*
X25611845Y-3750500D01*
X25858562Y-3750500D01*
X25896443Y-3758034D01*
X25904711Y-3761458D01*
X25904712Y-3761458D01*
X25904715Y-3761460D01*
X26100000Y-3800305D01*
X26295285Y-3761460D01*
X26460840Y-3650840D01*
X26571460Y-3485285D01*
X26610305Y-3290000D01*
X26571460Y-3094715D01*
X26571458Y-3094712D01*
X26571457Y-3094709D01*
X26567184Y-3088314D01*
X26550500Y-3033314D01*
X26550500Y-2753241D01*
X26551719Y-2737753D01*
X26559933Y-2685895D01*
X26553873Y-2663279D01*
X26550500Y-2637656D01*
X26550500Y-1323084D01*
X26550568Y-1320493D01*
X26554894Y-1237954D01*
X26554893Y-1237950D01*
X26547500Y-1218692D01*
X26536074Y-1188927D01*
X26531663Y-1174033D01*
X26527339Y-1153691D01*
X26541146Y-1079188D01*
X26603591Y-1036271D01*
X26673673Y-1047369D01*
X26755401Y-1094555D01*
X26930899Y-1125500D01*
X26930900Y-1125500D01*
X27049100Y-1125500D01*
X27049101Y-1125500D01*
X27224599Y-1094555D01*
X27430902Y-975446D01*
X27544662Y-839871D01*
X27611871Y-804885D01*
X27684136Y-827669D01*
X27719123Y-894879D01*
X27719500Y-903508D01*
X27719500Y-948982D01*
X27719331Y-953072D01*
X27712240Y-1038645D01*
X27712240Y-1038649D01*
X27716470Y-1055350D01*
X27719500Y-1079654D01*
X27719500Y-1588045D01*
X27746616Y-1750545D01*
X27748294Y-1760597D01*
X27780712Y-1820500D01*
X27859561Y-1966203D01*
X27859562Y-1966204D01*
X27859563Y-1966205D01*
X28031565Y-2124544D01*
X28245660Y-2218454D01*
X28478647Y-2237760D01*
X28705278Y-2180369D01*
X28900996Y-2052501D01*
X29044590Y-1868011D01*
X29086011Y-1747354D01*
X29136167Y-1690559D01*
X29179647Y-1680500D01*
X30220734Y-1680500D01*
X30290738Y-1709496D01*
X30305141Y-1727766D01*
X30391083Y-1868011D01*
X30402735Y-1887025D01*
X30402738Y-1887029D01*
X30702291Y-2237760D01*
X30729907Y-2270093D01*
X30729913Y-2270098D01*
X30729916Y-2270101D01*
X31067401Y-2558341D01*
X31112976Y-2597266D01*
X31112978Y-2597267D01*
X31112983Y-2597271D01*
X31542500Y-2860480D01*
X31542512Y-2860486D01*
X31732444Y-2939158D01*
X31959757Y-3033314D01*
X32007931Y-3053268D01*
X32007933Y-3053269D01*
X32497783Y-3170872D01*
X33000000Y-3210397D01*
X33502217Y-3170872D01*
X33992067Y-3053269D01*
X34457490Y-2860485D01*
X34571529Y-2790601D01*
X34646365Y-2778748D01*
X34707666Y-2823285D01*
X34719520Y-2898123D01*
X34690828Y-2947366D01*
X34526826Y-3100533D01*
X34521579Y-3104802D01*
X34081107Y-3415721D01*
X34075328Y-3419236D01*
X33596614Y-3667285D01*
X33590410Y-3669979D01*
X33082377Y-3850534D01*
X33075864Y-3852359D01*
X32547987Y-3962054D01*
X32541286Y-3962975D01*
X32375574Y-3974310D01*
X32001672Y-3999885D01*
X31998311Y-4000000D01*
X31911836Y-4000000D01*
X21941494Y-4000001D01*
X21895176Y-3980816D01*
X21893506Y-3983317D01*
X21838505Y-4000001D01*
X18541003Y-4000001D01*
X18540998Y-3999999D01*
X18499994Y-3999999D01*
X18352257Y-3999999D01*
X18352254Y-3999999D01*
X18062461Y-4057644D01*
X18062459Y-4057644D01*
X17872210Y-4136448D01*
X17796439Y-4136448D01*
X17767629Y-4118146D01*
X17671597Y-4030601D01*
X17671595Y-4030600D01*
X17462253Y-3949500D01*
X17462252Y-3949500D01*
X17294353Y-3949500D01*
X17129317Y-3980350D01*
X17041994Y-4034417D01*
X16967211Y-4046615D01*
X16937766Y-4034420D01*
X16931598Y-4030601D01*
X16722253Y-3949500D01*
X16722252Y-3949500D01*
X16554353Y-3949500D01*
X16389317Y-3980350D01*
X16301994Y-4034417D01*
X16227211Y-4046615D01*
X16197766Y-4034420D01*
X16191598Y-4030601D01*
X15982253Y-3949500D01*
X15982252Y-3949500D01*
X15814353Y-3949500D01*
X15649317Y-3980350D01*
X15561994Y-4034417D01*
X15487211Y-4046615D01*
X15457766Y-4034420D01*
X15451598Y-4030601D01*
X15242253Y-3949500D01*
X15242252Y-3949500D01*
X15074353Y-3949500D01*
X14909317Y-3980350D01*
X14821994Y-4034417D01*
X14747211Y-4046615D01*
X14717766Y-4034420D01*
X14711598Y-4030601D01*
X14502253Y-3949500D01*
X14502252Y-3949500D01*
X14334353Y-3949500D01*
X14169317Y-3980350D01*
X14081994Y-4034417D01*
X14007211Y-4046615D01*
X13977766Y-4034420D01*
X13971598Y-4030601D01*
X13762253Y-3949500D01*
X13762252Y-3949500D01*
X13594353Y-3949500D01*
X13429316Y-3980350D01*
X13238438Y-4098536D01*
X13238436Y-4098539D01*
X13236408Y-4101225D01*
X13233825Y-4102742D01*
X13231656Y-4104720D01*
X13231238Y-4104262D01*
X13171080Y-4139612D01*
X13119520Y-4133025D01*
X12937530Y-4057642D01*
X12647737Y-4000000D01*
X12647735Y-4000000D01*
X12499999Y-4000000D01*
X12411835Y-4000000D01*
X12411834Y-4000000D01*
X1001688Y-4000000D01*
X998326Y-3999885D01*
X589771Y-3971940D01*
X458713Y-3962976D01*
X452013Y-3962055D01*
X313560Y-3933284D01*
X-75865Y-3852360D01*
X-82379Y-3850535D01*
X-590408Y-3669981D01*
X-596612Y-3667287D01*
X-1075331Y-3419234D01*
X-1081110Y-3415719D01*
X-1467607Y-3142901D01*
X-1521583Y-3104800D01*
X-1526827Y-3100534D01*
X-1690832Y-2947364D01*
X-1722201Y-2878391D01*
X-1695612Y-2807438D01*
X-1626639Y-2776069D01*
X-1571533Y-2790599D01*
X-1522733Y-2820504D01*
X-1457494Y-2860483D01*
X-1457488Y-2860486D01*
X-1267556Y-2939158D01*
X-1040243Y-3033314D01*
X-992069Y-3053268D01*
X-992067Y-3053269D01*
X-502217Y-3170872D01*
X0Y-3210397D01*
X502217Y-3170872D01*
X992067Y-3053269D01*
X1457490Y-2860485D01*
X1457494Y-2860482D01*
X1457499Y-2860480D01*
X1887016Y-2597271D01*
X1887016Y-2597270D01*
X1887024Y-2597266D01*
X2270093Y-2270093D01*
X2597266Y-1887024D01*
X2674741Y-1760597D01*
X2860480Y-1457499D01*
X2860482Y-1457494D01*
X2860485Y-1457490D01*
X3053269Y-992067D01*
X3170872Y-502217D01*
X3210397Y0D01*
X3170872Y502217D01*
X3053269Y992067D01*
X2860485Y1457490D01*
X2860480Y1457500D01*
X2597271Y1887017D01*
X2597261Y1887030D01*
X2270101Y2270084D01*
X2270098Y2270087D01*
X2270093Y2270093D01*
X2270086Y2270099D01*
X2270083Y2270102D01*
X2097160Y2417793D01*
X4989694Y2417793D01*
X5028539Y2222508D01*
X5139159Y2056953D01*
X5304714Y1946333D01*
X5499999Y1907488D01*
X5695284Y1946333D01*
X5860839Y2056953D01*
X5971459Y2222508D01*
X5972960Y2230056D01*
X6000053Y2280746D01*
X6309812Y2590504D01*
X6379816Y2619500D01*
X12652389Y2619500D01*
X12722393Y2590504D01*
X12959945Y2352952D01*
X12987038Y2302265D01*
X12987890Y2297978D01*
X12988540Y2294713D01*
X12992815Y2288316D01*
X13009499Y2233316D01*
X13009500Y1525378D01*
X13009432Y1522787D01*
X13005105Y1440248D01*
X13005106Y1440242D01*
X13023924Y1391218D01*
X13028335Y1376327D01*
X13039253Y1324966D01*
X13039253Y1324965D01*
X13039254Y1324964D01*
X13053016Y1306021D01*
X13065345Y1283315D01*
X13073737Y1261453D01*
X13073740Y1261449D01*
X13110871Y1224317D01*
X13120959Y1212506D01*
X13151823Y1170026D01*
X13151825Y1170025D01*
X13172094Y1158323D01*
X13192599Y1142590D01*
X14304444Y30745D01*
X14331537Y-19943D01*
X14333039Y-27492D01*
X14443659Y-193047D01*
X14609214Y-303667D01*
X14804499Y-342512D01*
X14999784Y-303667D01*
X15165339Y-193047D01*
X15275959Y-27492D01*
X15314804Y167793D01*
X15275959Y363078D01*
X15165339Y528633D01*
X14999784Y639253D01*
X14999781Y639254D01*
X14992235Y640755D01*
X14941547Y667848D01*
X13939496Y1669900D01*
X13910500Y1739904D01*
X13910500Y2233316D01*
X13927185Y2288318D01*
X13931460Y2294715D01*
X13970305Y2490000D01*
X13931460Y2685285D01*
X13820840Y2850840D01*
X13655285Y2961460D01*
X13655282Y2961461D01*
X13647736Y2962962D01*
X13597048Y2990055D01*
X13207795Y3379309D01*
X13206011Y3381189D01*
X13150714Y3442603D01*
X13150713Y3442604D01*
X13120037Y3456262D01*
X13102734Y3463966D01*
X13089082Y3471379D01*
X13045050Y3499974D01*
X13045049Y3499975D01*
X13021924Y3503638D01*
X12997152Y3510976D01*
X12975759Y3520500D01*
X12975757Y3520500D01*
X12923242Y3520500D01*
X12907755Y3521719D01*
X12855895Y3529933D01*
X12833279Y3523873D01*
X12807656Y3520500D01*
X6165291Y3520500D01*
X6162706Y3520568D01*
X6148031Y3521337D01*
X6080155Y3524895D01*
X6031124Y3506074D01*
X6016233Y3501663D01*
X5964877Y3490746D01*
X5964875Y3490746D01*
X5945935Y3476985D01*
X5923228Y3464656D01*
X5901366Y3456264D01*
X5864232Y3419130D01*
X5852421Y3409042D01*
X5809939Y3378177D01*
X5798234Y3357903D01*
X5782503Y3337402D01*
X5362949Y2917848D01*
X5312262Y2890755D01*
X5304716Y2889254D01*
X5304714Y2889254D01*
X5304714Y2889253D01*
X5262194Y2860842D01*
X5139160Y2778634D01*
X5139157Y2778631D01*
X5028541Y2613082D01*
X5028539Y2613079D01*
X5024230Y2591417D01*
X4989694Y2417793D01*
X2097160Y2417793D01*
X1887029Y2597262D01*
X1887016Y2597272D01*
X1457499Y2860481D01*
X1457487Y2860487D01*
X992068Y3053269D01*
X992069Y3053269D01*
X502215Y3170873D01*
X42900Y3207021D01*
X0Y3210397D01*
X-1Y3210397D01*
X-502216Y3170873D01*
X-992069Y3053269D01*
X-1457488Y2860487D01*
X-1457500Y2860481D01*
X-1571532Y2790601D01*
X-1646370Y2778747D01*
X-1707670Y2823285D01*
X-1719524Y2898123D01*
X-1690832Y2947365D01*
X-1686170Y2951719D01*
X-1526823Y3100539D01*
X-1521593Y3104795D01*
X-1081107Y3415722D01*
X-1075331Y3419235D01*
X-879768Y3520568D01*
X-596611Y3667289D01*
X-590408Y3669982D01*
X-419846Y3730600D01*
X-82374Y3850538D01*
X-75875Y3852359D01*
X452027Y3962059D01*
X458701Y3962976D01*
X998326Y3999887D01*
X1001688Y4000001D01*
X12392141Y4000001D01*
X12392145Y4000000D01*
X12411835Y4000000D01*
X12541004Y4000000D01*
X12541004Y4000001D01*
X12549247Y4000000D01*
X12549252Y4000001D01*
X12551631Y4000001D01*
X12551708Y4000004D01*
X12647734Y4000004D01*
X12647735Y4000004D01*
X12937531Y4057647D01*
X13127779Y4136451D01*
X13203548Y4136451D01*
X13232358Y4118150D01*
X13328398Y4030598D01*
X13537743Y3949497D01*
X13537744Y3949497D01*
X13705642Y3949497D01*
X13870676Y3980347D01*
X13870677Y3980348D01*
X13870679Y3980348D01*
X13958000Y4034416D01*
X14032781Y4046615D01*
X14062234Y4034415D01*
X14068398Y4030598D01*
X14277743Y3949497D01*
X14277744Y3949497D01*
X14445642Y3949497D01*
X14610676Y3980347D01*
X14610677Y3980348D01*
X14610679Y3980348D01*
X14698000Y4034416D01*
X14772781Y4046615D01*
X14802234Y4034415D01*
X14808398Y4030598D01*
X15017743Y3949497D01*
X15017744Y3949497D01*
X15185642Y3949497D01*
X15350676Y3980347D01*
X15350677Y3980348D01*
X15350679Y3980348D01*
X15438000Y4034416D01*
X15512781Y4046615D01*
X15542234Y4034415D01*
X15548398Y4030598D01*
X15757743Y3949497D01*
X15757744Y3949497D01*
X15925642Y3949497D01*
X16090676Y3980347D01*
X16090677Y3980348D01*
X16090679Y3980348D01*
X16178000Y4034416D01*
X16252781Y4046615D01*
X16282234Y4034415D01*
X16288398Y4030598D01*
X16497743Y3949497D01*
X16497744Y3949497D01*
X16665642Y3949497D01*
X16830676Y3980347D01*
X16830677Y3980348D01*
X16830679Y3980348D01*
X16918000Y4034416D01*
X16992781Y4046615D01*
X17022234Y4034415D01*
X17028398Y4030598D01*
X17237743Y3949497D01*
X17237744Y3949497D01*
X17405642Y3949497D01*
X17570679Y3980348D01*
X17761558Y4098535D01*
X17763582Y4101216D01*
X17766163Y4102733D01*
X17768340Y4104717D01*
X17768758Y4104259D01*
X17828904Y4139610D01*
X17880474Y4133025D01*
G37*
%TD.AperFunction*%
%TD*%
M02*
