%TF.GenerationSoftware,KiCad,Pcbnew,7.0.6-7.0.6~ubuntu23.04.1*%
%TF.CreationDate,2023-08-05T23:29:43-04:00*%
%TF.ProjectId,udb-s,7564622d-732e-46b6-9963-61645f706362,rev?*%
%TF.SameCoordinates,Original*%
%TF.FileFunction,Profile,NP*%
%FSLAX46Y46*%
G04 Gerber Fmt 4.6, Leading zero omitted, Abs format (unit mm)*
G04 Created by KiCad (PCBNEW 7.0.6-7.0.6~ubuntu23.04.1) date 2023-08-05 23:29:43*
%MOMM*%
%LPD*%
G01*
G04 APERTURE LIST*
%TA.AperFunction,Profile*%
%ADD10C,0.100000*%
%TD*%
%TA.AperFunction,Profile*%
%ADD11C,0.080000*%
%TD*%
G04 APERTURE END LIST*
D10*
X-7500003Y-6000003D02*
G75*
G03*
X-6500004Y-7000003I1000003J3D01*
G01*
X-12500000Y-11000000D02*
G75*
G03*
X-11500001Y-12000000I1000000J0D01*
G01*
X-6500004Y7000004D02*
G75*
G03*
X-7500004Y5999997I4J-1000004D01*
G01*
X-11500001Y12000001D02*
G75*
G03*
X-12500001Y11000000I1J-1000001D01*
G01*
X-12500001Y-11000000D02*
X-12500001Y11000000D01*
X42499999Y-11999999D02*
G75*
G03*
X43499999Y-11000000I1J999999D01*
G01*
X42499999Y-12000000D02*
X-11500001Y-12000000D01*
X43500000Y11000000D02*
G75*
G03*
X42499999Y12000000I-1000000J0D01*
G01*
X-11500001Y12000000D02*
X42499999Y12000000D01*
X43499999Y11000000D02*
X43499999Y-11000000D01*
X37499999Y-6999999D02*
G75*
G03*
X38499999Y-6000000I1J999999D01*
G01*
X38500000Y6000000D02*
G75*
G03*
X37499999Y7000000I-1000000J0D01*
G01*
X12499996Y6999997D02*
X-6500004Y6999997D01*
X-6500004Y-7000003D02*
X12500002Y-6999997D01*
X-7500004Y5999997D02*
X-7500004Y-6000003D01*
X37499999Y7000000D02*
X18499993Y6999994D01*
X38499999Y-6000000D02*
X38499999Y6000000D01*
X18499999Y-7000000D02*
X37499999Y-7000000D01*
X18499996Y-4500003D02*
X32000000Y-4500000D01*
X1000000Y-4500001D02*
X12499999Y-4500000D01*
X32000000Y4500000D02*
X18499996Y4499997D01*
X1000000Y4500001D02*
G75*
G03*
X1000000Y-4500001I0J-4500001D01*
G01*
X32000000Y-4500000D02*
G75*
G03*
X32000000Y4500000I0J4500000D01*
G01*
X12499999Y4500000D02*
X1000000Y4500001D01*
D11*
%TO.C,REF\u002A\u002A*%
X13499996Y-5499997D02*
G75*
G03*
X12499999Y-4500000I-999996J1D01*
G01*
X18499996Y-4500003D02*
G75*
G03*
X17499999Y-5500000I-1J-999996D01*
G01*
X12500002Y-6999997D02*
G75*
G03*
X13499999Y-6000000I1J999996D01*
G01*
X17500002Y-6000003D02*
G75*
G03*
X18499999Y-7000000I999996J-1D01*
G01*
X17499999Y-5500000D02*
X17499999Y-6000000D01*
X13499999Y-6000000D02*
X13499999Y-5500000D01*
X12499999Y4500000D02*
G75*
G03*
X13499996Y5499997I0J999997D01*
G01*
X13499993Y6000000D02*
G75*
G03*
X12499996Y6999997I-999997J0D01*
G01*
X17499999Y5499994D02*
G75*
G03*
X18499996Y4499997I999997J0D01*
G01*
X18499993Y6999994D02*
G75*
G03*
X17499996Y5999997I0J-999997D01*
G01*
X17499996Y5999997D02*
X17499996Y5499997D01*
X13499996Y5499997D02*
X13499996Y5999997D01*
%TD*%
M02*
