M48
; DRILL file {KiCad 7.0.6-7.0.6~ubuntu23.04.1} date Fri 28 Jul 2023 07:39:51 PM EDT
; FORMAT={-:-/ absolute / inch / decimal}
; #@! TF.CreationDate,2023-07-28T19:39:51-04:00
; #@! TF.GenerationSoftware,Kicad,Pcbnew,7.0.6-7.0.6~ubuntu23.04.1
; #@! TF.FileFunction,Plated,1,4,PTH
FMAT,2
INCH
; #@! TA.AperFunction,Plated,PTH,ViaDrill
T1C0.0118
; #@! TA.AperFunction,Plated,PTH,ComponentDrill
T2C0.0236
; #@! TA.AperFunction,Plated,PTH,ComponentDrill
T3C0.1260
%
G90
G05
T1
X0.2165Y0.0952
X0.3343Y0.0751
X0.487Y0.0153
X0.5291Y-0.0787
X0.5291Y-0.1181
X0.5299Y0.098
X0.5829Y0.0066
X0.6382Y-0.0787
X0.6386Y-0.1181
X0.6469Y0.0984
X0.7785Y-0.1407
X0.822Y-0.1295
X0.8618Y-0.1299
X0.8799Y-0.0248
X0.9642Y0.0524
X1.0276Y-0.1295
X1.0748Y-0.1169
T3
X0.0Y0.0
X1.2992Y0.0
T2
G00X0.7787Y0.1142
M15
G01X0.7787Y0.1378
M16
G05
G00X0.7787Y-0.0602
M15
G01X0.7787Y-0.0169
M16
G05
G00X1.1189Y0.1142
M15
G01X1.1189Y0.1378
M16
G05
G00X1.1189Y-0.0602
M15
G01X1.1189Y-0.0169
M16
G05
T0
M30
